<?xml version="1.0" encoding="utf-8"?>
<!-- Generator: Adobe Illustrator 16.0.0, SVG Export Plug-In . SVG Version: 6.00 Build 0)  -->
<!DOCTYPE svg PUBLIC "-//W3C//DTD SVG 1.1//EN" "http://www.w3.org/Graphics/SVG/1.1/DTD/svg11.dtd">
<svg version="1.1" id="Layer_1" xmlns="http://www.w3.org/2000/svg" xmlns:xlink="http://www.w3.org/1999/xlink" x="0px" y="0px"
	 width="75px" height="75px" viewBox="0 0 75 75" enable-background="new 0 0 75 75" xml:space="preserve">
<path fill="#030303" d="M-126.383,12.765c-1.185-0.853-2.544-1.307-4.081-1.355c-2.035,0.049-3.725,0.869-5.075,2.458
	c-1.137,1.663-1.682,3.522-1.629,5.577c0,2.715,0.792,5.537,2.381,8.475c0.771,1.368,1.76,2.529,2.979,3.483
	c1.216,0.956,2.605,1.433,4.17,1.433c1.977-0.073,3.623-0.785,4.939-2.131c0.637-0.953,1.045-1.931,1.226-2.934
	c0.108-1.005,0.165-1.846,0.165-2.533c0-2.957-0.757-5.943-2.271-8.95C-124.291,14.845-125.225,13.669-126.383,12.765z"/>
<path fill="#030303" d="M-126.888,44.841c-0.382-0.047-1.363,0-2.94,0.146c-1.552,0.221-3.144,0.573-4.77,1.062
	c-0.382,0.146-0.918,0.367-1.61,0.66c-0.694,0.316-1.398,0.77-2.117,1.355c-0.694,0.609-1.279,1.365-1.755,2.27
	c-0.552,0.953-0.824,2.102-0.824,3.443c0,2.637,1.191,4.811,3.582,6.519c2.273,1.708,5.378,2.587,9.322,2.638
	c3.538-0.051,6.24-0.832,8.101-2.345c1.818-1.491,2.726-3.406,2.726-5.751c0-1.906-0.621-3.564-1.862-4.979
	c-1.316-1.343-3.37-2.99-6.167-4.946C-125.683,44.864-126.243,44.841-126.888,44.841z"/>
<path fill="#030303" d="M-156.552-0.181v75.361h75.361V-0.181H-156.552z M-118.481,12.91c0.565,0.586,1.118,1.31,1.66,2.161
	c0.52,0.806,0.979,1.756,1.382,2.855c0.33,1.098,0.494,2.381,0.494,3.846c-0.043,2.684-0.637,4.832-1.779,6.444
	c-0.558,0.78-1.15,1.501-1.776,2.16c-0.695,0.657-1.431,1.33-2.212,2.013c-0.449,0.464-0.861,0.988-1.241,1.576
	c-0.447,0.609-0.671,1.316-0.671,2.121c0,0.786,0.229,1.431,0.688,1.942c0.389,0.489,0.768,0.917,1.136,1.282l2.547,2.087
	c1.582,1.298,2.969,2.72,4.162,4.282c1.123,1.589,1.708,3.662,1.758,6.225c0,3.638-1.608,6.857-4.82,9.669
	c-3.327,2.905-8.136,4.405-14.417,4.503c-5.258-0.049-9.183-1.17-11.777-3.359c-2.614-2.049-3.925-4.497-3.925-7.348
	c0-1.387,0.424-2.938,1.279-4.643c0.824-1.704,2.32-3.203,4.486-4.494c2.429-1.387,4.983-2.314,7.659-2.777
	c2.651-0.389,4.85-0.609,6.602-0.658c-0.542-0.713-1.023-1.473-1.447-2.282c-0.494-0.785-0.739-1.731-0.739-2.833
	c0-0.662,0.093-1.219,0.28-1.658c0.165-0.468,0.319-0.894,0.459-1.288c-0.852,0.097-1.658,0.146-2.411,0.146
	c-3.998-0.049-7.042-1.307-9.138-3.771c-2.195-2.298-3.293-4.97-3.293-8.019c0-3.688,1.553-7.029,4.663-10.033
	c2.133-1.756,4.351-2.901,6.65-3.441c2.278-0.465,4.412-0.695,6.402-0.695h15.011l-4.636,2.707h-4.627
	C-119.598,11.922-119.07,12.349-118.481,12.91z M-90.471,20.938h-7.876v7.875h-3.816v-7.875h-7.875v-3.816h7.875V9.243h3.816v7.878
	h7.876V20.938z"/>
<path fill="#030303" d="M0,0v75h75V0H0z M67.289,20.494l-6.074,0.004c-4.766,0-5.693,2.266-5.693,5.588v7.33h11.369l-1.48,11.48
	h-9.889v29.455H43.67V44.896h-9.914v-11.48h9.914v-8.465c0-9.826,5.996-15.176,14.762-15.176c4.203,0,7.809,0.312,8.857,0.451
	V20.494z"/>
</svg>
