<?xml version="1.0" encoding="utf-8"?>
<!-- Generator: Adobe Illustrator 16.0.0, SVG Export Plug-In . SVG Version: 6.00 Build 0)  -->
<!DOCTYPE svg PUBLIC "-//W3C//DTD SVG 1.1//EN" "http://www.w3.org/Graphics/SVG/1.1/DTD/svg11.dtd">
<svg version="1.1" id="Layer_1" xmlns="http://www.w3.org/2000/svg" xmlns:xlink="http://www.w3.org/1999/xlink" x="0px" y="0px"
	 width="315px" height="86.473px" viewBox="0 0 315 86.473" enable-background="new 0 0 315 86.473" xml:space="preserve">
<g>
	<path fill="#333132" d="M36.661,4.545c4.375,0,8.209,0.593,11.504,1.777c3.294,1.186,6.035,2.761,8.223,4.727
		c2.188,1.967,3.834,4.226,4.941,6.777c1.106,2.553,1.66,5.195,1.66,7.93c0,2.553-0.495,5.078-1.484,7.578
		c-0.99,2.5-2.48,4.805-4.473,6.914s-4.506,3.933-7.539,5.469c-3.034,1.537-6.596,2.617-10.684,3.242
		c-0.078,1.901-0.144,3.646-0.195,5.234c-0.026,0.678-0.053,1.354-0.078,2.031c-0.026,0.678-0.046,1.296-0.059,1.855
		c-0.014,0.561-0.026,1.049-0.039,1.465c-0.014,0.417-0.02,0.703-0.02,0.859c-0.053,1.823-0.268,3.718-0.645,5.684
		c-0.378,1.967-0.925,3.887-1.641,5.762c-0.717,1.875-1.589,3.652-2.617,5.332c-1.029,1.68-2.227,3.15-3.594,4.414
		c-1.367,1.263-2.897,2.266-4.59,3.008c-1.693,0.742-3.542,1.113-5.547,1.113c-2.136,0-4.043-0.554-5.723-1.66
		c-1.68-1.107-3.151-2.598-4.414-4.473c-1.264-1.875-2.331-4.036-3.203-6.484c-0.873-2.447-1.582-5.006-2.129-7.676
		c-0.547-2.669-0.944-5.357-1.191-8.066c-0.248-2.708-0.371-5.26-0.371-7.656c0-4.114,0.377-8.086,1.133-11.914
		c0.755-3.828,1.836-7.415,3.242-10.762c1.406-3.346,3.111-6.399,5.117-9.16c2.005-2.76,4.264-5.13,6.777-7.109
		c2.513-1.979,5.247-3.509,8.203-4.59C30.182,5.086,33.327,4.545,36.661,4.545z M13.223,48.686c0,1.068,0.006,2.507,0.02,4.316
		c0.013,1.811,0.084,3.744,0.215,5.801c0.13,2.058,0.338,4.141,0.625,6.25c0.286,2.109,0.709,4.018,1.27,5.723
		c0.56,1.706,1.263,3.1,2.109,4.18c0.846,1.08,1.907,1.621,3.184,1.621c1.328,0,2.461-0.463,3.398-1.387s1.719-2.122,2.344-3.594
		c0.625-1.471,1.119-3.138,1.484-5c0.364-1.861,0.638-3.73,0.82-5.605c0.182-1.875,0.299-3.665,0.352-5.371
		c0.052-1.705,0.078-3.157,0.078-4.355v-1.836c-2.162-0.859-3.861-1.614-5.098-2.266c-1.237-0.65-2.168-1.275-2.793-1.875
		c-0.625-0.599-1.022-1.23-1.191-1.895c-0.17-0.664-0.254-1.438-0.254-2.324c0-0.469,0.013-0.931,0.039-1.387
		c0.025-0.455,0.098-0.859,0.215-1.211s0.286-0.638,0.508-0.859c0.221-0.221,0.527-0.332,0.918-0.332
		c0.26,0,0.501,0.053,0.723,0.156c0.221,0.104,0.501,0.248,0.84,0.43c0.859,0.469,1.641,0.854,2.344,1.152
		c0.703,0.3,1.302,0.541,1.797,0.723c0.572,0.209,1.094,0.365,1.562,0.469c0-0.338,0.006-1.009,0.02-2.012
		c0.013-1.002,0.091-2.148,0.234-3.438c0.143-1.289,0.384-2.637,0.723-4.043c0.338-1.406,0.833-2.695,1.484-3.867
		c0.65-1.172,1.497-2.142,2.539-2.91c1.041-0.768,2.33-1.152,3.867-1.152c0.469,0,0.95,0.046,1.445,0.137
		c0.494,0.092,0.943,0.261,1.348,0.508c0.403,0.248,0.742,0.58,1.016,0.996c0.273,0.417,0.41,0.951,0.41,1.602
		c0,0.183-0.007,0.307-0.02,0.371c-0.014,0.065-0.02,0.15-0.02,0.254l-2.383,10.039l-0.352,3.086
		c2.552-0.391,4.752-1.016,6.602-1.875c1.849-0.859,3.379-1.875,4.59-3.047s2.109-2.461,2.695-3.867s0.879-2.852,0.879-4.336
		c0-1.458-0.28-2.949-0.84-4.473c-0.561-1.523-1.53-2.91-2.91-4.16c-1.381-1.25-3.229-2.278-5.547-3.086
		c-2.318-0.807-5.234-1.211-8.75-1.211c-2.631,0-5.014,0.502-7.148,1.504c-2.136,1.003-4.037,2.363-5.703,4.082
		c-1.667,1.719-3.112,3.725-4.336,6.016c-1.225,2.292-2.233,4.733-3.027,7.324c-0.795,2.592-1.381,5.261-1.758,8.008
		C13.412,43.406,13.223,46.082,13.223,48.686z"/>
	<path fill="#333132" d="M73.731,75.756c-2.448,0-4.59-0.442-6.426-1.328c-1.836-0.885-3.366-2.076-4.59-3.574
		c-1.225-1.497-2.143-3.229-2.754-5.195c-0.612-1.966-0.918-4.029-0.918-6.191c0-1.458,0.143-3.001,0.43-4.629
		c0.286-1.627,0.723-3.223,1.309-4.785S62.103,47,62.989,45.58c0.885-1.419,1.92-2.669,3.105-3.75
		c1.185-1.08,2.513-1.939,3.984-2.578c1.471-0.638,3.105-0.957,4.902-0.957c1.458,0,2.812,0.234,4.062,0.703
		s2.337,1.127,3.262,1.973c0.924,0.847,1.646,1.869,2.168,3.066c0.521,1.198,0.781,2.539,0.781,4.023
		c0,1.615-0.397,3.229-1.191,4.844c-0.795,1.615-1.895,3.139-3.301,4.57c-1.406,1.433-3.08,2.709-5.02,3.828
		c-1.94,1.12-4.043,1.992-6.309,2.617c0.391,0.703,0.774,1.289,1.152,1.758c0.377,0.469,0.762,0.834,1.152,1.094
		c0.391,0.261,0.801,0.443,1.23,0.547c0.43,0.104,0.892,0.156,1.387,0.156c1.562,0,3.209-0.312,4.941-0.938
		c1.731-0.625,3.418-1.406,5.059-2.344s3.189-1.959,4.648-3.066c1.458-1.106,2.695-2.154,3.711-3.145l5.039,5.234
		c-2.292,2.37-4.727,4.467-7.305,6.289c-1.12,0.781-2.324,1.55-3.613,2.305c-1.289,0.756-2.644,1.426-4.062,2.012
		c-1.42,0.586-2.891,1.055-4.414,1.406S75.293,75.756,73.731,75.756z M68.536,57.396c0.938,0,1.959-0.24,3.066-0.723
		c1.106-0.481,2.135-1.1,3.086-1.855c0.95-0.755,1.751-1.575,2.402-2.461c0.65-0.885,0.977-1.744,0.977-2.578
		c0-1.172-0.215-2.135-0.645-2.891c-0.43-0.755-0.957-1.133-1.582-1.133c-1.12,0-2.077,0.209-2.871,0.625
		c-0.795,0.417-1.459,0.957-1.992,1.621c-0.534,0.664-0.964,1.42-1.289,2.266c-0.326,0.847-0.573,1.699-0.742,2.559
		c-0.17,0.859-0.28,1.693-0.332,2.5C68.561,56.134,68.536,56.824,68.536,57.396z"/>
	<path fill="#333132" d="M91.27,67.592c0-1.146,0.064-2.48,0.195-4.004c0.13-1.523,0.306-3.131,0.527-4.824
		c0.221-1.692,0.481-3.418,0.781-5.176c0.299-1.758,0.618-3.431,0.957-5.02c0.338-1.588,0.677-3.047,1.016-4.375
		c0.338-1.328,0.677-2.422,1.016-3.281c0.208-0.572,0.416-1.028,0.625-1.367c0.208-0.338,0.449-0.605,0.723-0.801
		s0.611-0.325,1.016-0.391c0.403-0.064,0.904-0.098,1.504-0.098c0.677,0,1.204,0.033,1.582,0.098
		c0.377,0.065,0.657,0.222,0.84,0.469c0.182,0.248,0.293,0.605,0.332,1.074s0.059,1.107,0.059,1.914c0,0.964,0,2.129,0,3.496
		s0.025,2.715,0.078,4.043h0.43c0.521-1.041,1.106-2.207,1.758-3.496c0.65-1.289,1.406-2.493,2.266-3.613
		c0.859-1.119,1.836-2.063,2.93-2.832c1.094-0.768,2.356-1.152,3.789-1.152c0.494,0,0.977,0.085,1.445,0.254
		c0.469,0.17,0.879,0.41,1.23,0.723s0.631,0.697,0.84,1.152c0.208,0.456,0.312,0.971,0.312,1.543c0,0.443-0.065,1.062-0.195,1.855
		c-0.131,0.795-0.273,1.628-0.43,2.5c-0.156,0.873-0.3,1.719-0.43,2.539c-0.131,0.82-0.195,1.504-0.195,2.051
		c0,0.938,0.091,1.719,0.273,2.344c0.182,0.625,0.423,1.127,0.723,1.504c0.299,0.378,0.638,0.645,1.016,0.801
		c0.377,0.156,0.774,0.234,1.191,0.234c1.172,0,2.383-0.26,3.633-0.781c1.25-0.521,2.396-1.106,3.438-1.758
		c1.224-0.755,2.422-1.614,3.594-2.578l-0.586,9.141c-0.678,0.443-1.445,0.938-2.305,1.484s-1.777,1.062-2.754,1.543
		c-0.977,0.482-1.992,0.886-3.047,1.211c-1.055,0.326-2.129,0.488-3.223,0.488c-1.953,0-3.529-0.396-4.727-1.191
		c-1.198-0.794-2.148-1.836-2.852-3.125s-1.225-2.734-1.562-4.336c-0.339-1.602-0.612-3.223-0.82-4.863h-0.625l-6.992,19.492
		c-0.365,1.016-0.71,1.855-1.035,2.52c-0.326,0.664-0.658,1.205-0.996,1.621c-0.339,0.417-0.703,0.71-1.094,0.879
		c-0.391,0.17-0.82,0.254-1.289,0.254c-1.068,0-1.928-0.228-2.578-0.684c-0.651-0.455-1.152-1.067-1.504-1.836
		c-0.352-0.768-0.586-1.641-0.703-2.617S91.27,68.634,91.27,67.592z"/>
	<path fill="#333132" d="M141.27,68.451c0-0.338,0.025-0.82,0.078-1.445c0.052-0.625,0.13-1.341,0.234-2.148
		c0.104-0.807,0.221-1.66,0.352-2.559c0.13-0.898,0.26-1.79,0.391-2.676c0.286-2.083,0.638-4.322,1.055-6.719h-0.586
		c-0.312,0.391-0.671,0.977-1.074,1.758c-0.404,0.781-0.971,1.928-1.699,3.438c-0.729,1.511-1.66,3.471-2.793,5.879
		c-1.133,2.409-2.598,5.424-4.395,9.043c-0.521,1.068-1.127,1.791-1.816,2.168c-0.69,0.378-1.452,0.566-2.285,0.566
		c-1.068,0-1.928-0.228-2.578-0.684c-0.651-0.455-1.152-1.067-1.504-1.836c-0.352-0.768-0.586-1.641-0.703-2.617
		s-0.176-1.985-0.176-3.027c0-1.067,0.064-2.33,0.195-3.789c0.13-1.458,0.299-2.994,0.508-4.609
		c0.208-1.614,0.449-3.262,0.723-4.941s0.56-3.287,0.859-4.824c0.299-1.536,0.605-2.942,0.918-4.219
		c0.312-1.275,0.599-2.317,0.859-3.125c0.26-0.833,0.508-1.497,0.742-1.992c0.234-0.494,0.501-0.879,0.801-1.152
		c0.299-0.273,0.657-0.455,1.074-0.547c0.416-0.091,0.95-0.137,1.602-0.137c0.989,0,1.764,0.033,2.324,0.098
		c0.56,0.065,0.977,0.222,1.25,0.469c0.273,0.248,0.436,0.605,0.488,1.074c0.052,0.469,0.078,1.107,0.078,1.914
		c0,0.443-0.02,0.951-0.059,1.523c-0.039,0.573-0.098,1.186-0.176,1.836c-0.078,0.651-0.163,1.322-0.254,2.012
		c-0.092,0.69-0.189,1.361-0.293,2.012c-0.234,1.537-0.482,3.125-0.742,4.766l0.43,0.469c0.052-0.078,0.332-0.572,0.84-1.484
		c0.508-0.911,1.133-2.005,1.875-3.281c0.742-1.275,1.543-2.61,2.402-4.004c0.859-1.393,1.68-2.623,2.461-3.691
		c0.755-1.067,1.556-1.953,2.402-2.656c0.846-0.703,1.855-1.055,3.027-1.055c1.094,0,2.031,0.319,2.812,0.957
		c0.781,0.639,1.172,1.543,1.172,2.715c0,1.016-0.065,1.979-0.195,2.891c-0.131,0.912-0.293,1.797-0.488,2.656
		s-0.397,1.699-0.605,2.52c-0.209,0.82-0.404,1.66-0.586,2.52c-0.131,0.6-0.209,0.977-0.234,1.133
		c-0.026,0.156-0.039,0.261-0.039,0.312l0.43,0.469c0.052-0.078,0.352-0.566,0.898-1.465s1.217-1.985,2.011-3.262
		c0.795-1.275,1.641-2.617,2.539-4.023s1.738-2.643,2.52-3.711c0.756-1.041,1.51-1.92,2.266-2.637
		c0.756-0.716,1.68-1.074,2.773-1.074c1.225,0,2.26,0.319,3.105,0.957c0.846,0.639,1.27,1.543,1.27,2.715
		c0,1.797-0.092,3.503-0.273,5.117c-0.182,1.615-0.391,3.203-0.625,4.766s-0.443,3.145-0.625,4.746s-0.273,3.301-0.273,5.098
		c0,1.406,0.182,2.553,0.547,3.438c0.365,0.886,0.807,1.328,1.328,1.328c0.547,0,1.119-0.117,1.719-0.352s1.211-0.533,1.836-0.898
		c0.625-0.364,1.236-0.787,1.836-1.27c0.6-0.481,1.172-0.982,1.719-1.504c1.275-1.197,2.539-2.552,3.789-4.062l0.664,9.219
		c-1.146,0.912-2.285,1.855-3.418,2.832s-2.33,1.862-3.594,2.656c-1.264,0.795-2.65,1.445-4.16,1.953s-3.217,0.762-5.117,0.762
		c-0.938,0-1.725-0.306-2.363-0.918c-0.639-0.611-1.152-1.465-1.543-2.559s-0.67-2.383-0.84-3.867s-0.254-3.099-0.254-4.844
		c0-1.641,0.059-3.379,0.176-5.215s0.279-3.691,0.488-5.566h-0.586l-7.929,20.195c-0.678,1.094-1.433,1.83-2.266,2.207
		c-0.834,0.378-1.797,0.566-2.891,0.566c-0.834,0-1.498-0.228-1.992-0.684c-0.495-0.455-0.879-1.041-1.152-1.758
		c-0.273-0.716-0.456-1.504-0.547-2.363C141.315,70.092,141.27,69.259,141.27,68.451z"/>
	<path fill="#333132" d="M217.129,66.186c-0.6,0.834-1.4,1.811-2.402,2.93c-1.002,1.12-2.129,2.188-3.379,3.203
		s-2.592,1.875-4.023,2.578s-2.865,1.055-4.297,1.055c-1.719,0-3.15-0.553-4.297-1.66c-1.146-1.106-2.135-2.715-2.969-4.824
		c-0.625,0.729-1.393,1.472-2.305,2.227c-0.912,0.756-1.908,1.439-2.988,2.051c-1.08,0.612-2.207,1.113-3.379,1.504
		s-2.344,0.586-3.516,0.586c-1.25,0-2.467-0.254-3.652-0.762s-2.232-1.236-3.145-2.188c-0.912-0.95-1.641-2.109-2.188-3.477
		s-0.82-2.91-0.82-4.629c0-1.953,0.273-3.958,0.82-6.016c0.547-2.057,1.303-4.068,2.266-6.035c0.963-1.966,2.104-3.821,3.418-5.566
		c1.314-1.744,2.754-3.268,4.316-4.57c1.562-1.302,3.209-2.337,4.941-3.105c1.732-0.768,3.496-1.152,5.293-1.152
		c0.6,0,1.068,0.117,1.406,0.352s0.619,0.502,0.84,0.801c0.221,0.3,0.436,0.593,0.645,0.879c0.209,0.287,0.469,0.495,0.781,0.625
		c0.312,0.131,0.631,0.215,0.957,0.254s0.658,0.059,0.996,0.059c0.287,0,0.58-0.006,0.879-0.02c0.299-0.013,0.592-0.02,0.879-0.02
		c0.391,0,0.756,0.039,1.094,0.117s0.639,0.248,0.898,0.508c0.26,0.261,0.463,0.625,0.605,1.094s0.215,1.107,0.215,1.914
		c0,1.25-0.131,2.637-0.391,4.16s-0.547,3.086-0.859,4.688s-0.6,3.203-0.859,4.805s-0.391,3.119-0.391,4.551
		c0,1.225,0.111,2.182,0.332,2.871c0.221,0.69,0.697,1.035,1.426,1.035c0.547,0,1.119-0.137,1.719-0.41s1.205-0.631,1.816-1.074
		c0.611-0.442,1.225-0.943,1.836-1.504c0.611-0.56,1.191-1.139,1.738-1.738c1.275-1.406,2.564-2.994,3.867-4.766L217.129,66.186z
		 M183.77,63.1c0,0.651,0.045,1.283,0.137,1.895c0.092,0.612,0.254,1.159,0.488,1.641c0.234,0.482,0.547,0.873,0.938,1.172
		c0.391,0.3,0.885,0.449,1.484,0.449c0.963,0,1.836-0.416,2.617-1.25c0.781-0.833,1.459-1.836,2.031-3.008s1.035-2.383,1.387-3.633
		s0.58-2.291,0.684-3.125l2.383-11.484c-1.068,0-2.109,0.268-3.125,0.801c-1.016,0.534-1.973,1.257-2.871,2.168
		c-0.898,0.912-1.725,1.953-2.48,3.125s-1.406,2.402-1.953,3.691s-0.971,2.585-1.27,3.887C183.92,60.73,183.77,61.954,183.77,63.1z"
		/>
	<path fill="#333132" d="M221.23,75.756c-1.406,0-2.715-0.618-3.926-1.855c-1.211-1.236-2.266-2.896-3.164-4.98
		c-0.898-2.083-1.602-4.498-2.109-7.246c-0.508-2.747-0.762-5.631-0.762-8.652c0-2.317,0.17-4.837,0.508-7.559
		c0.338-2.721,0.834-5.527,1.484-8.418s1.426-5.794,2.324-8.711c0.898-2.916,1.914-5.716,3.047-8.398
		c1.133-2.682,2.363-5.188,3.691-7.52c1.328-2.33,2.721-4.361,4.18-6.094c1.459-1.731,2.982-3.092,4.57-4.082
		c1.588-0.989,3.203-1.484,4.844-1.484c1.119,0,2.045,0.254,2.773,0.762s1.303,1.179,1.719,2.012
		c0.416,0.834,0.709,1.777,0.879,2.832s0.254,2.129,0.254,3.223c0,2.448-0.279,4.941-0.84,7.48s-1.314,5.092-2.266,7.656
		c-0.951,2.565-2.051,5.137-3.301,7.715s-2.553,5.137-3.906,7.676s-2.715,5.039-4.082,7.5s-2.65,4.863-3.848,7.207
		c-0.131,0.261-0.268,0.6-0.41,1.016c-0.143,0.417-0.279,0.866-0.41,1.348c-0.131,0.482-0.26,0.996-0.391,1.543
		s-0.234,1.081-0.312,1.602v0.547c0,0.678,0.072,1.335,0.215,1.973c0.143,0.639,0.318,1.211,0.527,1.719s0.43,0.912,0.664,1.211
		c0.234,0.3,0.455,0.449,0.664,0.449c0.494,0,1.061-0.104,1.699-0.312c0.639-0.208,1.314-0.488,2.031-0.84s1.451-0.755,2.207-1.211
		c0.756-0.455,1.484-0.918,2.188-1.387c1.641-1.094,3.359-2.356,5.156-3.789l3.203,8.203c-2.318,1.667-4.609,3.151-6.875,4.453
		c-0.99,0.547-2.012,1.088-3.066,1.621c-1.055,0.534-2.115,1.01-3.184,1.426c-1.068,0.417-2.109,0.749-3.125,0.996
		C223.066,75.633,222.115,75.756,221.23,75.756z M221.27,44.506c1.172-2.083,2.416-4.427,3.73-7.031
		c1.314-2.604,2.559-5.286,3.73-8.047c1.172-2.76,2.188-5.514,3.047-8.262c0.859-2.747,1.406-5.306,1.641-7.676
		c0-0.755-0.02-1.399-0.059-1.934c-0.039-0.533-0.162-0.801-0.371-0.801c-0.756,0-1.568,0.488-2.441,1.465s-1.744,2.299-2.617,3.965
		c-0.873,1.667-1.705,3.607-2.5,5.82c-0.795,2.214-1.504,4.57-2.129,7.07s-1.119,5.072-1.484,7.715
		C221.451,39.435,221.27,42.006,221.27,44.506z"/>
	<path fill="#333132" d="M275.84,66.186c-0.6,0.834-1.4,1.811-2.402,2.93c-1.002,1.12-2.129,2.188-3.379,3.203
		s-2.592,1.875-4.023,2.578s-2.865,1.055-4.297,1.055c-1.719,0-3.15-0.553-4.297-1.66c-1.146-1.106-2.135-2.715-2.969-4.824
		c-0.625,0.729-1.393,1.472-2.305,2.227c-0.912,0.756-1.908,1.439-2.988,2.051c-1.08,0.612-2.207,1.113-3.379,1.504
		s-2.344,0.586-3.516,0.586c-1.25,0-2.467-0.254-3.652-0.762s-2.232-1.236-3.145-2.188c-0.912-0.95-1.641-2.109-2.188-3.477
		s-0.82-2.91-0.82-4.629c0-1.953,0.273-3.958,0.82-6.016c0.547-2.057,1.303-4.068,2.266-6.035c0.963-1.966,2.104-3.821,3.418-5.566
		c1.314-1.744,2.754-3.268,4.316-4.57c1.562-1.302,3.209-2.337,4.941-3.105c1.732-0.768,3.496-1.152,5.293-1.152
		c0.6,0,1.068,0.117,1.406,0.352s0.619,0.502,0.84,0.801c0.221,0.3,0.436,0.593,0.645,0.879c0.209,0.287,0.469,0.495,0.781,0.625
		c0.312,0.131,0.631,0.215,0.957,0.254s0.658,0.059,0.996,0.059c0.287,0,0.58-0.006,0.879-0.02c0.299-0.013,0.592-0.02,0.879-0.02
		c0.391,0,0.756,0.039,1.094,0.117s0.639,0.248,0.898,0.508c0.26,0.261,0.463,0.625,0.605,1.094s0.215,1.107,0.215,1.914
		c0,1.25-0.131,2.637-0.391,4.16s-0.547,3.086-0.859,4.688s-0.6,3.203-0.859,4.805s-0.391,3.119-0.391,4.551
		c0,1.225,0.111,2.182,0.332,2.871c0.221,0.69,0.697,1.035,1.426,1.035c0.547,0,1.119-0.137,1.719-0.41s1.205-0.631,1.816-1.074
		c0.611-0.442,1.225-0.943,1.836-1.504c0.611-0.56,1.191-1.139,1.738-1.738c1.275-1.406,2.564-2.994,3.867-4.766L275.84,66.186z
		 M242.48,63.1c0,0.651,0.045,1.283,0.137,1.895c0.092,0.612,0.254,1.159,0.488,1.641c0.234,0.482,0.547,0.873,0.938,1.172
		c0.391,0.3,0.885,0.449,1.484,0.449c0.963,0,1.836-0.416,2.617-1.25c0.781-0.833,1.459-1.836,2.031-3.008s1.035-2.383,1.387-3.633
		s0.58-2.291,0.684-3.125l2.383-11.484c-1.068,0-2.109,0.268-3.125,0.801c-1.016,0.534-1.973,1.257-2.871,2.168
		c-0.898,0.912-1.725,1.953-2.48,3.125s-1.406,2.402-1.953,3.691s-0.971,2.585-1.27,3.887C242.631,60.73,242.48,61.954,242.48,63.1z
		"/>
	<path fill="#333132" d="M283.887,44.311c1.459-1.822,2.793-3.287,4.004-4.395c1.211-1.106,2.416-1.66,3.613-1.66
		c1.537,0,2.904,0.339,4.102,1.016c1.197,0.678,2.213,1.576,3.047,2.695c0.834,1.12,1.471,2.409,1.914,3.867
		c0.443,1.459,0.664,2.982,0.664,4.57c0,1.328-0.053,2.585-0.156,3.77c-0.104,1.186-0.293,2.344-0.566,3.477s-0.65,2.26-1.133,3.379
		c-0.482,1.12-1.113,2.279-1.895,3.477c0.938-0.547,1.889-1.08,2.852-1.602c0.963-0.521,1.934-1.094,2.91-1.719
		s1.959-1.321,2.949-2.09c0.99-0.768,2.006-1.673,3.047-2.715l3.008,6.445c-1.432,1.303-2.857,2.436-4.277,3.398
		c-1.42,0.964-2.877,1.804-4.375,2.52c-1.498,0.717-3.061,1.335-4.688,1.855c-1.627,0.521-3.354,0.99-5.176,1.406
		c-0.443,0.443-1.049,0.886-1.816,1.328c-0.768,0.443-1.529,0.847-2.285,1.211c-0.859,0.417-1.783,0.82-2.773,1.211h-0.977
		c-2.213,0-4.408-0.306-6.582-0.918c-2.174-0.611-4.146-1.295-5.918-2.051c-2.057-0.859-4.023-1.849-5.898-2.969
		c0.078-2.109,0.234-4.492,0.469-7.148c0.209-2.291,0.494-4.993,0.859-8.105c0.365-3.111,0.859-6.582,1.484-10.41
		c0.416-2.552,0.938-5.396,1.562-8.535c0.625-3.138,1.361-6.314,2.207-9.531c0.846-3.216,1.797-6.341,2.852-9.375
		c1.055-3.033,2.227-5.735,3.516-8.105c1.289-2.369,2.695-4.271,4.219-5.703c1.523-1.432,3.17-2.148,4.941-2.148
		c1.979,0,3.568,0.339,4.766,1.016c1.197,0.678,2.123,1.596,2.773,2.754c0.65,1.159,1.08,2.52,1.289,4.082s0.312,3.229,0.312,5
		c0,2.475-0.463,5.026-1.387,7.656c-0.924,2.631-2.129,5.254-3.613,7.871s-3.145,5.176-4.98,7.676s-3.666,4.857-5.488,7.07
		L283.887,44.311z M287.402,47.162c-0.912,0-1.822,0.189-2.734,0.566c-0.912,0.378-1.758,0.964-2.539,1.758
		c-0.781,0.795-1.471,1.811-2.07,3.047c-0.6,1.237-1.041,2.729-1.328,4.473c-0.234,1.406-0.43,2.702-0.586,3.887
		c-0.156,1.186-0.287,2.233-0.391,3.145c-0.104,1.042-0.195,2.019-0.273,2.93c0.859,0.261,1.719,0.482,2.578,0.664
		c0.756,0.156,1.549,0.3,2.383,0.43c0.834,0.131,1.627,0.195,2.383,0.195c0.885,0,1.693-0.26,2.422-0.781
		c0.729-0.521,1.381-1.217,1.953-2.09c0.572-0.872,1.068-1.868,1.484-2.988c0.416-1.119,0.756-2.285,1.016-3.496
		s0.455-2.408,0.586-3.594c0.131-1.185,0.195-2.271,0.195-3.262c0-0.65-0.072-1.27-0.215-1.855s-0.404-1.1-0.781-1.543
		c-0.377-0.442-0.898-0.801-1.562-1.074S288.418,47.162,287.402,47.162z M291.23,11.381c0-0.104-0.02-0.325-0.059-0.664
		c-0.039-0.338-0.131-0.689-0.273-1.055c-0.143-0.364-0.346-0.689-0.605-0.977c-0.26-0.286-0.611-0.43-1.055-0.43
		c-0.521,0-1.061,0.371-1.621,1.113s-1.113,1.745-1.66,3.008c-0.547,1.264-1.08,2.722-1.602,4.375
		c-0.521,1.654-1.029,3.386-1.523,5.195c-0.494,1.811-0.957,3.652-1.387,5.527s-0.82,3.652-1.172,5.332s-0.658,3.217-0.918,4.609
		c-0.26,1.394-0.469,2.52-0.625,3.379c0.703-1.354,1.49-2.76,2.363-4.219c0.873-1.458,1.752-2.975,2.637-4.551
		c0.885-1.575,1.752-3.189,2.598-4.844c0.846-1.653,1.615-3.346,2.305-5.078c0.689-1.731,1.264-3.489,1.719-5.273
		C290.807,15.047,291.1,13.23,291.23,11.381z"/>
</g>
</svg>
