<?xml version="1.0" encoding="utf-8"?>
<!-- Generator: Adobe Illustrator 16.0.0, SVG Export Plug-In . SVG Version: 6.00 Build 0)  -->
<!DOCTYPE svg PUBLIC "-//W3C//DTD SVG 1.1//EN" "http://www.w3.org/Graphics/SVG/1.1/DTD/svg11.dtd">
<svg version="1.1" id="Layer_1" xmlns="http://www.w3.org/2000/svg" xmlns:xlink="http://www.w3.org/1999/xlink" x="0px" y="0px"
	 width="2417.517px" height="3851.229px" viewBox="0 0 2417.517 3851.229" enable-background="new 0 0 2417.517 3851.229"
	 xml:space="preserve">
<path opacity="0.3" fill="none" stroke="#333132" stroke-width="0.5" stroke-miterlimit="10" stroke-dasharray="3" d="
	M1627.523,2224.191c-0.002,0.001-0.002,0.001-0.002,0.001c-0.016,0.004-0.027,0.014-0.039,0.021
	c-4.814,2.89-9.752,5.557-14.835,7.932c-12.95,6.06-26.831,10.303-42.034,11.851c-7.799,1.914-15.699,3.633-23.631,5.263
	c-2.875,0.596-5.759,1.152-8.645,1.727c-9.809,1.958-19.631,3.866-29.352,5.885c-6.059,1.457-12.12,2.919-18.184,4.346
	c-4.253,1.009-8.543,1.977-12.834,2.939c-0.504,0.137-1.021,0.263-1.525,0.402c-0.578,0.12-1.156,0.224-1.73,0.341
	c-17.465,3.863-35.182,7.305-53.072,10.199c-1.96,0.32-3.938,0.569-5.903,0.869c-12.288,2.182-24.55,4.308-36.759,6.395
	c-2.069,0.146-4.141,0.272-6.215,0.382c-8.439,0.544-16.828,0.93-25.175,1.191c-4.171,0.131-8.336,0.232-12.49,0.3
	c-4.274-0.016-8.515-0.015-12.718-0.008c-2.101,0-4.192,0.005-6.281,0.009c-0.505-0.02-1.015-0.033-1.521-0.056
	c-22.744,0.302-45.345-0.323-67.841-1.417c0.925,0.006,1.855,0.021,2.784,0.028c-38.584-0.167-77.24-2.167-115.902-4.984
	c-23.201-0.802-46.142-2.247-68.374-5.64c-0.471-0.043-0.943-0.085-1.41-0.127c-1.839-0.162-3.681-0.328-5.526-0.492
	c-0.037-0.003-0.077-0.006-0.117-0.009c-0.403-0.034-0.805-0.074-1.208-0.108c-5.265-0.471-10.532-0.945-15.803-1.422
	c-8.424-0.765-16.852-1.521-25.276-2.277c-7.589-0.602-15.269-0.859-22.893-0.904c-3.41-0.551-6.826-1.053-10.24-1.574
	c-3.07-0.467-6.144-0.959-9.219-1.414c-1.083-0.161-2.156-0.321-3.234-0.478c-0.264-0.037-0.531-0.077-0.8-0.115
	c-6.25-0.907-12.502-1.784-18.758-2.631c-1.346-0.181-2.696-0.359-4.04-0.538c-5.711-0.763-11.42-1.51-17.133-2.238
	c-0.61-0.074-1.223-0.152-1.836-0.236c-0.303-0.036-0.609-0.079-0.915-0.117c-5.906-0.746-11.816-1.48-17.726-2.216
	c-3.147-0.386-6.295-0.776-9.445-1.163c-8.574-1.057-17.14-2.111-25.707-3.184c-4.867-0.607-9.73-1.249-14.594-1.882
	c4.84,0.628,9.679,1.267,14.525,1.874c-1.059-0.132-2.116-0.26-3.171-0.391c-3.727-0.47-7.445-0.97-11.168-1.446
	c-3.617-0.464-7.236-0.933-10.851-1.409c3.554,0.466,7.11,0.914,10.665,1.372c-3.566-0.46-7.133-0.908-10.698-1.378
	c-0.063-0.008-0.127-0.016-0.191-0.023c0.048,0.004,0.098,0.012,0.148,0.019c-0.079-0.013-0.156-0.021-0.233-0.03
	c-2.734-0.359-5.475-0.697-8.209-1.066c-0.052-0.005-0.105-0.014-0.157-0.023c-2.095-0.281-4.186-0.592-6.281-0.881
	c-4.053-0.561-8.106-1.119-12.154-1.704c-1.859-0.271-3.719-0.546-5.578-0.821c-4.108-0.611-8.216-1.236-12.32-1.881
	c-0.8-0.126-1.597-0.248-2.396-0.377c-6.778-1.074-13.555-2.184-20.322-3.377c-5.261-0.926-10.513-1.904-15.763-2.914
	c-2.541-0.488-5.084-0.971-7.62-1.48c-1.741-0.206-3.503-0.391-5.269-0.572c-5.075-0.551-10.184-1.057-15.338-1.525
	c-0.012,0.002-0.021-0.004-0.033-0.006c-3.802-0.336-7.596-0.686-11.443-1c-5.44-0.449-10.928-0.884-16.467-1.325
	c-17-2.573-34.324-4.495-51.62-6.658c-8.649-1.087-17.293-2.229-25.883-3.55c-12.193-3.338-25.044-6.179-37.822-9.457
	c-6.389-1.646-12.762-3.396-19.022-5.375c-3.396-1.362-6.802-2.683-10.198-4.004c-0.639-0.25-1.281-0.502-1.921-0.754
	c-1.306-0.506-2.59-1.027-3.88-1.539c-0.931-0.373-1.857-0.75-2.779-1.123c-1.222-0.502-2.434-1.015-3.635-1.525
	c-0.886-0.375-1.76-0.763-2.625-1.146c-0.774-0.341-1.569-0.668-2.328-1.014c-2.525-1.164-4.981-2.391-7.357-3.684
	c-0.106-0.054-0.206-0.116-0.31-0.173c-1.472-0.808-2.9-1.646-4.297-2.517c-0.293-0.184-0.593-0.36-0.885-0.545
	c-0.119-0.076-0.24-0.146-0.359-0.223c-0.046-0.027-0.094-0.057-0.141-0.087c-0.655-0.424-1.273-0.888-1.911-1.335
	c-0.708-0.494-1.435-0.964-2.117-1.477c0.001,0,0.001,0,0.004-0.003c-0.008-0.006-0.012-0.007-0.013-0.007
	c-0.935,13.047-2.258,26.127-3.614,39.267c-0.213,5.659-0.538,11.313-0.896,16.978c-0.576,9.043-1.259,18.087-1.912,27.107
	c-1.028,14.291-1.928,28.527-1.971,42.637c0.557,14.702,1.568,29.272,5.898,42.877c1.331,4.385,2.809,8.678,4.422,12.92
	c8.706,22.98,21.277,44.471,37.808,63.559c3.583,3.453,7.19,6.872,10.852,10.238c12.208,11.211,24.843,21.979,37.646,32.502
	c50.159,37.904,97.465,82.531,145.249,123.957c6.953,5.797,13.967,11.51,21.031,17.156c12.198,10.149,24.697,19.978,37.339,29.683
	c2.529,1.941,5.063,3.877,7.604,5.812c25.39,17.207,51.172,35.146,75.483,54.7c3.474,2.793,6.917,5.617,10.351,8.477
	c35.325,21.472,62.477,51.499,80.385,85.934c3.907,7.51,7.379,15.218,10.385,23.105c13.438,35.176,17.882,73.682,12.251,111.747
	c0.35,3.627,0.764,7.234,1.203,10.836c0.071,0.566,0.118,1.144,0.19,1.713c3.082,38.742,17.537,72.844,37.278,103.994
	c17.782,28.06,39.854,53.713,61.782,78.212c9.25,10.336,18.475,20.469,27.337,30.476c6.175,6.713,12.397,13.397,18.62,20.086
	c0.295,0.313,0.591,0.633,0.881,0.945c4.376,4.701,8.752,9.401,13.121,14.115c25.438,25.268,49.784,53.104,73.241,81.282
	c20.561,14.103,44.235,20.564,72.431,11.641c8.333-2.169,15.969-5.626,23.107-9.941c22.987-13.888,40.68-36.899,58.731-56.392
	c5.08-5.623,10.026-11.148,14.839-16.386c5.497-6.205,10.733-12.671,15.671-19.389c9.887-13.44,18.603-27.885,25.859-43.255
	c3.326-7.649,5.895-15.498,7.584-23.543c6.766-32.177-0.471-67.462-29.344-105.695c-3.542-7.726-7.15-15.388-10.686-22.939
	c-7.079-15.112-13.862-29.794-19.214-43.684c-3.769-16.487-5.1-33.625-2.716-51.741c0.789-8.59,2.106-17.148,3.94-25.601
	c3.673-16.903,9.426-33.393,17.212-48.994c2.48-6.959,4.877-13.966,7.193-21.012c11.591-35.24,21.11-71.606,28.15-109.584
	c1.691-8.442,3.215-16.971,4.548-25.604c1.843-10.01,3.671-20.07,5.493-30.1c16.4-90.256,32.086-178.2,48.715-210.531
	c12.873-25.029,34.268-62.888,55.179-99.115c5.765-9.978,11.486-19.838,16.988-29.262c23.925-41.008,43.622-73.948,43.622-73.948
	C1635.354,2220.053,1631.453,2222.194,1627.523,2224.191z"/>
<path opacity="0.3" fill="none" stroke="#333132" stroke-width="0.5" stroke-miterlimit="10" stroke-dasharray="3" d="
	M992.699,285.844c-0.792,5.802-1.604,11.596-2.446,17.376c-1.68,11.562-3.461,23.091-5.387,34.587
	c-1.445,8.621-2.972,17.223-4.589,25.794c-3.638,19.683-8.001,39.145-12.631,58.528c-2.315,9.689-4.695,19.361-7.088,29.026
	c-5.621,16.819-9.849,34.136-13.444,51.68c-0.899,4.385-1.759,8.789-2.591,13.197c-4.466,32.267-11.666,63.551-20.282,94.314
	c-1.229,4.394-2.489,8.78-3.771,13.153c-10.768,28.843-19.988,57.935-28.772,87.06c-1.099,3.641-2.186,7.283-3.277,10.923
	c-12.049,33.974-25.605,67.713-39.875,101.216c-1.59,3.723-3.183,7.444-4.783,11.158c-9.426,16.765-18.479,33.551-27.17,50.424
	c-1.732,3.376-3.461,6.749-5.171,10.132c-1.79,2.888-3.549,5.797-5.286,8.72c-40.562,72.026-78.161,147.617-112.1,222.82
	c-1.557,3.679-3.076,7.375-4.557,11.087c-1.481,3.713-2.916,7.458-4.31,11.217c-5.566,15.046-10.407,30.48-14.217,46.436
	c-0.937,3.944-1.838,7.9-2.708,11.858c-8.675,39.621-14.078,80.011-17.909,120.186c-0.324,2.387-0.665,4.786-1.017,7.205
	c-0.72,4.824-1.502,9.688-2.319,14.586c-9.383,45.329-17.727,97.586-12.444,145.751c0.479,4.377,1.073,8.724,1.768,13.022
	c5.416,58.976,42.224,97.879,84.654,131.979c3.862,3.104,7.766,6.166,11.691,9.21c30.066,20.626,57.544,43.715,82.631,69.117
	c3.135,3.174,6.222,6.4,9.169,9.742c10.366,8.767,18.774,21.08,21.465,33.577c1.057,2.297,2.139,4.566,3.254,6.81
	c1.113,2.247,2.251,4.468,3.414,6.665c29.845,54.001,63.474,103.256,96.086,153.763c2.881,4.432,5.712,8.88,8.496,13.363
	c13.913,22.406,26.564,45.62,35.985,70.776c1.907,5.001,3.688,10.07,5.333,15.218c0.086,0.267,0.18,0.527,0.263,0.788
	c27.135-10.034,54.273-20.063,83.511-29.271c3.11-1.057,6.199-2.111,9.246-3.145c30.187-10.263,56.063-19.057,56.537-19.215
	c0.006-0.001,0.043-0.02,0.043-0.02c0.615-2.867,0.614-5.148,0.668-7.498c0.06-2.337,0.171-4.75,1.027-7.87
	c4.368-81.041,0.522-164.446,15.788-245.105c1.031-6.465,2.024-12.944,2.902-19.424c5.266-38.874,6.45-77.677-11.818-113.685
	c-2.525-6.163-5.169-12.32-7.879-18.462c-27.131-61.464-61.227-121.458-59.003-189.732c0.181-4.503,0.479-9.012,0.891-13.511
	c0.409-4.499,0.931-8.996,1.559-13.478c0.835-5.983,1.859-11.944,3.061-17.878c5.333-43.035,37.445-76.114,35.966-121.833
	c1.028-38.938-20.805-77.136-30.557-114.749c-0.491-5.556,0.324-10.978,2.376-15.9c2.051-4.924,5.343-9.35,9.8-12.931
	c4.642-4.518,9.33-8.989,14.037-13.444c62.686-55.406,116.548-123.514,139.724-206.54c1.984-6.226,3.844-12.489,5.578-18.794
	c8.648-31.526,14.038-64.032,15.484-97.376c0.028-2.953,0.009-5.913-0.04-8.87c-0.289-17.743-1.777-35.465-3.215-53.357
	c-0.479-5.963-0.953-11.945-1.369-17.955c-0.976-39.263-0.75-78.575-0.234-117.778c0.081-6.538,0.181-13.065,0.277-19.592
	c-5.616-70.401,11.223-141.611-1.683-209.591c-1.173-6.179-2.592-12.331-4.293-18.461c-12.858-34.54-37.861-50.334-67.933-56.694
	c-6.016-1.274-12.235-2.169-18.607-2.775c-62.409,6.588-155.844-16.701-193.822,47.499
	C994.834,275.551,993.444,280.552,992.699,285.844z"/>
<polygon fill="#F58571" points="893.841,2077.442 885.08,2081.599 887.425,2087.943 897.556,2084.999 "/>
<path opacity="0.6" fill="#9EC9EC" d="M1215.277,2052.56c-3.586,0.74-7.187,1.446-10.778,2.153
	C1208.093,2054.007,1211.691,2053.297,1215.277,2052.56z"/>
<path opacity="0.6" fill="#9EC9EC" d="M1171.3,2062.098c0.315-0.087,0.637-0.166,0.952-0.25c0,0-0.002-0.002-0.004,0
	C1171.933,2061.934,1171.613,2062.01,1171.3,2062.098z"/>
<path fill="none" stroke="#35A2B0" stroke-width="3" stroke-linejoin="round" stroke-miterlimit="10" d="M1058.134,667.647
	c-3.185,1.936-6.338,3.907-9.458,5.895c-3.115,1.996-6.197,4.015-9.25,6.048c-51.061,37.771-108.358,70.52-148.981,120.88
	c-3.529,3.882-6.991,7.847-10.376,11.911c-3.39,4.063-6.709,8.215-9.938,12.479c-3.324,3.662-6.607,7.363-9.836,11.125
	c-16.17,18.768-31.071,38.837-43.248,61.278c-2.899,4.621-5.733,9.29-8.502,14.007c-5.53,9.435-10.782,19.07-15.729,28.903
	c-3.618,6.615-7.237,13.227-10.835,19.851c-2.207,4.055-4.409,8.114-6.602,12.177c-27.794,48.164-51.312,99.271-75.744,151.081
	c-2.318,4.805-4.598,9.602-6.797,14.419c-13.191,28.888-23.295,58.491-21.13,90.626c0.028,2.57,0.115,5.13,0.264,7.693
	c1.493,25.619,9.107,50.894,24.453,73.341c2.824,4.315,5.892,8.514,9.204,12.563c2.942,3.465,6.105,6.865,9.501,10.195
	c3.392,3.326,7.018,6.584,10.887,9.765c1.906,2.98,3.779,5.988,5.652,9.016c5.617,9.086,11.247,18.354,17.754,27.606
	c3.121,5.109,6.295,10.159,9.511,15.132c9.643,14.924,19.648,29.198,29.629,42.611c6.588,5.896,13.578,11.475,20.938,16.706
	c5.743,5.134,11.501,10.141,17.208,15.043c5.348,5.378,10.562,10.881,15.536,16.56c14.928,17.035,27.726,35.693,35.092,57.585
	c2.741,8.354,4.636,17.041,5.506,26.09c0.869,9.05,0.721,18.467-0.627,28.286c0.902,8.414,1.812,16.715,2.762,24.958
	c4.8,41.129,10.56,80.867,30.875,118.737c4.282,8.423,8.993,16.621,14.182,24.577c10.374,15.902,22.64,30.821,37.187,44.459
	c6.121,6.954,12.167,13.889,17.987,20.852c5.819,6.966,11.42,13.961,16.651,21.03c4.89,5.749,9.622,11.589,14.156,17.559
	c18.133,23.894,33.138,49.935,41.841,79.837c3.603,7.576,7.334,15.037,11.19,22.406c6.277,14.276,13.482,27.947,21.262,41.224
	c1.3,2.217,2.614,4.418,3.938,6.605c21.354,41.009,49.01,78.173,71.741,118.699c1.268,2.256,2.514,4.518,3.746,6.791
	c26.386,42.437,29.119,91.55,27.113,141.633c-0.091,2.575-0.185,5.146-0.289,7.719c-1.133,28.271-3.064,56.289-2.083,83.912
	c-0.237,4.873-0.488,9.748-0.76,14.614c-2.145,38.923-4.967,77.539-7.851,115.173c-0.273,2.324-0.565,4.644-0.892,6.953
	c-0.324,2.31-0.67,4.616-1.053,6.917c-0.236,2.66-0.479,5.321-0.737,7.979c-2.873,52.809-11.384,108.009-37.881,154.096
	c-2.392,4.36-4.914,8.651-7.544,12.876c-7.898,12.669-16.816,24.72-26.669,36.062c-3.286,3.731-6.663,7.397-10.11,11.02
	c-13.791,14.504-28.667,28.454-43.743,42.498c-2.271,2.237-4.461,4.498-6.573,6.787c-2.106,2.284-4.133,4.604-6.062,6.94
	c-21.378,33.174-26.238,70.744-25.252,109.513c0.195,7.751,0.625,15.555,1.201,23.38c1.255,8.576,2.477,17.127,3.682,25.659
	c1.199,8.533,2.377,17.042,3.533,25.538c2.791,17.841,5.646,35.669,8.465,53.502c13.762,78.937,24.391,159.831,25.715,240.8
	c-0.546,13.398-1.704,26.724-3.479,39.933c-2.668,19.816-6.74,39.364-12.251,58.539c-1.834,6.394-3.833,12.742-5.992,19.047
	c-6.464,16.256-13.558,32.2-20.803,48.044c-7.241,15.848-14.634,31.577-21.671,47.325c-21.048,47.554-38.853,98.473-41.898,149.948"
	/>
<path fill="none" stroke="#35A2B0" stroke-width="3" stroke-linecap="round" stroke-linejoin="round" stroke-miterlimit="10" d="
	M996.348,2038.742c-0.06-1.143,0.22-1.791,0.287-2.918c0.329-5.643,2.062-11.131,3.457-16.573c0.277-1.09,0.544-2.171,0.782-3.261
	c4.083-18.194,11.235-34.511,21.099-49.482c0.895-1.359,1.817-2.711,2.755-4.051c18.844-31.626,51.003-51.925,78.989-74.305
	c1.133-1.065,2.255-2.14,3.361-3.233c4.437-4.365,8.663-8.96,12.595-13.89c2.147-2.348,4.28-4.712,6.408-7.087
	c8.503-9.5,16.889-19.147,25.591-28.382c1.143-1.148,2.301-2.283,3.478-3.405c3.437-3.292,7.001-6.544,10.68-9.72
	c1.229-1.061,2.469-2.11,3.727-3.149c6.492-5.087,13.156-9.937,20.006-14.412c1.37-0.896,2.749-1.776,4.135-2.64
	c6.461-4.349,13.212-7.985,20.179-11.091c1.394-0.621,2.796-1.219,4.207-1.8c14.947-6.006,30.317-10.711,46-14.565
	c3.14-0.77,6.289-1.503,9.448-2.216c9.801-2.736,19.642-4.957,29.523-6.854c3.294-0.631,6.592-1.227,9.887-1.795
	c3.342-0.577,6.679-1.124,10.012-1.646c3.335-0.521,6.663-1.019,9.984-1.513c23.573-2.564,46.91-5.887,70.305-9.7
	c1.559-0.254,3.12-0.511,4.68-0.771c6.623-1.22,13.262-2.545,19.878-4.032c3.306-0.745,6.607-1.528,9.898-2.357
	c32.422-8.673,63.719-21.359,88.504-42.939c2.477-2.157,4.893-4.407,7.236-6.749c13.479-14.359,28.052-26.957,44.482-36.411
	c2.309-1.318,4.669-2.581,7.081-3.775c1.287-0.797,2.577-1.587,3.87-2.374c14.217-8.649,28.779-16.836,42.541-26.029
	c2.611-1.772,5.205-3.584,7.781-5.435c5.15-3.699,10.226-7.562,15.193-11.66c1.269-1.061,2.536-2.121,3.803-3.185
	c1.264-1.065,2.531-2.129,3.791-3.199c15.184-12.793,30.383-25.632,46.914-36.112c1.326-0.99,2.662-1.97,4.014-2.938
	c4.045-2.902,8.188-5.702,12.457-8.364c1.301-0.928,2.605-1.849,3.914-2.766c10.457-7.339,21.086-14.394,31.801-21.242
	c2.707-1.725,5.42-3.442,8.137-5.146c2.739-1.942,5.471-3.903,8.182-5.897c5.428-3.986,10.787-8.096,16.051-12.396
	c1.277-1.027,2.549-2.06,3.82-3.095c1.271-1.038,2.537-2.076,3.803-3.118c1.291-0.927,2.588-1.841,3.889-2.748
	c9.377-6.496,19.229-12.209,29.602-16.689c1.296-0.56,2.598-1.104,3.91-1.623c42.112-10.818,88.547-8.754,128.16-31.354
	c1.475-0.732,2.943-1.49,4.401-2.277c2.917-1.574,5.806-3.256,8.663-5.059"/>
<path fill="#333132" d="M678.26,1545.238c6.149-2.201,12.746-10.426,21.717-12.357c4.324-2.484,7.566-4.341,7.566-4.341
	l-25.175-46.438c0,0-0.899,0.568-2.401,1.521c-19.014,6.393-33.467,19.445-19.745,37.424c1.81,3.146,3.896,6.172,6.191,9.088
	c2.293,2.921,4.791,5.73,7.42,8.452C676.487,1542.58,678.26,1545.238,678.26,1545.238z"/>
<polygon fill="#333132" points="753.013,1556.264 740.245,1522.121 712.749,1531.995 718.96,1547.604 722.138,1547.157 
	728.224,1561.641 "/>
<path fill="#333132" d="M664.349,1439.799c7.623,1.802,14.408-0.707,15.289-8.745c-0.186-5.713-4.831-7.853-7.152-8.921
	c-8.039-0.883-15.894,3.947-9.201,11.292C663.82,1436.611,664.349,1439.799,664.349,1439.799z"/>
<polygon fill="#333132" points="785.559,1324.267 801.439,1320.315 794.467,1304.914 783.816,1311.737 "/>
<polygon fill="#333132" points="846.273,1328.753 863.444,1325.833 854.833,1310.157 843.579,1316.247 "/>
<polygon fill="#333132" points="714.988,1421.518 711.257,1412.292 700.276,1414.748 703.714,1426.652 "/>
<path fill="#333132" d="M755.205,1428.944c-1.274-0.299-3.003-6.723-3.003-6.723l-9.001,1.208l2.509,10.346L755.205,1428.944z"/>
<polygon fill="#333132" points="801.029,1563.862 811.945,1559.499 804.369,1543.345 793.213,1549.239 "/>
<polygon fill="#F58571" points="991.233,2175.137 1022.242,2167.445 1009.831,2110.31 976.733,2119.711 "/>
<polygon fill="#F58571" points="892.805,2114.495 905.355,2112.665 902.526,2098.222 891.205,2100 "/>
<polygon fill="#F8995E" points="870.584,2422.012 872.301,2409.163 853.288,2405.656 851.115,2417.955 "/>
<polygon fill="#E87A53" points="741.488,1396.37 754.616,1402.413 770.941,1403.012 778.934,1406.688 790.868,1396.272 
	800.326,1375.725 795.228,1363.771 771.165,1366.458 747.036,1370.258 742.98,1379.077 "/>
<path fill="none" d="M1148.057,1976.682c0.006-0.001,0.043-0.02,0.043-0.02c1.232-5.74-0.013-9.126,1.693-15.367
	c0.435-7.882,0.783-15.822,0.783-15.822c1.484-22.582,2.098-44.969,2.412-67.267c0.063-4.464,0.116-8.914,0.159-13.37
	c-0.18-14.007,0.044-28.022,0.499-42.038c0.15-4.672,0.325-9.342,0.567-14.024c1.823-21.522,4.43-43.644,6.461-65.962
	c0.407-4.465,0.785-8.938,1.146-13.418c1.681-11.991,3.586-24.148,5.187-36.293c0.534-4.047,1.036-8.094,1.479-12.132
	c3.642-23.28,8.433-52.039-3.736-74.53c-24.896-62.128-51.928-119.608-64.671-180.652c-0.885-4.675-1.732-9.361-2.542-14.054
	c-0.608-3.519-1.193-7.044-1.76-10.572c-0.924-9.862-7.01-21.108-5.058-31.471c0.856-4.534,1.797-9.069,2.808-13.606
	c1.011-4.542,2.095-9.083,3.219-13.624c5.412-23.712,14.453-46.079,22.104-68.457c1.535-4.477,3.012-8.955,4.425-13.469
	c5.305-13.788,7.807-27.453,8.449-41.063c0.219-4.532,0.227-9.063,0.065-13.588c0.194-4.393,0.059-8.813-0.332-13.26
	c-3.974-23.561-15.216-47.342-22.213-70.771c-1.167-3.904-2.216-7.802-3.09-11.681c-9.493-16.435-6.655-34.832,6.726-45.563
	c51.027-49.709,107.953-93.886,133.218-165.134c4.032-8.663,7.855-17.41,11.426-26.251c12.762-31.565,22.302-64.256,26.722-97.83
	c0.884-6.71,1.565-13.462,2.022-20.248c4.998-47.589-4.52-94.194-4.708-143.263c-0.058-3.684-0.09-7.366-0.096-11.048
	c0.917-55.297,3.563-111.438,2.752-168.015c-0.069-4.719-0.158-9.436-0.27-14.169c-2.714-56.326,14.539-124.393-23.556-170.075
	c-6.401-6.889-13.525-11.967-21.163-15.663c-0.2-0.098-0.403-0.189-0.606-0.283c-1.113-0.513-2.244-0.974-3.377-1.438
	c-0.777-0.321-1.545-0.667-2.329-0.968c-1.195-0.448-2.412-0.838-3.629-1.234c-0.741-0.239-1.469-0.507-2.22-0.727
	c-1.356-0.398-2.743-0.738-4.125-1.074c-0.626-0.154-1.237-0.335-1.864-0.478c-2.022-0.449-4.063-0.842-6.123-1.173
	c-45.748,4.891-111.406-5.988-160.098,4.378c-4.426,0.941-8.717,2.057-12.838,3.377c-25.614,7.159-45.595,26.115-49.318,52.553
	c-2.378,17.404-4.945,34.719-7.833,51.964c-1.445,8.621-2.972,17.223-4.589,25.794c-3.638,19.683-8.001,39.145-12.631,58.528
	c-2.315,9.689-4.695,19.361-7.088,29.026c-5.621,16.819-9.849,34.136-13.444,51.68c-0.899,4.385-1.759,8.789-2.591,13.197
	c-3.829,27.654-9.665,54.593-16.678,81.101c-1.171,4.417-2.373,8.82-3.606,13.212c-22.198,56.03-37.496,113.735-54.858,173.618
	c-1.605,4.838-3.252,9.674-4.953,14.497c-1.695,4.827-3.447,9.646-5.254,14.46c-1.977,4.72-4.011,9.418-6.088,14.104
	c-10.402,23.413-21.843,46.477-33.13,69.738c-2.512,4.689-5.042,9.374-7.58,14.056c-10.132,18.743-20.244,37.498-29.515,56.547
	c-2.317,4.755-4.583,9.536-6.784,14.334c-20.083,50.979-47.18,97.625-73.572,144.879c-1.938,4.654-3.761,9.359-5.494,14.101
	c-10.421,28.435-17.65,58.255-27.286,86.205c-0.687,2.492-1.363,4.994-2.028,7.503c-8.018,30.059-14.723,60.969-19.952,92.776
	c-1.162,5.304-2.352,10.592-3.581,15.854c-1.229,5.263-2.497,10.501-3.814,15.71c-0.907,5.018-1.737,10.038-2.496,15.071
	c-5.303,35.221-6.993,71.033-4.25,107.246c0.201,2.499,0.437,5,0.713,7.504c0.277,2.505,0.598,5.019,0.956,7.529
	c0.562,4.981,1.241,9.936,2.048,14.875c1.613,9.885,3.755,19.746,6.482,29.569c1.636,4.876,3.507,9.703,5.638,14.459
	c2.136,4.757,4.538,9.446,7.234,14.061c2.592,4.465,5.372,8.82,8.319,13.062c14.745,21.223,33.756,39.781,54.585,55.619
	c4.194,3.456,8.424,6.865,12.645,10.238c4.223,3.375,8.438,6.706,12.614,10.022c3.978,2.951,7.927,5.869,11.838,8.768
	c4.045,3.087,8.063,6.183,12.033,9.32c11.908,9.396,23.416,19.118,33.945,29.778c3.575,3.426,7.08,6.906,10.503,10.46
	c17.123,17.789,32.148,37.451,42.814,60.814c2.466,4.378,4.942,8.731,7.428,13.069c19.89,34.702,40.441,68.268,61.77,101.614
	c2.804,4.369,5.603,8.726,8.401,13.088c13.999,21.801,27.964,43.688,41.521,65.534c2.568,4.565,5.032,9.167,7.356,13.835
	c6.975,13.994,12.692,28.559,16.317,44.048c11.243-6.085,24.812-11.101,39.338-15.64c4.554-1.738,9.103-3.455,13.65-5.15
	C1083.567,1995.674,1115.158,1985.042,1148.057,1976.682z"/>
<path fill="#333132" d="M719.833,1389.546l-6.231-15.41c0,0-1.144,0.259-2.863,0.647c-1.722,0.378-4.019,0.89-6.313,1.404
	c-4.649,0.245-6.817,1.776-7.56,4.042c-0.742,2.263-0.061,5.258,0.978,8.424c1.044,3.17,2.445,6.511,3.149,9.471
	c0,0,1.177-0.534,2.941-1.336C709.235,1394.373,719.833,1389.546,719.833,1389.546z"/>
<path fill="#5EBE7A" d="M1261.219,2039.358c-0.227,0.12-0.454,0.241-0.683,0.362
	C1260.766,2039.6,1260.993,2039.479,1261.219,2039.358z"/>
<path opacity="0.6" fill="#9EC9EC" d="M857.675,2061.633c-0.8-0.117-1.604-0.237-2.407-0.353
	C856.071,2061.396,856.875,2061.516,857.675,2061.633z"/>
<path opacity="0.6" fill="#9EC9EC" d="M843.563,2059.639c-0.823-0.111-1.647-0.219-2.473-0.33
	C841.916,2059.42,842.74,2059.527,843.563,2059.639z"/>
<path opacity="0.6" fill="#9EC9EC" d="M1260.537,2039.721c-1.423,0.757-2.859,1.486-4.322,2.17
	C1257.677,2041.207,1259.113,2040.476,1260.537,2039.721z"/>
<path opacity="0.6" fill="#9EC9EC" d="M1265.487,2036.933c-1.406,0.842-2.828,1.647-4.268,2.426
	C1262.658,2038.58,1264.082,2037.774,1265.487,2036.933z"/>
<path fill="none" d="M863.541,2062.518c-1.919-0.3-3.838-0.586-5.758-0.868c1.917,0.283,3.833,0.591,5.748,0.882L863.541,2062.518z"
	/>
<path fill="none" d="M855.767,2061.352c-4.062-0.593-8.128-1.162-12.193-1.711c3.899,0.527,7.798,1.074,11.694,1.64
	C855.435,2061.303,855.603,2061.328,855.767,2061.352z"/>
<path fill="none" d="M552.279,2194.688c1.201,0.511,2.413,1.023,3.635,1.525C554.692,2195.711,553.481,2195.201,552.279,2194.688z"
	/>
<path fill="none" d="M564.495,2199.629c3.396,1.321,6.803,2.642,10.198,4.004C571.299,2202.27,567.887,2200.949,564.495,2199.629z"
	/>
<path fill="none" d="M558.693,2197.336c1.29,0.512,2.574,1.033,3.88,1.539C561.268,2198.369,559.983,2197.848,558.693,2197.336z"/>
<path fill="none" d="M535.363,2186.154c1.397,0.87,2.825,1.709,4.297,2.517C538.188,2187.864,536.763,2187.022,535.363,2186.154z"/>
<path fill="none" d="M533.978,2185.3c0.047,0.03,0.095,0.06,0.141,0.087c0.119,0.076,0.24,0.146,0.359,0.223
	c-1.56-0.996-3.074-2.029-4.527-3.121c0.682,0.513,1.409,0.982,2.117,1.477C532.705,2184.412,533.322,2184.876,533.978,2185.3z"/>
<path fill="none" d="M549.655,2193.541c-3.336-1.479-6.589-3.021-9.685-4.697c2.376,1.293,4.832,2.52,7.357,3.684
	C548.086,2192.873,548.88,2193.2,549.655,2193.541z"/>
<polygon opacity="0.6" fill="#5EBE7A" points="529.955,2182.485 529.955,2182.485 529.95,2182.488 "/>
<polygon opacity="0.6" fill="#5EBE7A" points="529.955,2182.485 529.955,2182.485 529.95,2182.488 "/>
<path opacity="0.6" fill="#5EBE7A" d="M539.66,2188.671c0.104,0.057,0.204,0.119,0.31,0.173
	C539.864,2188.786,539.764,2188.728,539.66,2188.671z"/>
<path opacity="0.6" fill="#5EBE7A" d="M539.66,2188.671c0.104,0.057,0.204,0.119,0.31,0.173
	C539.864,2188.786,539.764,2188.728,539.66,2188.671z"/>
<path opacity="0.6" fill="#5EBE7A" d="M549.655,2193.541c0.865,0.384,1.738,0.771,2.625,1.146
	C551.393,2194.312,550.523,2193.926,549.655,2193.541z"/>
<path opacity="0.6" fill="#5EBE7A" d="M549.655,2193.541c0.865,0.384,1.738,0.771,2.625,1.146
	C551.393,2194.312,550.523,2193.926,549.655,2193.541z"/>
<path opacity="0.6" fill="#5EBE7A" d="M562.573,2198.875c0.64,0.252,1.282,0.504,1.921,0.754
	C563.856,2199.378,563.213,2199.127,562.573,2198.875z"/>
<path opacity="0.6" fill="#5EBE7A" d="M562.573,2198.875c0.64,0.252,1.282,0.504,1.921,0.754
	C563.856,2199.378,563.213,2199.127,562.573,2198.875z"/>
<path opacity="0.6" fill="#5EBE7A" d="M534.478,2185.609c0.292,0.185,0.592,0.361,0.885,0.545
	C535.07,2185.971,534.77,2185.794,534.478,2185.609z"/>
<path opacity="0.6" fill="#5EBE7A" d="M534.478,2185.609c0.292,0.185,0.592,0.361,0.885,0.545
	C535.07,2185.971,534.77,2185.794,534.478,2185.609z"/>
<path opacity="0.6" fill="#5EBE7A" d="M555.915,2196.213c0.921,0.373,1.848,0.75,2.779,1.123
	C557.763,2196.963,556.836,2196.586,555.915,2196.213z"/>
<path opacity="0.6" fill="#5EBE7A" d="M555.915,2196.213c0.921,0.373,1.848,0.75,2.779,1.123
	C557.763,2196.963,556.836,2196.586,555.915,2196.213z"/>
<path opacity="0.6" fill="#5EBE7A" d="M1260.537,2039.721c-1.424,0.755-2.859,1.486-4.322,2.17c3.169-1.48,6.247-3.143,9.248-4.945
	c-1.396,0.838-2.811,1.641-4.243,2.413C1260.993,2039.479,1260.766,2039.6,1260.537,2039.721z"/>
<path opacity="0.6" fill="#5EBE7A" d="M1260.537,2039.721c-1.424,0.755-2.859,1.486-4.322,2.17c3.169-1.48,6.247-3.143,9.248-4.945
	c-1.396,0.838-2.811,1.641-4.243,2.413C1260.993,2039.479,1260.766,2039.6,1260.537,2039.721z"/>
<path opacity="0.6" fill="#5EBE7A" d="M1215.277,2052.56c-1.793,0.371-3.593,0.72-5.39,1.077l0,0
	C1211.687,2053.277,1213.484,2052.931,1215.277,2052.56z"/>
<path opacity="0.6" fill="#5EBE7A" d="M1215.277,2052.56c-1.793,0.371-3.593,0.72-5.39,1.077l0,0
	C1211.687,2053.277,1213.484,2052.931,1215.277,2052.56z"/>
<path opacity="0.6" fill="#5EBE7A" d="M857.675,2061.633c-0.637-0.094-1.273-0.188-1.908-0.281c0.672,0.098,1.341,0.197,2.016,0.298
	C857.747,2061.645,857.708,2061.638,857.675,2061.633z"/>
<path opacity="0.6" fill="#5EBE7A" d="M857.675,2061.633c-0.637-0.094-1.273-0.188-1.908-0.281c0.672,0.098,1.341,0.197,2.016,0.298
	C857.747,2061.645,857.708,2061.638,857.675,2061.633z"/>
<path opacity="0.6" fill="#5EBE7A" d="M843.563,2059.639c-0.823-0.111-1.647-0.219-2.473-0.33c-0.01-0.002-0.023-0.001-0.034-0.004
	c0.838,0.111,1.679,0.223,2.519,0.336C843.572,2059.642,843.568,2059.641,843.563,2059.639z"/>
<path opacity="0.6" fill="#5EBE7A" d="M843.563,2059.639c-0.823-0.111-1.647-0.219-2.473-0.33c-0.01-0.002-0.023-0.001-0.034-0.004
	c0.838,0.111,1.679,0.223,2.519,0.336C843.572,2059.642,843.568,2059.641,843.563,2059.639z"/>
<path fill="#5EBE7A" d="M1191.579,2057.309c-3.774,0.908-7.55,1.816-11.326,2.706c3.78-0.89,7.559-1.802,11.336-2.71
	C1191.586,2057.308,1191.583,2057.308,1191.579,2057.309z"/>
<path fill="#5EBE7A" d="M869.915,2063.512c-2.126-0.343-4.249-0.67-6.374-0.994l-0.01,0.014
	C865.659,2062.857,867.789,2063.169,869.915,2063.512z"/>
<path fill="#5EBE7A" d="M1191.8,2057.256c-0.072,0.017-0.144,0.033-0.211,0.049c6.06-1.258,12.184-2.447,18.298-3.668l0,0
	c-1.794,0.359-3.591,0.722-5.389,1.076C1200.25,2055.549,1196.01,2056.386,1191.8,2057.256z"/>
<g opacity="0.3">
	<g>
		<path fill="none" stroke="#333132" stroke-width="0.5" stroke-miterlimit="10" d="M1248.235,2282.834
			c-0.5-0.023-0.999-0.048-1.498-0.072c0.925,0.006,1.855,0.021,2.784,0.028c-0.499-0.002-0.998-0.005-1.497-0.008"/>
		<path fill="none" stroke="#333132" stroke-width="0.5" stroke-miterlimit="10" stroke-dasharray="3.0152,3.0152" d="
			M1245.009,2282.762c-37.085-0.296-74.235-2.248-111.391-4.956c-23.201-0.802-46.142-2.247-68.374-5.64
			c-0.471-0.043-0.943-0.085-1.41-0.127c-1.839-0.162-3.681-0.328-5.526-0.492c-0.037-0.003-0.077-0.006-0.117-0.009
			c-0.403-0.034-0.805-0.074-1.208-0.108c-5.265-0.471-10.532-0.945-15.803-1.422c-8.424-0.765-16.852-1.521-25.276-2.277
			c-7.589-0.602-15.269-0.859-22.893-0.904c-3.41-0.551-6.826-1.053-10.24-1.574c-3.07-0.467-6.144-0.959-9.219-1.414
			c-1.083-0.161-2.156-0.321-3.234-0.478c-0.264-0.037-0.531-0.077-0.8-0.115c-6.25-0.907-12.502-1.784-18.758-2.631
			c-1.346-0.181-2.696-0.359-4.04-0.538c-5.711-0.763-11.42-1.51-17.133-2.238c-0.61-0.074-1.223-0.152-1.836-0.236
			c-0.303-0.036-0.609-0.079-0.915-0.117c-5.906-0.746-11.816-1.48-17.726-2.216c-3.147-0.386-6.295-0.776-9.445-1.163
			c-8.574-1.057-17.14-2.111-25.707-3.184c-3.871-0.483-7.739-0.988-11.608-1.492"/>
		<path fill="none" stroke="#333132" stroke-width="0.5" stroke-miterlimit="10" d="M860.852,2249.233
			c-0.496-0.064-0.992-0.129-1.487-0.193C859.86,2249.104,860.356,2249.169,860.852,2249.233"/>
		<path fill="none" stroke="#333132" stroke-width="0.5" stroke-miterlimit="10" stroke-dasharray="2.3292,2.3292" d="
			M863.161,2249.534c2.694,0.351,5.388,0.702,8.083,1.046"/>
		<path fill="none" stroke="#333132" stroke-width="0.5" stroke-miterlimit="10" d="M872.401,2250.727
			c0.496,0.062,0.992,0.125,1.489,0.188c-0.497-0.062-0.994-0.123-1.49-0.184"/>
		<path fill="none" stroke="#333132" stroke-width="0.5" stroke-miterlimit="10" stroke-dasharray="3.1998,3.1998" d="
			M869.224,2250.334c-3.227-0.414-6.448-0.844-9.674-1.257c-2.593-0.333-5.187-0.668-7.78-1.006"/>
		<path fill="none" stroke="#333132" stroke-width="0.5" stroke-miterlimit="10" d="M850.187,2247.863
			c-0.496-0.064-0.991-0.13-1.487-0.195C849.195,2247.733,849.691,2247.798,850.187,2247.863"/>
		<path fill="none" stroke="#333132" stroke-width="0.5" stroke-miterlimit="10" stroke-dasharray="2.5843,2.5843" d="
			M852.75,2248.192c1.282,0.165,2.563,0.328,3.845,0.492"/>
		<path fill="none" stroke="#333132" stroke-width="0.5" stroke-miterlimit="10" d="M857.877,2248.849
			c0.496,0.063,0.992,0.128,1.488,0.191C858.869,2248.977,858.373,2248.912,857.877,2248.849"/>
		<path fill="none" stroke="#333132" stroke-width="0.5" stroke-miterlimit="10" stroke-dasharray="2.6597,2.6597" d="
			M855.239,2248.512c-1.319-0.169-2.638-0.338-3.957-0.509"/>
		<path fill="none" stroke="#333132" stroke-width="0.5" stroke-miterlimit="10" d="M849.963,2247.832
			c-0.432-0.057-0.864-0.113-1.296-0.17c-0.063-0.008-0.127-0.016-0.191-0.023c0.048,0.004,0.098,0.012,0.148,0.019
			c-0.079-0.013-0.156-0.021-0.233-0.03c-0.418-0.055-0.835-0.109-1.253-0.163"/>
		<path fill="none" stroke="#333132" stroke-width="0.5" stroke-miterlimit="10" stroke-dasharray="2.9773,2.9773" d="
			M844.184,2247.084c-1.335-0.171-2.669-0.344-4.002-0.523c-0.052-0.005-0.105-0.014-0.157-0.023
			c-2.095-0.281-4.186-0.592-6.281-0.881c-4.053-0.561-8.106-1.119-12.154-1.704c-1.859-0.271-3.719-0.546-5.578-0.821
			c-4.108-0.611-8.216-1.236-12.32-1.881c-0.8-0.126-1.597-0.248-2.396-0.377c-6.778-1.074-13.555-2.184-20.322-3.377
			c-5.261-0.926-10.513-1.904-15.763-2.914c-2.541-0.488-5.084-0.971-7.62-1.48c-1.741-0.206-3.503-0.391-5.269-0.572
			c-5.075-0.551-10.184-1.057-15.338-1.525c-0.012,0.002-0.021-0.004-0.033-0.006c-3.802-0.336-7.596-0.686-11.443-1
			c-5.44-0.449-10.928-0.884-16.467-1.325c-17-2.573-34.324-4.495-51.62-6.658c-8.649-1.087-17.293-2.229-25.883-3.55
			c-12.193-3.338-25.044-6.179-37.822-9.457c-6.389-1.646-12.762-3.396-19.022-5.375c-3.396-1.362-6.802-2.683-10.198-4.004
			c-0.639-0.25-1.281-0.502-1.921-0.754c-1.306-0.506-2.59-1.027-3.88-1.539c-0.931-0.373-1.857-0.75-2.779-1.123
			c-1.222-0.502-2.434-1.015-3.635-1.525c-0.886-0.375-1.76-0.763-2.625-1.146c-0.774-0.341-1.569-0.668-2.328-1.014
			c-2.525-1.164-4.981-2.391-7.357-3.684c-0.106-0.054-0.206-0.116-0.31-0.173c-1.472-0.808-2.9-1.646-4.297-2.517
			c-0.293-0.184-0.593-0.36-0.885-0.545c-0.119-0.076-0.24-0.146-0.359-0.223c-0.046-0.027-0.094-0.057-0.141-0.087
			c-0.542-0.351-1.057-0.728-1.58-1.101"/>
		<path fill="none" stroke="#333132" stroke-width="0.5" stroke-miterlimit="10" d="M531.172,2183.352
			c-0.414-0.282-0.826-0.565-1.222-0.863c0.001,0,0.001,0,0.004-0.003c-0.008-0.006-0.012-0.007-0.013-0.007
			c-0.036,0.499-0.072,0.997-0.109,1.496"/>
		<path fill="none" stroke="#333132" stroke-width="0.5" stroke-miterlimit="10" stroke-dasharray="3.0027,3.0027" d="
			M529.605,2186.969c-0.902,11.558-2.077,23.144-3.278,34.776c-0.213,5.659-0.538,11.313-0.896,16.978
			c-0.576,9.043-1.259,18.087-1.912,27.107c-1.028,14.291-1.928,28.527-1.971,42.637c0.557,14.702,1.568,29.272,5.898,42.877
			c1.331,4.385,2.809,8.678,4.422,12.92c8.706,22.98,21.277,44.471,37.808,63.559c3.583,3.453,7.19,6.872,10.852,10.238
			c12.208,11.211,24.843,21.979,37.646,32.502c50.159,37.904,97.465,82.531,145.249,123.957c6.953,5.797,13.967,11.51,21.031,17.156
			c12.198,10.149,24.697,19.978,37.339,29.683c2.529,1.941,5.063,3.877,7.604,5.812c25.39,17.207,51.172,35.146,75.483,54.7
			c3.474,2.793,6.917,5.617,10.351,8.477c35.325,21.472,62.477,51.499,80.385,85.934c3.907,7.51,7.379,15.218,10.385,23.105
			c13.438,35.176,17.882,73.682,12.251,111.747c0.35,3.627,0.764,7.234,1.203,10.836c0.071,0.566,0.118,1.144,0.19,1.713
			c3.082,38.742,17.537,72.844,37.278,103.994c17.782,28.06,39.854,53.713,61.782,78.212c9.25,10.336,18.475,20.469,27.337,30.476
			c6.175,6.713,12.397,13.397,18.62,20.086c0.295,0.313,0.591,0.633,0.881,0.945c4.376,4.701,8.752,9.401,13.121,14.115
			c25.438,25.268,49.784,53.104,73.241,81.282c20.561,14.103,44.235,20.564,72.431,11.641c8.333-2.169,15.969-5.626,23.107-9.941
			c22.987-13.888,40.68-36.899,58.731-56.392c5.08-5.623,10.026-11.148,14.839-16.386c5.497-6.205,10.733-12.671,15.671-19.389
			c9.887-13.44,18.603-27.885,25.859-43.255c3.326-7.649,5.895-15.498,7.584-23.543c6.766-32.177-0.471-67.462-29.344-105.695
			c-3.542-7.726-7.15-15.388-10.686-22.939c-7.079-15.112-13.862-29.794-19.214-43.684c-3.769-16.487-5.1-33.625-2.716-51.741
			c0.789-8.59,2.106-17.148,3.94-25.601c3.673-16.903,9.426-33.393,17.212-48.994c2.48-6.959,4.877-13.966,7.193-21.012
			c11.591-35.24,21.11-71.606,28.15-109.584c1.691-8.442,3.215-16.971,4.548-25.604c1.843-10.01,3.671-20.07,5.493-30.1
			c16.4-90.256,32.086-178.2,48.715-210.531c12.873-25.029,34.268-62.888,55.179-99.115c5.765-9.978,11.486-19.838,16.988-29.262
			c19.983-34.253,37.019-62.877,42.088-71.378"/>
		<path fill="none" stroke="#333132" stroke-width="0.5" stroke-miterlimit="10" d="M1638.444,2219.002
			c0.503-0.844,0.767-1.284,0.767-1.284c-0.429,0.26-0.857,0.517-1.287,0.771"/>
		<path fill="none" stroke="#333132" stroke-width="0.5" stroke-miterlimit="10" stroke-dasharray="2.9994,2.9994" d="
			M1635.33,2219.995c-2.586,1.473-5.189,2.866-7.807,4.196c-0.002,0.001-0.002,0.001-0.002,0.001
			c-0.016,0.004-0.027,0.014-0.039,0.021c-4.814,2.89-9.752,5.557-14.835,7.932c-12.95,6.06-26.831,10.303-42.034,11.851
			c-7.799,1.914-15.699,3.633-23.631,5.263c-2.875,0.596-5.759,1.152-8.645,1.727c-9.809,1.958-19.631,3.866-29.352,5.885
			c-6.059,1.457-12.12,2.919-18.184,4.346c-4.253,1.009-8.543,1.977-12.834,2.939c-0.504,0.137-1.021,0.263-1.525,0.402
			c-0.578,0.12-1.156,0.224-1.73,0.341c-17.465,3.863-35.182,7.305-53.072,10.199c-1.96,0.32-3.938,0.569-5.903,0.869
			c-12.288,2.182-24.55,4.308-36.759,6.395c-2.069,0.146-4.141,0.272-6.215,0.382c-8.439,0.544-16.828,0.93-25.175,1.191
			c-4.171,0.131-8.336,0.232-12.49,0.3c-4.274-0.016-8.515-0.015-12.718-0.008c-2.101,0-4.192,0.005-6.281,0.009
			c-0.505-0.02-1.015-0.033-1.521-0.056c-21.734,0.288-43.339-0.27-64.845-1.274"/>
	</g>
</g>
<g opacity="0.3">
	<g>
		<g>
			<path fill="none" stroke="#333132" stroke-width="0.5" stroke-miterlimit="10" d="M764.286,2595.243
				c-0.385-0.32-0.769-0.641-1.153-0.961c0.096,0.079,0.194,0.16,0.292,0.237c-0.378-0.327-0.755-0.655-1.133-0.982"/>
			<path fill="none" stroke="#333132" stroke-width="0.5" stroke-miterlimit="10" stroke-dasharray="3.0013,3.0013" d="
				M760.026,2591.567c-46.63-40.586-92.881-83.999-141.851-121.005c-12.803-10.522-25.438-21.291-37.646-32.502
				c-3.503-3.217-6.955-6.497-10.383-9.797c-16.743-19.202-29.5-40.829-38.277-64c-1.613-4.242-3.091-8.535-4.422-12.92
				c-4.33-13.604-5.343-28.182-5.899-42.893c0.089-28.582,3.683-57.704,4.78-86.701c1.35-13.139,2.691-26.219,3.623-39.262
				c1.71-23.943,2.047-47.776-1.494-71.684c-0.037-4.91-0.126-9.816-0.27-14.713c-0.176-5.961-0.455-11.911-0.813-17.844
				c-1.005-16.568-2.811-32.99-5.705-49.181c-1.085-6.063-2.327-12.099-3.739-18.093c-26.872-78.364-51.436-165.672-124.515-208.76
				c-5.576-3.051-11.311-5.656-17.182-7.738c-29.372-10.434-62.275-7.913-96.25,15.66c-3.919,2.424-7.626,5.119-11.199,7.964
				c-10.725,8.531-20.3,18.404-31.312,26.112c-3.519,3.298-7.021,6.61-10.506,9.937c-6.973,6.647-13.883,13.353-20.737,20.108
				c-4.566,4.501-9.108,9.025-13.629,13.561c-34.991,36.675-74.414,71.156-105.291,110.933c-3.857,4.978-7.58,10.034-11.152,15.182
				c-32.014,39.561-50.701,98.519-18.517,143.376c1.891,3.111,3.96,6.212,6.216,9.312c11.867,14.004,21.529,29.709,34.707,42.135
				c3.991,4.599,7.985,9.213,11.927,13.889c11.829,14.035,23.208,28.643,32.896,44.973c3.705,5.783,7.326,11.687,10.865,17.688
				c63.698,108.091,101.424,250.72,136.501,344.059c29.656,78.923,158.425,235.646,242.142,332.638
				c1.859,2.153,3.695,4.282,5.508,6.372c61.221,55.75,86.669,135.023,94.5,217.624c0.636,4.431,1.295,8.857,1.979,13.272
				c0.879,5.681,1.801,11.345,2.776,16.995c0.975,5.652,2.004,11.289,3.091,16.898c16.355,82.024,51.983,157.534,88.51,231.911
				c2.93,5.98,5.877,11.943,8.859,17.896c20.864,41.675,43.06,82.772,67.383,124.404c3.692,4.88,7.676,9.451,12.08,13.622
				c4.4,4.17,9.216,7.939,14.551,11.196c44.326,26.026,96.458,10.608,147.337,16.331c3.228,0.004,6.458-0.002,9.689-0.012
				c82.686,1.098,209.343,25.601,241.505-77.619c0.897-2.135,1.805-4.262,2.72-6.387c0.914-2.12,1.833-4.236,2.759-6.35
				c14.516-40.201,59.495-64.545,68.563-102.597c1.093-4.422,1.899-8.841,2.439-13.262c1.159-8.328,1.36-16.483,0.83-24.507
				c-1.213-40.105-24.116-75.98-32.24-116.121c0,0-1.359-1.616-3.879-4.631c-29.522-36.269-60.464-73.029-93.189-105.529
				c-4.665-5.031-9.332-10.047-14.002-15.061c-6.223-6.688-12.445-13.373-18.62-20.086
				c-53.208-60.099-119.365-124.324-126.397-212.682c-0.526-4.163-0.991-8.349-1.393-12.549
				c12.68-85.741-25.64-173.75-103.021-220.786c-3.433-2.859-6.877-5.684-10.351-8.477c-24.312-19.554-50.094-37.493-75.483-54.7
				c-2.542-1.935-5.076-3.87-7.604-5.812c-12.642-9.705-25.141-19.533-37.339-29.683c-6.378-5.099-12.721-10.252-19.014-15.473"/>
		</g>
		<g>
			<path fill="none" stroke="#333132" stroke-width="0.5" stroke-miterlimit="10" d="M585.177,2443.889
				c0.366,0.341,0.732,0.681,1.101,1.02C585.909,2444.569,585.542,2444.23,585.177,2443.889"/>
			<path fill="none" stroke="#333132" stroke-width="0.5" stroke-miterlimit="10" stroke-dasharray="2.8438,2.8438" d="
				M583.108,2441.938c-2.41-2.307-4.751-4.658-7.024-7.054"/>
			<path fill="none" stroke="#333132" stroke-width="0.5" stroke-miterlimit="10" d="M575.11,2433.849
				c-0.342-0.365-0.682-0.731-1.021-1.099C574.428,2433.117,574.768,2433.483,575.11,2433.849"/>
			<path fill="none" stroke="#333132" stroke-width="0.5" stroke-miterlimit="10" stroke-dasharray="2.8438,2.8438" d="
				M577.068,2435.912c2.29,2.379,4.649,4.713,7.073,7.004"/>
		</g>
	</g>
</g>
<path opacity="0.3" fill="none" stroke="#333132" stroke-width="0.5" stroke-miterlimit="10" stroke-dasharray="3" d="
	M992.699,285.844c-0.792,5.802-1.604,11.596-2.446,17.376c-1.68,11.562-3.461,23.091-5.387,34.587
	c-1.445,8.621-2.972,17.223-4.589,25.794c-3.638,19.683-8.001,39.145-12.631,58.528c-2.315,9.689-4.695,19.361-7.088,29.026
	c-5.621,16.819-9.849,34.136-13.444,51.68c-0.899,4.385-1.759,8.789-2.591,13.197c-4.466,32.267-11.666,63.551-20.282,94.314
	c-1.229,4.394-2.489,8.78-3.771,13.153c-10.768,28.843-19.988,57.935-28.772,87.06c-1.099,3.641-2.186,7.283-3.277,10.923
	c-12.049,33.974-25.605,67.713-39.875,101.216c-1.59,3.723-3.183,7.444-4.783,11.158c-9.426,16.765-18.479,33.551-27.17,50.424
	c-1.732,3.376-3.461,6.749-5.171,10.132c-1.79,2.888-3.549,5.797-5.286,8.72c-40.562,72.026-78.161,147.617-112.1,222.82
	c-1.557,3.679-3.076,7.375-4.557,11.087c-1.481,3.713-2.916,7.458-4.31,11.217c-5.566,15.046-10.407,30.48-14.217,46.436
	c-0.937,3.944-1.838,7.9-2.708,11.858c-8.675,39.621-14.078,80.011-17.909,120.186c-0.324,2.387-0.665,4.786-1.017,7.205
	c-0.72,4.824-1.502,9.688-2.319,14.586c-9.383,45.329-17.727,97.586-12.444,145.751c0.479,4.377,1.073,8.724,1.768,13.022
	c5.416,58.976,42.224,97.879,84.654,131.979c3.862,3.104,7.766,6.166,11.691,9.21c30.066,20.626,57.544,43.715,82.631,69.117
	c3.135,3.174,6.222,6.4,9.169,9.742c10.366,8.767,18.774,21.08,21.465,33.577c1.057,2.297,2.139,4.566,3.254,6.81
	c1.113,2.247,2.251,4.468,3.414,6.665c29.845,54.001,63.474,103.256,96.086,153.763c2.881,4.432,5.712,8.88,8.496,13.363
	c13.913,22.406,26.564,45.62,35.985,70.776c1.907,5.001,3.688,10.07,5.333,15.218c0.086,0.267,0.18,0.527,0.263,0.788
	c27.135-10.034,54.273-20.063,83.511-29.271c3.11-1.057,6.199-2.111,9.246-3.145c30.187-10.263,56.063-19.057,56.537-19.215
	c0.006-0.001,0.043-0.02,0.043-0.02c0.615-2.867,0.614-5.148,0.668-7.498c0.06-2.337,0.171-4.75,1.027-7.87
	c4.368-81.041,0.522-164.446,15.788-245.105c1.031-6.465,2.024-12.944,2.902-19.424c5.266-38.874,6.45-77.677-11.818-113.685
	c-2.525-6.163-5.169-12.32-7.879-18.462c-27.131-61.464-61.227-121.458-59.003-189.732c0.181-4.503,0.479-9.012,0.891-13.511
	c0.409-4.499,0.931-8.996,1.559-13.478c0.835-5.983,1.859-11.944,3.061-17.878c5.333-43.035,37.445-76.114,35.966-121.833
	c1.028-38.938-20.805-77.136-30.557-114.749c-0.491-5.556,0.324-10.978,2.376-15.9c2.051-4.924,5.343-9.35,9.8-12.931
	c4.642-4.518,9.33-8.989,14.037-13.444c62.686-55.406,116.548-123.514,139.724-206.54c1.984-6.226,3.844-12.489,5.578-18.794
	c8.648-31.526,14.038-64.032,15.484-97.376c0.028-2.953,0.009-5.913-0.04-8.87c-0.289-17.743-1.777-35.465-3.215-53.357
	c-0.479-5.963-0.953-11.945-1.369-17.955c-0.976-39.263-0.75-78.575-0.234-117.778c0.081-6.538,0.181-13.065,0.277-19.592
	c-5.616-70.401,11.223-141.611-1.683-209.591c-1.173-6.179-2.592-12.331-4.293-18.461c-12.858-34.54-37.861-50.334-67.933-56.694
	c-6.016-1.274-12.235-2.169-18.607-2.775c-62.409,6.588-155.844-16.701-193.822,47.499
	C994.834,275.551,993.444,280.552,992.699,285.844z"/>
<rect x="874.53" y="2200.05" transform="matrix(0.7671 -0.6415 0.6415 0.7671 -1243.8777 1184.4491)" fill="none" width="270" height="211"/>
<g opacity="0.3">
	<g>
		<g>
			<path fill="none" stroke="#333132" stroke-width="0.5" stroke-miterlimit="10" d="M2416.277,1438.308
				c0.413-0.282,0.826-0.563,1.239-0.845v-1.5"/>
			
				<line fill="none" stroke="#333132" stroke-width="0.5" stroke-miterlimit="10" stroke-dasharray="2.873,2.873" x1="2417.517" y1="1433.09" x2="2417.517" y2="1405.797"/>
			<path fill="none" stroke="#333132" stroke-width="0.5" stroke-miterlimit="10" d="M2417.517,1404.36v-1.5
				c-0.396,0.307-0.79,0.614-1.186,0.92"/>
			<path fill="none" stroke="#333132" stroke-width="0.5" stroke-miterlimit="10" stroke-dasharray="2.9969,2.9969" d="
				M2413.959,1405.613c-0.158,0.122-0.316,0.244-0.475,0.365c-3.854,2.271-7.693,4.583-11.508,6.932
				c-31.277,18.455-61.432,38.376-90.418,60.152c-2.072,1.557-4.134,3.122-6.192,4.704c-14.277,10.991-28.155,22.538-42.009,34.09
				c-1.98,1.652-3.957,3.305-5.934,4.954c-9.967,8.117-20.133,15.883-30.451,23.392c-2.062,1.5-4.129,2.991-6.205,4.474
				c-21.262,15.517-44.049,29.074-66.762,42.929c-4.544,2.771-9.078,5.553-13.608,8.365c-24.753,11.726-44.735,30.678-65.972,46.241
				c-1.809,1.631-3.595,3.292-5.366,4.978c-1.774,1.687-3.53,3.401-5.286,5.126c-5.011,6.032-10.248,11.824-15.701,17.359
				c-1.816,1.846-3.658,3.664-5.521,5.458c-1.911,1.742-3.85,3.453-5.812,5.13s-3.948,3.321-5.956,4.932
				c-14.334,10.528-29.573,19.706-45.474,27.716c-2.274,1.147-4.558,2.268-6.854,3.367c-18.743,8.697-37.854,15.894-57.232,21.913
				c-4.844,1.506-9.701,2.942-14.577,4.303c-39.446,11.206-78.825,17.171-118.506,22.439c-2.478,0.332-4.962,0.657-7.44,0.982
				c-63.695,4.578-122.617,22.504-184.188,34.939c-2.549,0.722-5.1,1.458-7.639,2.21c-2.543,0.746-5.075,1.516-7.609,2.291
				c-2.541,0.833-5.07,1.699-7.594,2.6c-8.4,2.999-16.688,6.379-24.816,10.248c-2.033,0.967-4.059,1.965-6.071,2.995
				c-24.407,13.193-47.243,28.869-70.501,43.622c-2.115,1.343-4.23,2.679-6.357,4.004c-2.176,1.705-4.376,3.365-6.589,4.982
				c-2.214,1.619-4.444,3.19-6.687,4.722c-11.643,6.773-23.525,12.875-35.6,18.46c-2.419,1.112-4.84,2.208-7.272,3.288
				c-13.718,7.118-27.79,13.073-42.081,18.276c-4.76,1.738-9.55,3.391-14.356,4.977c-56.587,13.895-112.999,38.608-171.357,45.479
				c-3.833,0.755-7.64,1.549-11.433,2.368c-7.573,1.645-15.063,3.419-22.492,5.307c-0.474,0.158-26.351,8.952-56.537,19.215
				c-3.046,1.033-6.135,2.088-9.246,3.145c-25.816,8.13-49.996,16.901-73.982,25.751"/>
			<path fill="none" stroke="#333132" stroke-width="0.5" stroke-miterlimit="10" d="M1006.889,2025.31
				c-0.469,0.173-0.938,0.347-1.407,0.52c0.143,0.479,0.284,0.959,0.425,1.438"/>
			<path fill="none" stroke="#333132" stroke-width="0.5" stroke-miterlimit="10" stroke-dasharray="2.9744,2.9744" d="
				M1006.728,2030.126c2.101,7.45,3.92,15.012,5.417,22.7c0.992,3.974,1.925,7.959,2.8,11.965c0.874,4.002,1.688,8.018,2.44,12.053
				c0.879,7.678,1.667,15.354,2.412,23.009c0.86,7.163,1.832,14.301,2.961,21.438c2.259,14.279,5.172,28.575,9.09,42.965
				c1.626,7.592,3.196,15.207,4.719,22.836c5.365,26.826,10.22,53.864,15.42,81.005"/>
			<path fill="none" stroke="#333132" stroke-width="0.5" stroke-miterlimit="10" d="M1052.267,2269.559
				c0.094,0.49,0.188,0.981,0.283,1.473c0.498,0.045,0.996,0.09,1.494,0.135"/>
			<path fill="none" stroke="#333132" stroke-width="0.5" stroke-miterlimit="10" stroke-dasharray="2.9809,2.9809" d="
				M1057.013,2271.433c0.435,0.039,0.869,0.079,1.295,0.114c1.845,0.164,3.687,0.33,5.526,0.492c0.467,0.042,0.939,0.084,1.41,0.127
				c22.232,3.393,45.173,4.838,68.374,5.64c25.509,1.859,51.014,3.346,76.498,4.2"/>
			<path fill="none" stroke="#333132" stroke-width="0.5" stroke-miterlimit="10" d="M1211.604,2282.055
				c0.499,0.016,0.998,0.032,1.497,0.048c0.053-0.497,0.105-0.994,0.158-1.491"/>
			<path fill="none" stroke="#333132" stroke-width="0.5" stroke-miterlimit="10" stroke-dasharray="3.002,3.002" d="
				M1213.573,2277.627c6.539-62.136,13.033-128.602,56.047-178.773c1.426-1.936,2.88-3.85,4.362-5.747
				c2.967-3.788,6.059-7.496,9.281-11.117c3.226-3.616,6.578-7.146,10.061-10.573c40.863-37.947,87.983-66.93,125.06-109.992
				c3.296-3.569,6.575-7.177,9.839-10.797c3.261-3.629,6.509-7.268,9.752-10.923c3.595-3.99,7.208-7.963,10.847-11.9
				c5.461-5.906,10.996-11.715,16.666-17.371c1.418-1.414,2.844-2.815,4.276-4.213c1.845-1.837,3.712-3.643,5.608-5.408
				c50.971-46.342,121.137-70.354,188.471-84.134c2.531-0.519,5.061-1.024,7.587-1.52c2.532-0.496,5.06-0.98,7.582-1.456
				c2.554-0.648,5.116-1.28,7.677-1.903c30.758-7.436,61.969-12.891,93.771-15.372c4.771-0.64,9.558-1.273,14.343-1.911
				c14.359-1.907,28.766-3.801,43.183-5.736c2.651-0.29,5.302-0.59,7.946-0.911c13.234-1.58,26.432-3.516,39.603-6.125
				c2.652-0.564,5.304-1.155,7.949-1.758c17.913-3.679,36.007-7.631,53.812-12.608c2.545-0.71,5.08-1.443,7.609-2.205
				c39.66-13.312,74.237-37.255,106.385-64.047c4.015-3.353,7.994-6.742,11.947-10.173c3.478-3.611,6.963-7.146,10.468-10.608
				c1.755-1.731,3.515-3.441,5.278-5.141c10.935-11.348,22.921-21.101,35.467-29.942c4.184-2.946,8.429-5.79,12.718-8.568
				c13.175-7.591,26.344-15.441,39.431-23.501c4.365-2.687,8.721-5.393,13.068-8.126c17.287-10.784,34.143-22.085,50.697-33.762
				c4.136-2.924,8.254-5.865,12.357-8.831c20.465-14.659,40.521-30.229,60.382-46.002c3.975-3.156,7.938-6.319,11.896-9.49
				c28.558-25.354,59.191-46.764,90.04-67.829"/>
		</g>
		<g>
			<path fill="none" stroke="#333132" stroke-width="0.5" stroke-miterlimit="10" d="M1011.921,2023.885
				c-0.495,0.081-0.987,0.167-1.476,0.258C1010.934,2024.052,1011.426,2023.966,1011.921,2023.885"/>
			<path fill="none" stroke="#333132" stroke-width="0.5" stroke-miterlimit="10" stroke-dasharray="3.0084,3.0084" d="
				M1014.897,2023.458c3.677-0.454,7.483-0.662,11.379-0.661c5.492,0.002,11.174,0.434,16.919,1.209
				c40.229,5.434,83.864,28.122,93.786,40.387c14.279,17.651,26.643,39.959,41.404,59.91c1.474,1.994,2.973,3.967,4.505,5.904
				c10.306,17.835,27.559,26.445,43.803,35.342"/>
			<path fill="none" stroke="#333132" stroke-width="0.5" stroke-miterlimit="10" d="M1228.015,2166.274
				c0.438,0.241,0.875,0.483,1.312,0.726C1228.891,2166.758,1228.453,2166.516,1228.015,2166.274"/>
			<path fill="none" stroke="#333132" stroke-width="0.5" stroke-miterlimit="10" stroke-dasharray="3.0084,3.0084" d="
				M1225.378,2164.83c-15.854-8.648-32.459-17.269-42.488-34.623c-1.532-1.938-3.031-3.91-4.505-5.904
				c-14.762-19.951-27.125-42.259-41.404-59.91c-9.922-12.265-53.557-34.953-93.786-40.387c-5.745-0.775-11.427-1.207-16.919-1.209
				c-4.423-0.002-8.732,0.268-12.866,0.859"/>
		</g>
	</g>
</g>
<g opacity="0.3">
	<g>
		<path fill="none" stroke="#333132" stroke-width="0.5" stroke-miterlimit="10" d="M1005.907,2027.268
			c-0.141-0.479-0.282-0.959-0.425-1.438c-0.469,0.173-0.938,0.347-1.407,0.52"/>
		<path fill="none" stroke="#333132" stroke-width="0.5" stroke-miterlimit="10" d="M1000.17,2027.791
			c-0.469,0.174-0.938,0.347-1.407,0.521c-0.083-0.261-0.177-0.521-0.263-0.788c-0.475,0.158-0.951,0.316-1.426,0.474"/>
		<path fill="none" stroke="#333132" stroke-width="0.5" stroke-miterlimit="10" stroke-dasharray="2.9976,2.9976" d="
			M994.222,2028.932c-2.635,0.855-5.273,1.688-7.916,2.498c-7.969,1.759-16.191,4.209-24.565,6.281
			c-8.376,2.083-16.905,3.787-25.475,4.064c-4.682,0.062-9.349,0.041-14.008-0.016c-0.002,0.002-0.002,0.002-0.002,0.002
			c-54.525-0.648-107.568-8.441-161.214-4.449c-8.048-0.344-16.076-0.863-24.108-1.502c-11.148-0.893-22.311-2.017-33.482-3.244
			c-5.584-0.611-11.169-1.25-16.757-1.89c-52.245-9.815-107.129-7.026-162.035-1.954"/>
		<path fill="none" stroke="#333132" stroke-width="0.5" stroke-miterlimit="10" d="M523.174,2028.86
			c-0.498,0.047-0.996,0.093-1.494,0.14c-0.004,0.02-0.005,0.047-0.012,0.067c0.084,0.47,0.167,0.939,0.249,1.41"/>
		<path fill="none" stroke="#333132" stroke-width="0.5" stroke-miterlimit="10" stroke-dasharray="2.9612,2.9612" d="
			M522.416,2033.396c2.461,14.786,4.042,29.758,4.958,44.852c0.359,5.933,0.637,11.883,0.813,17.844
			c0.143,4.896,0.233,9.803,0.27,14.713c3.394,22.916,3.226,45.759,1.704,68.702"/>
		<path fill="none" stroke="#333132" stroke-width="0.5" stroke-miterlimit="10" d="M530.06,2180.985c-0.034,0.5-0.069,1-0.105,1.5
			c-0.003,0.003-0.003,0.003-0.004,0.003c0.399,0.3,0.802,0.595,1.21,0.886"/>
		<path fill="none" stroke="#333132" stroke-width="0.5" stroke-miterlimit="10" stroke-dasharray="2.9938,2.9938" d="
			M533.633,2185.063c0.28,0.183,0.562,0.365,0.845,0.546c0.292,0.185,0.592,0.361,0.885,0.545c1.4,0.868,2.825,1.71,4.297,2.517
			c0.104,0.057,0.204,0.115,0.31,0.173c3.095,1.677,6.349,3.219,9.685,4.697c0.869,0.385,1.738,0.771,2.625,1.146
			c1.202,0.514,2.413,1.023,3.635,1.525c0.921,0.373,1.848,0.75,2.779,1.123c1.29,0.512,2.574,1.033,3.88,1.539
			c0.64,0.252,1.283,0.503,1.921,0.754c3.393,1.32,6.805,2.641,10.198,4.004c6.26,1.979,12.634,3.729,19.022,5.375
			c12.778,3.278,25.629,6.119,37.822,9.457c8.59,1.32,17.233,2.463,25.883,3.55c17.296,2.163,34.62,4.085,51.62,6.658
			c5.539,0.441,11.027,0.876,16.467,1.325c3.847,0.314,7.641,0.664,11.443,1c0.012,0.002,0.021,0.008,0.033,0.006
			c6.939,0.625,13.828,1.297,20.606,2.098c2.536,0.51,5.079,0.992,7.62,1.48c0.006,0,0.013,0.002,0.019,0.006
			c5.247,1.003,10.494,1.986,15.744,2.908c7.015,1.236,14.04,2.391,21.067,3.502c0.003,0,0.003,0,0.003,0
			c5.669,0.9,11.338,1.767,17.012,2.597c6.985,1.024,13.975,1.995,20.969,2.942c0.052,0.01,0.105,0.019,0.157,0.023
			c0.495,0.064,0.986,0.132,1.48,0.201c19.424,2.611,38.89,4.99,58.354,7.385c8.941,1.101,17.883,2.203,26.821,3.338
			c0.016,0.003,0.028,0.001,0.04,0.003c0.295,0.039,0.585,0.079,0.875,0.114c6.327,0.807,12.646,1.632,18.969,2.475
			c0.018,0.006,0.039,0.004,0.054,0.008c1.325,0.179,2.646,0.352,3.968,0.529c0.008,0.002,0.014,0.004,0.018,0.001
			c6.52,0.883,13.042,1.795,19.558,2.746c1.02,0.148,2.04,0.3,3.061,0.451c0.054,0.008,0.115,0.019,0.173,0.026
			c3.079,0.451,6.156,0.912,9.235,1.393c3.408,0.52,6.813,1.045,10.224,1.596c7.624,0.045,15.304,0.303,22.893,0.904
			c8.424,0.756,16.852,1.513,25.276,2.277c2.796,0.251,5.591,0.502,8.385,0.754"/>
		<path fill="none" stroke="#333132" stroke-width="0.5" stroke-miterlimit="10" d="M1051.057,2270.896
			c0.498,0.045,0.996,0.09,1.494,0.135c-0.095-0.491-0.189-0.982-0.283-1.473"/>
		<path fill="none" stroke="#333132" stroke-width="0.5" stroke-miterlimit="10" stroke-dasharray="2.9744,2.9744" d="
			M1051.708,2266.637c-5.095-26.65-9.872-53.199-15.141-79.545c-1.522-7.629-3.093-15.244-4.719-22.836
			c-3.917-14.39-6.831-28.686-9.09-42.965c-1.129-7.138-2.101-14.275-2.961-21.438c-0.745-7.655-1.533-15.331-2.412-23.009
			c-0.752-4.035-1.566-8.051-2.44-12.053c-0.875-4.006-1.808-7.991-2.8-11.965c-1.594-8.181-3.552-16.219-5.825-24.13"/>
	</g>
</g>
<g opacity="0.3">
	<g>
		<path fill="none" stroke="#333132" stroke-width="0.5" stroke-miterlimit="10" d="M1213.258,2280.611
			c-0.052,0.497-0.105,0.994-0.158,1.491c0.5,0.016,1,0.031,1.5,0.047"/>
		<path fill="none" stroke="#333132" stroke-width="0.5" stroke-miterlimit="10" stroke-dasharray="3.0388,3.0388" d="
			M1217.64,2282.239c9.625,0.274,19.247,0.455,28.864,0.521"/>
		<path fill="none" stroke="#333132" stroke-width="0.5" stroke-miterlimit="10" d="M1248.021,2282.775c0.5,0.006,1,0.013,1.5,0.015
			c-0.927-0.008-1.856-0.022-2.78-0.028c0.5,0.024,0.999,0.049,1.498,0.072"/>
		<path fill="none" stroke="#333132" stroke-width="0.5" stroke-miterlimit="10" stroke-dasharray="3.0067,3.0067" d="
			M1251.243,2282.975c21.008,0.96,42.11,1.485,63.335,1.204c0.506,0.022,1.016,0.036,1.521,0.056
			c2.089-0.004,4.181-0.009,6.281-0.009c4.203-0.007,8.443-0.008,12.718,0.008c4.154-0.067,8.319-0.169,12.49-0.3
			c8.347-0.262,16.735-0.647,25.175-1.191c2.074-0.109,4.146-0.236,6.215-0.382c12.209-2.087,24.471-4.213,36.759-6.395
			c1.966-0.3,3.943-0.549,5.903-0.869c17.89-2.895,35.607-6.336,53.072-10.199c0.574-0.117,1.152-0.221,1.73-0.341
			c0.504-0.14,1.021-0.266,1.525-0.402c4.291-0.963,8.581-1.931,12.834-2.939c6.057-1.425,12.113-2.883,18.168-4.341
			c0.006,0,0.012-0.001,0.016-0.005c0.109-0.025,0.225-0.053,0.34-0.08c6.752-1.395,13.553-2.736,20.367-4.077
			c2.884-0.569,5.766-1.149,8.645-1.728c2.883-0.572,5.77-1.131,8.645-1.727c7.932-1.63,15.832-3.349,23.631-5.263
			c15.203-1.548,29.084-5.791,42.034-11.851c2.347-1.096,4.648-2.27,6.933-3.481c0.368-0.192,0.732-0.388,1.096-0.581
			c2.298-1.239,4.565-2.527,6.807-3.869c1.323-0.793,2.645-1.6,3.949-2.43c7.54-3.67,14.75-7.93,21.729-12.577
			c6.971-4.653,13.717-9.702,20.325-14.971c12.188-12.438,25.661-25.051,40.188-36.578c6.648-6.118,13.727-11.638,21.158-16.54
			c7.428-4.904,15.207-9.196,23.242-12.859c10.422-4.379,21.016-8.038,31.749-11.002c10.735-2.957,21.606-5.21,32.586-6.779
			c9.374-2.084,18.61-3.846,27.677-4.459c33.582,5.451,67.307,10.15,101.128,13.838c8.456,0.921,16.911,1.769,25.376,2.516
			c33.996,2.623,67.768,4.497,101.459,5.393c8.42,0.225,16.838,0.385,25.243,0.472c9.313-0.481,18.602-0.865,27.874-1.178
			c9.27-0.311,18.526-0.554,27.867-0.743c42.896,3.151,87.18,10.922,131.26,14.398c8.813,0.696,17.621,1.221,26.407,1.498
			c9.356,1.206,18.691,1.504,27.897,0.919c24.834-1.521,48.983-9.809,70.369-22.867"/>
		<path fill="none" stroke="#333132" stroke-width="0.5" stroke-miterlimit="10" d="M2416.247,2119.474
			c0.424-0.265,0.848-0.531,1.27-0.799v-1.5"/>
		
			<line fill="none" stroke="#333132" stroke-width="0.5" stroke-miterlimit="10" stroke-dasharray="2.9877,2.9877" x1="2417.517" y1="2114.188" x2="2417.517" y2="1440.457"/>
		<path fill="none" stroke="#333132" stroke-width="0.5" stroke-miterlimit="10" d="M2417.517,1438.963v-1.5
			c-0.413,0.282-0.826,0.563-1.239,0.845"/>
		<path fill="none" stroke="#333132" stroke-width="0.5" stroke-miterlimit="10" stroke-dasharray="3.002,3.002" d="
			M2413.799,1440.001c-30.43,20.792-60.626,41.969-88.801,66.982c-3.958,3.171-7.921,6.334-11.896,9.49
			c-19.86,15.773-39.917,31.343-60.382,46.002c-4.104,2.965-8.222,5.906-12.357,8.831c-16.555,11.677-33.41,22.979-50.697,33.762
			c-4.348,2.733-8.703,5.439-13.068,8.126c-13.087,8.061-26.256,15.911-39.431,23.501c-4.289,2.778-8.534,5.622-12.718,8.568
			c-12.546,8.841-24.532,18.594-35.467,29.942c-1.764,1.7-3.523,3.409-5.278,5.141c-3.505,3.461-6.99,6.997-10.468,10.608
			c-3.953,3.432-7.933,6.82-11.947,10.173c-32.147,26.792-66.725,50.734-106.385,64.047c-2.529,0.762-5.064,1.494-7.609,2.205
			c-17.805,4.977-35.898,8.93-53.812,12.608c-2.646,0.604-5.297,1.194-7.949,1.758c-13.171,2.609-26.368,4.545-39.603,6.125
			c-2.645,0.32-5.295,0.621-7.946,0.911c-14.417,1.935-28.823,3.829-43.183,5.736c-4.785,0.638-9.572,1.271-14.343,1.911
			c-31.802,2.481-63.013,7.937-93.771,15.372c-2.561,0.623-5.123,1.254-7.677,1.903c-2.522,0.476-5.05,0.959-7.582,1.456
			c-2.526,0.496-5.056,1.001-7.587,1.52c-67.334,13.779-137.5,37.792-188.471,84.134c-1.896,1.765-3.764,3.571-5.608,5.408
			c-1.433,1.398-2.858,2.799-4.276,4.213c-5.67,5.655-11.205,11.465-16.666,17.371c-3.639,3.937-7.252,7.91-10.847,11.9
			c-3.243,3.655-6.491,7.294-9.752,10.923c-3.264,3.62-6.543,7.228-9.839,10.797c-37.077,43.062-84.197,72.045-125.06,109.992
			c-3.483,3.427-6.835,6.957-10.061,10.573c-3.222,3.621-6.314,7.329-9.281,11.117c-1.482,1.897-2.937,3.812-4.362,5.747
			c-43.358,50.574-49.61,117.703-56.204,180.266"/>
	</g>
</g>
<g opacity="0.3">
	<polygon fill="none" stroke="#333132" stroke-width="0.5" stroke-miterlimit="10" points="1246.737,2282.762 1246.741,2282.762 
		1246.74,2282.762 	"/>
</g>
<g opacity="0.3">
	<path fill="none" stroke="#333132" stroke-width="0.5" stroke-miterlimit="10" d="M1246.74,2282.762
		C1246.741,2282.762,1246.741,2282.762,1246.74,2282.762c0.924,0.006,1.854,0.021,2.781,0.028
		C1248.594,2282.786,1247.667,2282.768,1246.74,2282.762z"/>
</g>
</svg>
