<?xml version="1.0" encoding="utf-8"?>
<!-- Generator: Adobe Illustrator 16.0.0, SVG Export Plug-In . SVG Version: 6.00 Build 0)  -->
<!DOCTYPE svg PUBLIC "-//W3C//DTD SVG 1.1//EN" "http://www.w3.org/Graphics/SVG/1.1/DTD/svg11.dtd">
<svg version="1.1" id="Layer_1" xmlns="http://www.w3.org/2000/svg" xmlns:xlink="http://www.w3.org/1999/xlink" x="0px" y="0px"
	 width="434.686px" height="453.638px" viewBox="0 0 434.686 453.638" enable-background="new 0 0 434.686 453.638"
	 xml:space="preserve">
<rect x="293.726" y="137.524" fill="none" width="118.033" height="84.54"/>
<text transform="matrix(1 0 0 1 298.0176 159.1724)" opacity="0.9"><tspan x="0" y="0" fill="#1D1D1B" font-family="'PraterScriptTwo-Regular'" font-size="22">Reforestati</tspan><tspan x="96.555" y="0" fill="#1D1D1B" font-family="'PraterScriptTwo-Regular'" font-size="22">-</tspan><tspan x="43.967" y="26.4" fill="#1D1D1B" font-family="'PraterScriptTwo-Regular'" font-size="22">on</tspan></text>
<rect x="161.765" y="46.156" fill="none" width="118.033" height="84.54"/>
<text transform="matrix(1 0 0 1 193.7319 67.8042)" opacity="0.9"><tspan x="0" y="0" fill="#1D1D1B" font-family="'PraterScriptTwo-Regular'" font-size="22">Water</tspan><tspan x="-28.159" y="26.4" fill="#1D1D1B" font-family="'PraterScriptTwo-Regular'" font-size="22">management</tspan></text>
<rect x="24.239" y="123.122" fill="none" width="118.032" height="84.54"/>
<text transform="matrix(1 0 0 1 37.8921 144.77)" opacity="0.9"><tspan x="0" y="0" fill="#1D1D1B" font-family="'PraterScriptTwo-Regular'" font-size="22">Landscape</tspan><tspan x="17.722" y="26.4" fill="#1D1D1B" font-family="'PraterScriptTwo-Regular'" font-size="22">design</tspan></text>
<rect x="290.726" y="272.96" fill="none" width="118.033" height="84.539"/>
<text transform="matrix(1 0 0 1 330.1846 294.6084)" opacity="0.9"><tspan x="0" y="0" fill="#1D1D1B" font-family="'PraterScriptTwo-Regular'" font-size="22">Seed </tspan><tspan x="-10.967" y="26.4" fill="#1D1D1B" font-family="'PraterScriptTwo-Regular'" font-size="22">culture</tspan></text>
<rect x="26.012" y="271.312" fill="none" width="118.033" height="84.539"/>
<text transform="matrix(1 0 0 1 32.5151 292.959)" opacity="0.9"><tspan x="0" y="0" fill="#1D1D1B" font-family="'PraterScriptTwo-Regular'" font-size="22">Biodiversity</tspan><tspan x="-4.587" y="26.399" fill="#1D1D1B" font-family="'PraterScriptTwo-Regular'" font-size="22">improvement</tspan></text>
<rect x="159.312" y="346.096" fill="none" width="118.032" height="84.539"/>
<text transform="matrix(1 0 0 1 165.4512 367.7432)" opacity="0.9"><tspan x="0" y="0" fill="#1D1D1B" font-family="'PraterScriptTwo-Regular'" font-size="22">Cooperation</tspan><tspan x="-4.773" y="26.4" fill="#1D1D1B" font-family="'PraterScriptTwo-Regular'" font-size="22">with animals</tspan></text>
<path fill-rule="evenodd" clip-rule="evenodd" fill="none" stroke="#000000" stroke-miterlimit="10" d="M307.443,377.617
	c-2.565-4.566-4.948-9.187-7.351-13.765c-0.4-0.764-0.803-1.525-1.205-2.285c-10.046-13.48-20.046-26.48-25.367-41.1
	c-0.457-0.839-0.916-1.679-1.372-2.519c-1.828-3.362-3.628-6.743-5.434-10.137c-0.63-1.095-1.128-1.954-1.465-2.541
	c-0.34-0.587-0.521-0.901-0.521-0.901s0.163-0.281,0.469-0.812c0.305-0.529,0.754-1.306,1.325-2.295
	c7.318-15.177,15.318-28.177,24.733-42.112c0.512-0.798,1.018-1.594,1.523-2.39c5.062-7.96,10.062-15.817,15.062-23.675
	c2-2,9-3,13.993-2.057c0.839-0.006,1.678-0.009,2.518-0.008c5.871,0.005,11.734,0.149,17.596,0.195
	c0.9,0.008,1.803,0.013,2.704,0.014c16.189,0.855,32.189-5.145,48.29,1.656c0.561,0.729,1.104,1.468,1.627,2.214
	c7.347,10.448,11.37,22.436,19.053,32.589c0.313,0.543,0.627,1.086,0.94,1.629c5.322,9.219,10.561,18.29,14.373,24.895
	c0.507,0.878,0.988,1.713,1.442,2.498c9.464,9.375-4.536,19.375-7.397,28.129c-0.335,0.58-0.673,1.166-1.015,1.758
	c-1.026,1.777-2.083,3.608-3.159,5.473c-0.861,1.493-1.734,3.006-2.617,4.529c-1.854,3.219-3.692,6.414-5.513,9.579
	c-0.454,0.791-0.908,1.58-1.361,2.367c-7.415,9.223-10.639,27.22-22.48,29.515c-0.844,0.164-1.732,0.248-2.672,0.241
	c-7.254-0.54-14.444-0.841-21.622-0.95c-0.896-0.014-1.794-0.023-2.69-0.031c-16.009,1.766-33.009,1.766-48.58-0.17
	c-0.789,0.053-1.648,0.17-2.869,0.404C307.777,377.596,307.443,377.617,307.443,377.617z"/>
<path fill-rule="evenodd" clip-rule="evenodd" fill="none" stroke="#000000" stroke-miterlimit="10" d="M308.012,223.029
	c-2.565-4.566-4.948-9.187-7.351-13.766c-0.4-0.763-0.802-1.524-1.205-2.285c-10.046-13.48-20.046-26.48-25.366-41.099
	c-0.458-0.839-0.917-1.679-1.374-2.518c-1.828-3.362-3.626-6.743-5.434-10.138c-0.629-1.094-1.126-1.953-1.465-2.541
	c-0.338-0.587-0.52-0.901-0.52-0.901s0.163-0.282,0.469-0.812c0.306-0.529,0.754-1.306,1.324-2.295
	c7.319-15.177,15.319-28.177,24.734-42.112c0.51-0.798,1.018-1.594,1.523-2.39c5.062-7.96,10.062-15.816,15.062-23.674
	c2-2,9-3,13.993-2.057c0.838-0.006,1.678-0.008,2.516-0.007c5.873,0.005,11.736,0.149,17.598,0.195
	c0.901,0.007,1.803,0.012,2.703,0.014c16.19,0.855,32.19-5.145,48.292,1.656c0.561,0.73,1.103,1.468,1.627,2.214
	c7.346,10.448,11.369,22.435,19.051,32.589c0.314,0.542,0.628,1.086,0.941,1.628c5.323,9.219,10.561,18.29,14.373,24.894
	c0.507,0.878,0.987,1.713,1.442,2.499c9.464,9.375-4.536,19.375-7.398,28.129c-0.333,0.579-0.672,1.166-1.014,1.757
	c-1.026,1.778-2.083,3.608-3.159,5.473c-0.862,1.492-1.734,3.006-2.616,4.529c-1.856,3.219-3.693,6.414-5.513,9.579
	c-0.455,0.791-0.91,1.58-1.362,2.367c-7.415,9.223-10.638,27.219-22.479,29.515c-0.845,0.165-1.734,0.249-2.673,0.242
	c-7.254-0.541-14.445-0.841-21.622-0.951c-0.896-0.014-1.793-0.024-2.69-0.032c-16.009,1.766-33.009,1.766-48.581-0.169
	c-0.787,0.052-1.647,0.17-2.867,0.405C308.346,223.007,308.012,223.029,308.012,223.029z"/>
<path opacity="0.7" fill-rule="evenodd" clip-rule="evenodd" fill="#2F9467" stroke="#000000" stroke-miterlimit="10" d="
	M174.423,298.865c-2.564-4.567-4.947-9.187-7.35-13.766c-0.4-0.763-0.802-1.525-1.205-2.285
	c-10.047-13.479-20.047-26.479-25.366-41.099c-0.458-0.84-0.917-1.68-1.374-2.519c-1.828-3.362-3.626-6.743-5.434-10.138
	c-0.629-1.094-1.126-1.953-1.465-2.541c-0.339-0.587-0.52-0.901-0.52-0.901s0.163-0.282,0.469-0.812
	c0.306-0.529,0.754-1.306,1.324-2.294c7.318-15.177,15.318-28.177,24.734-42.113c0.51-0.798,1.018-1.594,1.523-2.39
	c5.061-7.96,10.061-15.817,15.061-23.674c2-2,9-3,13.994-2.057c0.838-0.006,1.678-0.008,2.516-0.007
	c5.873,0.004,11.736,0.149,17.598,0.195c0.901,0.007,1.803,0.012,2.703,0.014c16.189,0.855,32.189-5.145,48.291,1.656
	c0.562,0.73,1.104,1.468,1.628,2.214c7.346,10.448,11.368,22.436,19.052,32.589c0.312,0.542,0.627,1.086,0.94,1.628
	c5.323,9.219,10.562,18.29,14.372,24.894c0.508,0.878,0.989,1.713,1.443,2.499c9.463,9.375-4.537,19.375-7.398,28.129
	c-0.333,0.579-0.672,1.166-1.014,1.758c-1.027,1.777-2.084,3.607-3.16,5.473c-0.861,1.492-1.734,3.005-2.615,4.529
	c-1.855,3.219-3.693,6.414-5.514,9.578c-0.455,0.791-0.908,1.58-1.361,2.368c-7.416,9.222-10.639,27.219-22.479,29.515
	c-0.845,0.164-1.734,0.248-2.673,0.24c-7.254-0.539-14.445-0.84-21.623-0.949c-0.896-0.014-1.791-0.024-2.689-0.032
	c-16.01,1.767-33.01,1.767-48.581-0.169c-0.787,0.053-1.647,0.17-2.867,0.404C174.758,298.843,174.423,298.865,174.423,298.865z"/>
<path fill-rule="evenodd" clip-rule="evenodd" fill="none" stroke="#000000" stroke-miterlimit="10" d="M127.243,76.02
	c2.564,4.566,4.948,9.187,7.351,13.765c0.4,0.763,0.802,1.525,1.205,2.285c10.045,13.48,20.045,26.48,25.364,41.099
	c0.459,0.839,0.919,1.679,1.374,2.519c1.828,3.362,3.626,6.743,5.434,10.137c0.632,1.095,1.126,1.954,1.466,2.541
	c0.339,0.587,0.521,0.901,0.521,0.901s-0.165,0.282-0.469,0.812c-0.308,0.529-0.755,1.306-1.326,2.295
	c-7.318,15.177-15.318,28.177-24.733,42.112c-0.511,0.798-1.018,1.595-1.523,2.39c-5.062,7.96-10.062,15.817-15.062,23.674
	c-2,2-9,3-13.991,2.057c-0.841,0.006-1.679,0.008-2.519,0.007c-5.871-0.005-11.734-0.149-17.597-0.195
	c-0.902-0.007-1.801-0.013-2.704-0.014c-16.189-0.855-32.189,5.145-48.292-1.656c-0.561-0.729-1.102-1.468-1.627-2.214
	c-7.344-10.448-11.368-22.436-19.05-32.589c-0.314-0.542-0.626-1.086-0.942-1.628c-5.322-9.219-10.56-18.29-14.372-24.894
	c-0.507-0.878-0.988-1.713-1.442-2.499c-9.464-9.375,4.536-19.375,7.397-28.129c0.333-0.58,0.674-1.166,1.015-1.758
	c1.026-1.777,2.083-3.608,3.159-5.473c0.861-1.492,1.734-3.005,2.618-4.529c1.855-3.219,3.691-6.414,5.51-9.579
	c0.456-0.791,0.911-1.58,1.363-2.367c7.416-9.223,10.639-27.219,22.48-29.515c0.844-0.164,1.734-0.248,2.673-0.241
	c7.254,0.54,14.444,0.841,21.622,0.95c0.896,0.014,1.793,0.024,2.689,0.032c16.01-1.766,33.01-1.766,48.582,0.169
	c0.787-0.053,1.647-0.17,2.867-0.405C126.909,76.042,127.243,76.02,127.243,76.02z"/>
<path fill-rule="evenodd" clip-rule="evenodd" fill="none" stroke="#000000" stroke-miterlimit="10" d="M126.674,230.608
	c2.566,4.566,4.948,9.187,7.351,13.765c0.401,0.763,0.802,1.525,1.205,2.285c10.046,13.479,20.046,26.479,25.366,41.099
	c0.459,0.84,0.917,1.68,1.372,2.52c1.828,3.361,3.628,6.742,5.434,10.137c0.632,1.094,1.128,1.953,1.465,2.541
	c0.34,0.586,0.521,0.9,0.521,0.9s-0.164,0.282-0.469,0.812c-0.306,0.529-0.753,1.306-1.325,2.295
	c-7.318,15.176-15.318,28.176-24.732,42.111c-0.513,0.799-1.018,1.595-1.523,2.391c-5.062,7.96-10.062,15.817-15.062,23.674
	c-2,2-9,3-13.993,2.058c-0.839,0.006-1.678,0.009-2.518,0.007c-5.869-0.004-11.734-0.148-17.595-0.195
	c-0.901-0.007-1.804-0.012-2.706-0.014c-16.188-0.855-32.188,5.145-48.29-1.656c-0.561-0.729-1.102-1.467-1.627-2.213
	c-7.346-10.449-11.369-22.436-19.05-32.59c-0.316-0.543-0.628-1.086-0.942-1.629c-5.322-9.219-10.561-18.29-14.374-24.894
	c-0.505-0.878-0.987-1.713-1.44-2.498c-9.465-9.376,4.535-19.376,7.396-28.13c0.335-0.579,0.676-1.166,1.017-1.758
	c1.025-1.777,2.081-3.607,3.159-5.473c0.859-1.492,1.733-3.005,2.616-4.529c1.854-3.219,3.693-6.414,5.512-9.578
	c0.456-0.791,0.909-1.58,1.363-2.367c7.413-9.223,10.637-27.22,22.479-29.515c0.846-0.165,1.734-0.249,2.673-0.241
	c7.254,0.54,14.443,0.841,21.622,0.949c0.896,0.014,1.793,0.024,2.692,0.032c16.007-1.767,33.007-1.767,48.579,0.169
	c0.787-0.053,1.649-0.17,2.867-0.404C126.339,230.63,126.674,230.608,126.674,230.608z"/>
<path fill-rule="evenodd" clip-rule="evenodd" fill="none" stroke="#000000" stroke-miterlimit="10" d="M176.423,148.517
	c-2.564-4.566-4.947-9.187-7.35-13.765c-0.4-0.763-0.802-1.525-1.205-2.285c-10.047-13.48-20.047-26.48-25.366-41.099
	c-0.458-0.839-0.917-1.679-1.374-2.519c-1.828-3.361-3.626-6.742-5.434-10.137c-0.629-1.094-1.126-1.954-1.465-2.541
	s-0.52-0.9-0.52-0.9s0.163-0.283,0.469-0.812c0.306-0.529,0.754-1.306,1.324-2.295c7.318-15.177,15.318-28.177,24.734-42.112
	c0.51-0.798,1.018-1.594,1.523-2.39c5.061-7.96,10.061-15.817,15.061-23.674c2-2,9-3,13.994-2.057
	c0.838-0.006,1.678-0.009,2.516-0.008c5.873,0.005,11.736,0.149,17.598,0.195c0.901,0.007,1.803,0.012,2.703,0.014
	c16.189,0.855,32.189-5.145,48.291,1.656c0.562,0.729,1.104,1.468,1.628,2.214c7.346,10.448,11.368,22.436,19.052,32.589
	c0.312,0.542,0.627,1.086,0.94,1.628c5.323,9.22,10.562,18.29,14.372,24.895c0.508,0.878,0.989,1.712,1.443,2.498
	c9.463,9.375-4.537,19.375-7.398,28.129c-0.333,0.58-0.672,1.166-1.014,1.758c-1.027,1.777-2.084,3.608-3.16,5.474
	c-0.861,1.492-1.734,3.005-2.615,4.528c-1.855,3.22-3.693,6.414-5.514,9.579c-0.455,0.791-0.908,1.58-1.361,2.367
	c-7.416,9.223-10.639,27.219-22.479,29.515c-0.845,0.164-1.734,0.248-2.673,0.241c-7.254-0.54-14.445-0.841-21.623-0.95
	c-0.896-0.014-1.791-0.023-2.689-0.032c-16.01,1.766-33.01,1.766-48.581-0.169c-0.787,0.053-1.647,0.17-2.867,0.405
	C176.758,148.495,176.423,148.517,176.423,148.517z"/>
<path fill-rule="evenodd" clip-rule="evenodd" fill="none" stroke="#000000" stroke-miterlimit="10" d="M174.423,452.13
	c-2.564-4.566-4.947-9.188-7.35-13.766c-0.4-0.764-0.802-1.525-1.205-2.285c-10.047-13.48-20.047-26.48-25.366-41.099
	c-0.458-0.84-0.917-1.679-1.374-2.519c-1.828-3.362-3.626-6.743-5.434-10.138c-0.629-1.094-1.126-1.954-1.465-2.54
	c-0.339-0.587-0.52-0.901-0.52-0.901s0.163-0.282,0.469-0.812s0.754-1.307,1.324-2.295c7.318-15.178,15.318-28.178,24.734-42.112
	c0.51-0.799,1.018-1.595,1.523-2.391c5.061-7.96,10.061-15.817,15.061-23.675c2-2,9-3,13.994-2.057
	c0.838-0.006,1.678-0.008,2.516-0.008c5.873,0.006,11.736,0.15,17.598,0.196c0.901,0.007,1.803,0.012,2.703,0.013
	c16.189,0.855,32.189-5.145,48.291,1.656c0.562,0.73,1.104,1.469,1.628,2.215c7.346,10.448,11.368,22.436,19.052,32.589
	c0.312,0.543,0.627,1.086,0.94,1.628c5.323,9.22,10.562,18.291,14.372,24.895c0.508,0.879,0.989,1.713,1.443,2.498
	c9.463,9.375-4.537,19.375-7.398,28.129c-0.333,0.58-0.672,1.166-1.014,1.758c-1.027,1.777-2.084,3.609-3.16,5.474
	c-0.861,1.492-1.734,3.005-2.615,4.529c-1.855,3.219-3.693,6.413-5.514,9.579c-0.455,0.791-0.908,1.58-1.361,2.367
	c-7.416,9.222-10.639,27.219-22.479,29.514c-0.845,0.164-1.734,0.248-2.673,0.242c-7.254-0.541-14.445-0.842-21.623-0.95
	c-0.896-0.015-1.791-0.024-2.689-0.032c-16.01,1.766-33.01,1.766-48.581-0.169c-0.787,0.052-1.647,0.169-2.867,0.404
	C174.758,452.107,174.423,452.13,174.423,452.13z"/>
</svg>
