<?xml version="1.0" encoding="utf-8"?>
<!-- Generator: Adobe Illustrator 16.0.0, SVG Export Plug-In . SVG Version: 6.00 Build 0)  -->
<!DOCTYPE svg PUBLIC "-//W3C//DTD SVG 1.1//EN" "http://www.w3.org/Graphics/SVG/1.1/DTD/svg11.dtd">
<svg version="1.1" id="Layer_1" xmlns="http://www.w3.org/2000/svg" xmlns:xlink="http://www.w3.org/1999/xlink" x="0px" y="0px"
	 width="161.811px" height="161.179px" viewBox="0 0 161.811 161.179" enable-background="new 0 0 161.811 161.179"
	 xml:space="preserve">
<g>
	<path fill="#333132" d="M86.615,103.587c0.158-0.138,0.296-0.284,0.413-0.442c0.115-0.158,0.219-0.324,0.306-0.498
		c0.038-0.082,0.072-0.18,0.104-0.293c0.029-0.113,0.043-0.225,0.036-0.332c-0.007-0.108-0.039-0.206-0.095-0.294
		c-0.057-0.088-0.149-0.146-0.277-0.175c-0.145-0.032-0.28-0.02-0.407,0.037c-0.126,0.057-0.245,0.143-0.355,0.262
		s-0.211,0.267-0.305,0.442c-0.095,0.175-0.182,0.366-0.262,0.573c-0.08,0.209-0.153,0.426-0.218,0.655
		c-0.063,0.229-0.122,0.46-0.172,0.688c0.259-0.064,0.489-0.152,0.691-0.259C86.275,103.847,86.456,103.723,86.615,103.587z"/>
	<path fill="#333132" d="M58.563,102.456c-0.187,0.128-0.364,0.265-0.538,0.405c-0.172,0.143-0.326,0.281-0.461,0.418
		c-0.139,0.135-0.248,0.264-0.338,0.389c-0.089,0.123-0.141,0.229-0.163,0.319c-0.032,0.145,0.03,0.233,0.187,0.269
		c0.166,0.036,0.33,0.022,0.496-0.041c0.168-0.062,0.33-0.16,0.486-0.289c0.157-0.129,0.309-0.281,0.454-0.458
		s0.279-0.36,0.404-0.552c0.123-0.192,0.233-0.382,0.333-0.568c0.098-0.188,0.179-0.355,0.245-0.504
		c-0.175,0.067-0.355,0.154-0.544,0.26C58.936,102.209,58.749,102.328,58.563,102.456z"/>
	<path fill="#333132" d="M66.093,98.544l-1.718,1.095l-0.002,0.166l0,0c0.007,0.011,0.015,0.016,0.022,0.028
		c0.044,0.071,0.094,0.151,0.152,0.235c0.059,0.088,0.132,0.17,0.216,0.251c0.084,0.079,0.189,0.132,0.316,0.16
		c0.152,0.034,0.281,0.036,0.393,0.008c0.11-0.029,0.203-0.079,0.281-0.15c0.076-0.07,0.139-0.159,0.188-0.265
		c0.047-0.107,0.084-0.221,0.111-0.342c0.022-0.105,0.039-0.213,0.051-0.326c0.009-0.111,0.016-0.22,0.016-0.324
		c0-0.104-0.002-0.203-0.01-0.297C66.105,98.69,66.098,98.61,66.093,98.544z"/>
	<path fill="#333132" d="M83.221,106.349c-0.104,0.171-0.2,0.341-0.291,0.514c-0.094,0.171-0.173,0.333-0.244,0.482
		c-0.072,0.149-0.132,0.28-0.178,0.39c-0.047,0.111-0.076,0.192-0.087,0.242c-0.007,0.031-0.012,0.084-0.014,0.156
		c-0.001,0.074,0.005,0.148,0.021,0.227c0.017,0.076,0.045,0.147,0.083,0.215c0.038,0.064,0.095,0.105,0.169,0.122
		c0.066,0.015,0.13-0.01,0.188-0.072c0.059-0.063,0.115-0.151,0.17-0.267c0.054-0.113,0.103-0.246,0.148-0.397
		c0.045-0.149,0.088-0.304,0.13-0.461c0.043-0.157,0.083-0.313,0.119-0.466c0.034-0.15,0.069-0.285,0.104-0.405
		c0.058-0.208,0.105-0.384,0.145-0.53c0.037-0.145,0.068-0.266,0.095-0.362c0.028-0.108,0.051-0.198,0.071-0.272
		c-0.104,0.113-0.207,0.246-0.314,0.402C83.429,106.018,83.322,106.18,83.221,106.349z"/>
	<path fill="#333132" d="M105.127,107.266c0.182-0.036,0.355-0.096,0.523-0.177c0.166-0.082,0.313-0.179,0.44-0.29
		c0.126-0.11,0.204-0.229,0.232-0.354c0.038-0.177,0.037-0.327-0.003-0.454c-0.039-0.128-0.105-0.202-0.199-0.224
		c-0.168-0.035-0.318-0.035-0.449,0c-0.133,0.037-0.251,0.096-0.354,0.178c-0.102,0.082-0.19,0.182-0.268,0.297
		c-0.076,0.116-0.142,0.236-0.195,0.358c-0.053,0.123-0.097,0.245-0.132,0.364c-0.034,0.119-0.061,0.223-0.08,0.308
		C104.785,107.303,104.945,107.301,105.127,107.266z"/>
	<path fill="#333132" d="M55.946,94.87c-0.171,0.046-0.338,0.122-0.503,0.231c-0.165,0.105-0.322,0.234-0.474,0.385
		s-0.29,0.314-0.413,0.488c-0.127,0.176-0.232,0.355-0.319,0.541s-0.15,0.363-0.189,0.535c-0.021,0.098-0.035,0.193-0.04,0.288
		c-0.009,0.095-0.001,0.182,0.018,0.262c0.021,0.081,0.053,0.149,0.103,0.206c0.049,0.059,0.117,0.098,0.208,0.117
		c0.146,0.031,0.289-0.002,0.434-0.102c0.145-0.098,0.28-0.227,0.402-0.383c0.125-0.158,0.234-0.324,0.328-0.498
		c0.094-0.177,0.162-0.326,0.204-0.446l0.735-1.642C56.279,94.817,56.116,94.824,55.946,94.87z"/>
	<path fill="#333132" d="M39.539,91.265c-0.17,0.047-0.338,0.124-0.501,0.23c-0.167,0.107-0.323,0.235-0.475,0.388
		c-0.152,0.148-0.29,0.312-0.416,0.488c-0.123,0.174-0.229,0.355-0.315,0.539c-0.088,0.186-0.151,0.365-0.189,0.535
		c-0.021,0.098-0.035,0.195-0.041,0.289c-0.007,0.094,0,0.182,0.02,0.261c0.019,0.081,0.051,0.149,0.102,0.208
		c0.047,0.059,0.117,0.096,0.206,0.115c0.145,0.031,0.289-0.002,0.434-0.101s0.279-0.228,0.405-0.384
		c0.124-0.156,0.231-0.323,0.324-0.5c0.096-0.174,0.162-0.322,0.205-0.444l0.737-1.642C39.873,91.213,39.709,91.219,39.539,91.265z"
		/>
	<path fill="#333132" d="M98.122,52.673c0.443-0.624,0.849-1.257,1.215-1.896c0.364-0.639,0.642-1.248,0.83-1.826
		c0.04-0.188,0.072-0.352,0.09-0.486c0.021-0.135,0.004-0.207-0.049-0.219c-0.188-0.043-0.416,0.035-0.69,0.23
		c-0.27,0.197-0.56,0.479-0.867,0.846c-0.311,0.369-0.626,0.808-0.944,1.318c-0.321,0.508-0.628,1.058-0.92,1.646
		s-0.558,1.205-0.794,1.845c-0.234,0.641-0.422,1.272-0.559,1.896c0.406-0.456,0.846-0.973,1.314-1.55
		C97.221,53.9,97.678,53.298,98.122,52.673z"/>
	<path fill="#333132" d="M92.516,51.441c0.444-0.625,0.849-1.258,1.212-1.896c0.367-0.64,0.644-1.247,0.833-1.825
		c0.039-0.189,0.07-0.353,0.091-0.486c0.019-0.137,0.002-0.209-0.05-0.221c-0.188-0.041-0.418,0.035-0.688,0.23
		c-0.272,0.196-0.563,0.479-0.873,0.848c-0.309,0.368-0.623,0.807-0.943,1.314c-0.319,0.511-0.625,1.06-0.919,1.648
		c-0.294,0.59-0.558,1.205-0.794,1.846c-0.235,0.64-0.423,1.271-0.559,1.896c0.406-0.456,0.845-0.973,1.315-1.551
		C91.613,52.667,92.07,52.065,92.516,51.441z"/>
	<path fill="#333132" d="M78.406,49.496c0.268-0.289,0.549-0.604,0.845-0.943c0.297-0.341,0.571-0.68,0.821-1.016
		c0.251-0.336,0.469-0.656,0.65-0.957c0.183-0.3,0.297-0.556,0.342-0.764c0.016-0.07,0.029-0.151,0.038-0.242
		c0.009-0.088,0.007-0.176-0.009-0.262s-0.051-0.16-0.108-0.229c-0.057-0.066-0.147-0.114-0.271-0.141
		c-0.17-0.038-0.373,0.074-0.612,0.335c-0.237,0.262-0.485,0.606-0.747,1.038c-0.264,0.429-0.523,0.908-0.785,1.437
		c-0.265,0.528-0.514,1.044-0.744,1.544c0.096,0.035,0.189,0.068,0.283,0.099C78.206,49.427,78.305,49.46,78.406,49.496z"/>
	<path fill="#333132" d="M45.487,89.883c0.267-0.376,0.509-0.754,0.728-1.137s0.385-0.75,0.497-1.097
		c0.026-0.114,0.043-0.21,0.057-0.292c0.011-0.082-0.001-0.125-0.032-0.132c-0.113-0.024-0.249,0.021-0.412,0.14
		c-0.162,0.117-0.336,0.287-0.521,0.507c-0.187,0.222-0.376,0.485-0.568,0.79c-0.19,0.305-0.375,0.635-0.551,0.988
		c-0.177,0.354-0.335,0.723-0.477,1.107c-0.143,0.385-0.252,0.763-0.336,1.137c0.245-0.273,0.509-0.582,0.791-0.93
		S45.221,90.256,45.487,89.883z"/>
	<path fill="#333132" d="M71.687,73.143c0.269-0.287,0.552-0.603,0.847-0.943c0.297-0.341,0.569-0.68,0.82-1.017
		c0.252-0.336,0.469-0.655,0.65-0.955c0.183-0.302,0.295-0.556,0.34-0.763c0.018-0.072,0.028-0.153,0.04-0.242
		c0.009-0.092,0.006-0.178-0.009-0.264c-0.015-0.084-0.051-0.161-0.107-0.229c-0.058-0.066-0.147-0.113-0.273-0.14
		c-0.168-0.038-0.372,0.073-0.607,0.336c-0.24,0.26-0.488,0.606-0.751,1.036c-0.261,0.43-0.522,0.908-0.785,1.436
		c-0.264,0.53-0.511,1.045-0.744,1.545c0.095,0.035,0.191,0.068,0.284,0.1C71.487,73.072,71.586,73.107,71.687,73.143z"/>
	<path fill="#333132" d="M45.838,70.755c-0.119-0.142-0.279-0.235-0.48-0.279c-0.267-0.06-0.545-0.001-0.835,0.174
		s-0.567,0.42-0.827,0.733c-0.26,0.314-0.489,0.674-0.686,1.082c-0.2,0.404-0.343,0.807-0.43,1.203
		c-0.06,0.272-0.09,0.535-0.09,0.787c-0.002,0.253,0.033,0.479,0.104,0.683c0.071,0.202,0.186,0.378,0.344,0.526
		c0.16,0.147,0.366,0.248,0.62,0.303c0.222,0.05,0.46-0.016,0.719-0.193c0.257-0.179,0.498-0.422,0.73-0.729
		c0.231-0.307,0.439-0.657,0.624-1.049c0.184-0.393,0.318-0.777,0.402-1.153c0.066-0.3,0.104-0.583,0.113-0.849
		c0.013-0.267-0.007-0.506-0.057-0.713C46.04,71.072,45.955,70.897,45.838,70.755z"/>
	<path fill="#333132" d="M62.264,76.807l-2.981,1.899l-0.012,0.081c0.057,0.033,0.111,0.082,0.165,0.168
		c0.074,0.119,0.158,0.25,0.256,0.394c0.098,0.146,0.218,0.284,0.358,0.417c0.142,0.133,0.315,0.223,0.524,0.268
		c0.254,0.057,0.473,0.061,0.656,0.012c0.182-0.048,0.34-0.131,0.469-0.25c0.129-0.117,0.231-0.264,0.312-0.441
		c0.08-0.177,0.142-0.365,0.186-0.566c0.039-0.177,0.066-0.357,0.083-0.545c0.019-0.187,0.027-0.368,0.028-0.541
		c0.001-0.174-0.005-0.338-0.014-0.494C62.283,77.052,62.273,76.92,62.264,76.807z"/>
	<path fill="#333132" d="M104.481,80.349c0.269-0.288,0.551-0.604,0.847-0.944s0.57-0.678,0.822-1.016
		c0.251-0.336,0.467-0.654,0.649-0.955c0.182-0.301,0.294-0.557,0.341-0.764c0.016-0.072,0.029-0.152,0.038-0.242
		s0.007-0.178-0.009-0.262c-0.016-0.086-0.053-0.162-0.109-0.229c-0.055-0.067-0.146-0.115-0.271-0.142
		c-0.169-0.038-0.371,0.075-0.609,0.336c-0.236,0.262-0.489,0.606-0.749,1.036c-0.262,0.431-0.523,0.909-0.785,1.438
		c-0.264,0.529-0.511,1.043-0.744,1.543c0.094,0.035,0.189,0.068,0.285,0.1C104.283,80.278,104.382,80.312,104.481,80.349z"/>
	<path fill="#333132" d="M117.669,86.538c-0.118-0.142-0.278-0.235-0.481-0.28c-0.266-0.058-0.544,0-0.834,0.175
		c-0.293,0.174-0.566,0.419-0.826,0.733c-0.262,0.314-0.489,0.675-0.688,1.08c-0.197,0.407-0.342,0.809-0.428,1.205
		c-0.06,0.272-0.092,0.535-0.091,0.787c-0.001,0.253,0.034,0.48,0.104,0.684c0.072,0.203,0.189,0.378,0.347,0.525
		c0.158,0.146,0.364,0.248,0.616,0.305c0.222,0.048,0.463-0.018,0.718-0.195c0.259-0.18,0.502-0.422,0.733-0.729
		c0.231-0.308,0.439-0.657,0.624-1.049c0.185-0.393,0.318-0.776,0.402-1.153c0.065-0.3,0.104-0.583,0.114-0.85
		c0.011-0.268-0.009-0.505-0.059-0.714C117.872,86.854,117.787,86.68,117.669,86.538z"/>
	<path fill="#333132" d="M161.811,87.225l-18.472-16.958l12.68-21.634l-24.237-6.432l1.173-25.047l-24.448,5.568L97.903,0
		L78.842,16.292L58.894,1.099l-9.305,23.284l-24.724-4.182l2.58,24.94L3.61,52.928l13.876,20.886L0,91.784l21.991,12.044
		l-7.129,24.039l25.069,0.444l4.855,24.601l22.407-11.258l15.733,19.524l14.605-20.382l23.004,9.98L124,125.943l25.008-1.855
		l-8.476-23.6L161.811,87.225z M106.686,53.992c0.032-0.148,0.101-0.312,0.209-0.485c0.106-0.175,0.252-0.329,0.433-0.462
		c0.185-0.135,0.409-0.23,0.677-0.291c0.271-0.061,0.586-0.051,0.95,0.03c0.229,0.05,0.438,0.123,0.626,0.22
		c0.189,0.096,0.348,0.215,0.475,0.354c0.125,0.141,0.215,0.307,0.262,0.502c0.051,0.195,0.05,0.414-0.004,0.653
		c-0.049,0.222-0.13,0.427-0.248,0.621c-0.118,0.192-0.273,0.353-0.464,0.479c-0.193,0.129-0.419,0.217-0.677,0.267
		c-0.26,0.049-0.555,0.036-0.888-0.036c-0.571-0.126-0.965-0.354-1.178-0.684C106.645,54.83,106.586,54.44,106.686,53.992z
		 M102.574,63.721c0.09-0.41,0.241-0.875,0.455-1.396c0.213-0.523,0.453-1.06,0.718-1.611c0.263-0.553,0.536-1.102,0.817-1.646
		c0.279-0.546,0.531-1.049,0.756-1.511c0.082-0.157,0.204-0.282,0.367-0.374c0.162-0.09,0.341-0.153,0.527-0.19
		c0.19-0.036,0.379-0.052,0.575-0.048c0.19,0.006,0.362,0.024,0.511,0.057c0.275,0.061,0.448,0.151,0.523,0.273
		c0.076,0.123,0.095,0.268,0.059,0.438c-0.031,0.143-0.112,0.342-0.234,0.598c-0.125,0.254-0.271,0.543-0.445,0.862
		c-0.172,0.32-0.357,0.665-0.555,1.034c-0.195,0.369-0.386,0.739-0.571,1.111c-0.183,0.371-0.349,0.738-0.496,1.097
		c-0.147,0.36-0.253,0.688-0.319,0.989c-0.062,0.292-0.083,0.531-0.056,0.717c0.026,0.188,0.142,0.303,0.344,0.347
		c0.233,0.052,0.512,0.028,0.833-0.072c0.321-0.1,0.654-0.232,0.998-0.399c0.342-0.167,0.682-0.344,1.016-0.527
		c0.055-0.03,0.1-0.055,0.151-0.084c0.175-0.547,0.365-1.104,0.569-1.664c0.207-0.565,0.418-1.106,0.633-1.625
		c0.216-0.518,0.411-0.959,0.587-1.322c0.138-0.283,0.331-0.503,0.579-0.66c0.25-0.156,0.551-0.196,0.9-0.119
		c0.352,0.078,0.571,0.238,0.661,0.482c0.091,0.245,0.096,0.546,0.017,0.903c-0.021,0.097-0.06,0.228-0.115,0.39
		c-0.057,0.16-0.122,0.337-0.194,0.529c-0.074,0.191-0.147,0.39-0.228,0.594c-0.078,0.204-0.152,0.393-0.223,0.564
		c-0.067,0.173-0.124,0.323-0.173,0.452c-0.051,0.128-0.079,0.217-0.09,0.263l0.194,0.043c0.055-0.063,0.143-0.166,0.262-0.307
		c0.121-0.141,0.258-0.303,0.413-0.486c0.157-0.184,0.323-0.377,0.502-0.581c0.177-0.202,0.343-0.397,0.502-0.584
		c0.155-0.188,0.299-0.353,0.425-0.495c0.127-0.143,0.221-0.247,0.285-0.315c0.285-0.306,0.575-0.493,0.869-0.565
		c0.295-0.071,0.606-0.07,0.931,0c0.325,0.072,0.554,0.266,0.687,0.581c0.13,0.313,0.145,0.714,0.037,1.193
		c-0.015,0.071-0.055,0.189-0.122,0.353c-0.067,0.162-0.149,0.355-0.246,0.579c-0.097,0.225-0.202,0.47-0.319,0.737
		c-0.117,0.267-0.23,0.543-0.339,0.824c-0.11,0.283-0.213,0.564-0.305,0.844c-0.093,0.279-0.165,0.539-0.218,0.78
		c-0.088,0.402-0.109,0.745-0.066,1.028c0.044,0.281,0.174,0.447,0.387,0.494c0.098,0.021,0.217,0.016,0.355-0.015
		c0.14-0.03,0.294-0.077,0.46-0.138c0.168-0.064,0.343-0.141,0.521-0.229c0.181-0.091,0.359-0.183,0.537-0.28
		c0.412-0.23,0.85-0.496,1.31-0.795l-0.313,2.221l-0.569,0.262c-0.312,0.145-0.627,0.285-0.947,0.426
		c-0.321,0.141-0.647,0.259-0.981,0.353c-0.335,0.094-0.676,0.155-1.022,0.185s-0.7,0.004-1.058-0.074
		c-0.356-0.079-0.602-0.402-0.731-0.973c-0.132-0.572-0.085-1.354,0.134-2.35c0.085-0.389,0.203-0.805,0.354-1.244
		c0.15-0.441,0.322-0.913,0.516-1.415l-0.156-0.036l-3.668,4.511c-0.19,0.237-0.377,0.388-0.561,0.45
		c-0.183,0.062-0.382,0.068-0.598,0.021c-0.266-0.059-0.469-0.162-0.605-0.312c-0.139-0.148-0.228-0.33-0.275-0.541
		c-0.045-0.211-0.054-0.441-0.032-0.691c0.008-0.087,0.031-0.178,0.042-0.266c-0.081,0.037-0.155,0.073-0.241,0.109
		c-0.402,0.168-0.826,0.309-1.274,0.426c-0.448,0.115-0.897,0.195-1.346,0.24c-0.45,0.045-0.864,0.025-1.239-0.058
		c-0.34-0.074-0.615-0.185-0.824-0.329s-0.367-0.317-0.473-0.518c-0.106-0.201-0.164-0.43-0.172-0.688
		C102.482,64.288,102.512,64.013,102.574,63.721z M114.621,80.584c-0.047,0.221-0.13,0.426-0.248,0.619
		c-0.117,0.191-0.271,0.352-0.463,0.48c-0.192,0.13-0.418,0.217-0.676,0.267c-0.262,0.048-0.556,0.035-0.887-0.037
		c-0.572-0.125-0.967-0.354-1.18-0.684s-0.271-0.718-0.173-1.167c0.034-0.148,0.104-0.312,0.208-0.486
		c0.107-0.174,0.253-0.328,0.436-0.461c0.184-0.134,0.407-0.23,0.677-0.291c0.269-0.061,0.586-0.051,0.948,0.029
		c0.229,0.051,0.438,0.123,0.627,0.22c0.191,0.095,0.348,0.216,0.475,0.354c0.127,0.141,0.213,0.309,0.263,0.503
		S114.676,80.344,114.621,80.584z M84.919,49.21c0.033-0.149,0.103-0.312,0.21-0.485c0.105-0.175,0.249-0.328,0.433-0.463
		c0.183-0.133,0.409-0.23,0.677-0.29c0.271-0.06,0.587-0.051,0.95,0.03c0.228,0.049,0.437,0.122,0.626,0.219
		c0.191,0.097,0.349,0.215,0.475,0.354c0.125,0.14,0.214,0.308,0.263,0.503c0.05,0.193,0.046,0.412-0.005,0.652
		c-0.051,0.221-0.133,0.428-0.249,0.619c-0.117,0.193-0.272,0.354-0.464,0.481c-0.192,0.13-0.418,0.218-0.677,0.267
		c-0.259,0.048-0.556,0.035-0.886-0.037c-0.572-0.126-0.967-0.354-1.18-0.683S84.821,49.659,84.919,49.21z M75.621,48.746
		c0.173,0.041,0.292,0.062,0.36,0.064c0.366-0.84,0.777-1.641,1.228-2.403c0.449-0.765,0.913-1.428,1.389-1.996
		c0.477-0.566,0.954-0.999,1.435-1.298c0.482-0.301,0.941-0.402,1.377-0.307c0.28,0.061,0.517,0.195,0.714,0.402
		c0.196,0.206,0.348,0.457,0.454,0.754c0.104,0.295,0.162,0.626,0.175,0.992c0.011,0.367-0.025,0.74-0.106,1.117
		c-0.072,0.318-0.192,0.645-0.36,0.98c-0.168,0.334-0.372,0.667-0.608,1c-0.235,0.332-0.501,0.664-0.796,0.995
		s-0.6,0.656-0.915,0.976c0.058,0.018,0.155,0.045,0.291,0.078c0.134,0.033,0.291,0.073,0.468,0.119
		c0.179,0.046,0.37,0.096,0.575,0.151c0.207,0.056,0.406,0.108,0.599,0.157c0.194,0.049,0.375,0.096,0.545,0.139
		c0.166,0.045,0.305,0.082,0.413,0.113c0.128,0.035,0.21,0.121,0.24,0.256c0.03,0.137,0.026,0.3-0.015,0.488
		c-0.051,0.228-0.156,0.398-0.316,0.514c-0.162,0.114-0.322,0.153-0.478,0.119l-3.744-0.822c-0.245,0.217-0.493,0.433-0.739,0.64
		c-0.248,0.207-0.473,0.396-0.682,0.562c-0.113,0.396-0.223,0.789-0.328,1.175c-0.044,0.167-0.089,0.34-0.135,0.518
		c-0.046,0.177-0.092,0.353-0.136,0.526c-0.046,0.174-0.086,0.343-0.127,0.504c-0.037,0.162-0.073,0.311-0.101,0.447
		c-0.079,0.352-0.111,0.656-0.101,0.908c0.015,0.256,0.063,0.474,0.153,0.654c0.09,0.179,0.218,0.324,0.382,0.431
		c0.163,0.106,0.355,0.185,0.577,0.233c0.137,0.029,0.312,0.035,0.533,0.016c0.219-0.021,0.463-0.061,0.73-0.121
		c0.271-0.061,0.557-0.137,0.861-0.234c0.303-0.098,0.607-0.21,0.911-0.337c0.304-0.128,0.599-0.268,0.884-0.419
		c0.168-0.09,0.311-0.188,0.464-0.284c0.093-0.206,0.187-0.413,0.289-0.625c0.265-0.552,0.536-1.1,0.817-1.645
		c0.278-0.546,0.53-1.048,0.754-1.51c0.085-0.159,0.206-0.284,0.368-0.374c0.163-0.09,0.339-0.154,0.528-0.191
		s0.38-0.054,0.573-0.048c0.191,0.005,0.363,0.024,0.515,0.058c0.272,0.059,0.445,0.15,0.521,0.271
		c0.076,0.122,0.096,0.268,0.058,0.438c-0.032,0.144-0.11,0.342-0.233,0.598c-0.125,0.256-0.271,0.543-0.445,0.863
		s-0.357,0.664-0.554,1.033c-0.199,0.37-0.388,0.74-0.571,1.111c-0.185,0.372-0.351,0.738-0.498,1.098
		c-0.146,0.359-0.253,0.689-0.319,0.988c-0.063,0.293-0.082,0.531-0.055,0.719c0.027,0.187,0.142,0.302,0.343,0.346
		c0.235,0.053,0.512,0.027,0.835-0.072c0.321-0.101,0.652-0.232,0.997-0.398c0.326-0.159,0.646-0.326,0.964-0.504
		c0.001-0.046-0.003-0.086-0.002-0.134c0.023-0.714,0.118-1.447,0.285-2.201c0.125-0.579,0.307-1.198,0.541-1.86
		c0.234-0.66,0.511-1.334,0.831-2.02c0.322-0.686,0.674-1.368,1.06-2.047c0.384-0.678,0.792-1.322,1.221-1.93
		c0.431-0.606,0.875-1.165,1.334-1.675c0.46-0.509,0.919-0.939,1.378-1.292s0.914-0.609,1.364-0.768
		c0.452-0.161,0.882-0.195,1.291-0.105c0.278,0.061,0.496,0.175,0.65,0.342c0.154,0.168,0.261,0.365,0.319,0.596
		c0.059,0.232,0.079,0.484,0.063,0.757c-0.015,0.271-0.054,0.546-0.112,0.817c-0.135,0.611-0.342,1.219-0.62,1.822
		c-0.279,0.603-0.608,1.198-0.986,1.787c-0.378,0.588-0.794,1.169-1.248,1.744c-0.452,0.576-0.917,1.143-1.396,1.702
		c-0.478,0.56-0.953,1.108-1.432,1.647c-0.475,0.539-0.927,1.068-1.354,1.59c-0.048,0.057-0.1,0.134-0.159,0.231
		c-0.058,0.095-0.117,0.199-0.177,0.313c-0.059,0.113-0.118,0.234-0.183,0.363c-0.062,0.129-0.117,0.257-0.165,0.383l-0.031,0.137
		c-0.035,0.168-0.055,0.337-0.054,0.504c0.003,0.167,0.015,0.32,0.038,0.457c0.024,0.139,0.057,0.253,0.099,0.34
		c0.043,0.088,0.089,0.137,0.142,0.148c0.124,0.026,0.271,0.033,0.442,0.016c0.17-0.018,0.354-0.051,0.554-0.098
		c0.197-0.05,0.402-0.11,0.615-0.183c0.215-0.073,0.422-0.147,0.623-0.226c0.225-0.087,0.456-0.184,0.691-0.289
		c0.034-0.643,0.117-1.3,0.266-1.974c0.128-0.579,0.308-1.198,0.542-1.86c0.233-0.66,0.512-1.334,0.832-2.02
		c0.321-0.688,0.674-1.369,1.058-2.047c0.384-0.68,0.792-1.323,1.222-1.93c0.431-0.608,0.875-1.167,1.334-1.676
		c0.459-0.508,0.919-0.939,1.379-1.291c0.458-0.353,0.912-0.608,1.363-0.768c0.451-0.16,0.882-0.196,1.291-0.105
		c0.279,0.061,0.497,0.174,0.651,0.342c0.153,0.167,0.26,0.365,0.318,0.596c0.059,0.231,0.078,0.482,0.063,0.757
		c-0.017,0.272-0.053,0.545-0.112,0.817c-0.137,0.611-0.34,1.219-0.62,1.822c-0.28,0.602-0.608,1.197-0.986,1.787
		c-0.376,0.588-0.793,1.168-1.248,1.744c-0.453,0.574-0.918,1.143-1.396,1.702c-0.477,0.56-0.952,1.108-1.429,1.647
		c-0.478,0.54-0.93,1.068-1.356,1.589c-0.048,0.058-0.101,0.136-0.16,0.231c-0.058,0.096-0.116,0.2-0.176,0.314
		c-0.057,0.111-0.118,0.234-0.181,0.363c-0.062,0.128-0.118,0.256-0.166,0.383l-0.029,0.136c-0.037,0.169-0.056,0.337-0.055,0.505
		c0,0.166,0.013,0.32,0.037,0.457c0.024,0.139,0.058,0.252,0.101,0.34c0.041,0.087,0.089,0.137,0.14,0.148
		c0.122,0.027,0.271,0.032,0.439,0.015c0.172-0.018,0.356-0.05,0.555-0.097c0.197-0.051,0.405-0.11,0.619-0.184
		c0.213-0.071,0.42-0.146,0.619-0.225c0.471-0.184,0.969-0.404,1.497-0.664l0.351,2.224c-0.672,0.29-1.324,0.534-1.961,0.734
		c-0.277,0.083-0.562,0.162-0.855,0.236c-0.291,0.075-0.582,0.136-0.873,0.182c-0.289,0.046-0.567,0.071-0.835,0.077
		c-0.268,0.007-0.511-0.015-0.731-0.062c-0.352-0.078-0.644-0.305-0.877-0.68c-0.221-0.349-0.379-0.792-0.49-1.311
		c-0.319,0.119-0.635,0.227-0.945,0.326c-0.277,0.082-0.562,0.161-0.855,0.236c-0.292,0.075-0.583,0.135-0.873,0.182
		c-0.289,0.045-0.566,0.07-0.832,0.077c-0.271,0.006-0.514-0.015-0.734-0.063c-0.352-0.077-0.645-0.305-0.879-0.679
		c-0.233-0.375-0.406-0.848-0.515-1.418c-0.009-0.032-0.01-0.071-0.015-0.104c-0.195,0.096-0.404,0.195-0.643,0.293
		c-0.401,0.168-0.824,0.311-1.272,0.426c-0.448,0.117-0.897,0.197-1.347,0.241c-0.451,0.044-0.863,0.025-1.238-0.059
		c-0.34-0.074-0.614-0.183-0.823-0.329c-0.211-0.145-0.368-0.316-0.474-0.518c-0.107-0.199-0.163-0.428-0.172-0.686
		c-0.006-0.218,0.018-0.453,0.062-0.697c-0.428,0.136-0.832,0.263-1.192,0.372c-0.547,0.165-1.03,0.298-1.452,0.396
		c-0.419,0.098-0.789,0.159-1.104,0.187c-0.315,0.025-0.594,0.013-0.834-0.041c-0.494-0.108-0.898-0.354-1.209-0.735
		c-0.312-0.382-0.532-0.882-0.662-1.501c-0.13-0.617-0.172-1.34-0.121-2.166c0.048-0.828,0.184-1.742,0.403-2.744
		c0.084-0.389,0.192-0.803,0.323-1.237c0.13-0.435,0.271-0.863,0.426-1.286c-0.188-0.07-0.335-0.127-0.438-0.172
		c-0.104-0.048-0.212-0.096-0.327-0.144c-0.117-0.05-0.263-0.108-0.442-0.176c-0.179-0.066-0.441-0.157-0.782-0.272
		c-0.151-0.055-0.263-0.119-0.336-0.192s-0.12-0.151-0.143-0.236c-0.023-0.083-0.028-0.166-0.018-0.249
		c0.013-0.082,0.023-0.152,0.036-0.211c0.029-0.13,0.114-0.215,0.258-0.256c0.139-0.041,0.312-0.055,0.52-0.044
		c0.204,0.011,0.427,0.041,0.665,0.091c0.237,0.047,0.466,0.1,0.681,0.152C75.256,48.656,75.45,48.705,75.621,48.746z M58.36,52.328
		c0.091-0.416,0.237-0.767,0.44-1.052c0.202-0.286,0.428-0.514,0.671-0.681c0.245-0.167,0.496-0.279,0.754-0.334
		c0.259-0.059,0.486-0.063,0.69-0.019c0.206,0.046,0.367,0.14,0.482,0.285c0.114,0.144,0.145,0.337,0.094,0.577
		c-0.025,0.109-0.063,0.225-0.116,0.343c-0.054,0.117-0.11,0.247-0.173,0.386c-0.062,0.141-0.123,0.295-0.188,0.465
		c-0.063,0.17-0.119,0.359-0.165,0.566c-0.102,0.455-0.083,0.871,0.054,1.25c0.134,0.377,0.35,0.711,0.647,1
		c0.299,0.291,0.66,0.537,1.086,0.738c0.426,0.203,0.879,0.357,1.359,0.463c0.564,0.125,1.146,0.182,1.742,0.17
		c0.596-0.013,1.146-0.104,1.654-0.271c0.506-0.168,0.943-0.415,1.307-0.74c0.365-0.326,0.603-0.738,0.713-1.238
		c0.102-0.462,0.067-0.902-0.104-1.322c-0.172-0.418-0.427-0.828-0.773-1.227c-0.346-0.399-0.752-0.794-1.218-1.183
		s-0.942-0.783-1.427-1.183c-0.486-0.399-0.957-0.811-1.416-1.235c-0.457-0.425-0.854-0.868-1.184-1.329
		c-0.332-0.462-0.572-0.949-0.723-1.463c-0.149-0.513-0.16-1.062-0.031-1.647c0.121-0.545,0.369-1.056,0.749-1.526
		c0.38-0.473,0.881-0.859,1.504-1.162c0.621-0.305,1.356-0.497,2.208-0.584c0.85-0.086,1.809-0.012,2.874,0.223
		c0.677,0.149,1.316,0.395,1.918,0.738c0.604,0.344,1.117,0.758,1.542,1.238c0.427,0.482,0.736,1.014,0.933,1.596
		s0.226,1.185,0.09,1.809c-0.082,0.371-0.229,0.736-0.441,1.1c-0.212,0.362-0.505,0.723-0.878,1.084
		c-0.361,0.35-0.727,0.59-1.092,0.717c-0.366,0.127-0.679,0.162-0.938,0.105c-0.196-0.043-0.344-0.135-0.44-0.275
		c-0.1-0.142-0.124-0.326-0.073-0.554c0.037-0.169,0.12-0.36,0.248-0.573c0.129-0.213,0.32-0.449,0.574-0.707
		c0.239-0.247,0.428-0.486,0.566-0.72c0.141-0.23,0.235-0.454,0.282-0.669c0.071-0.33,0.047-0.641-0.078-0.932
		c-0.122-0.29-0.325-0.554-0.603-0.792c-0.277-0.237-0.629-0.448-1.053-0.63s-0.899-0.33-1.425-0.446
		c-0.585-0.128-1.108-0.173-1.57-0.136c-0.462,0.039-0.86,0.131-1.194,0.279c-0.337,0.149-0.604,0.338-0.8,0.565
		c-0.198,0.229-0.325,0.472-0.38,0.726c-0.096,0.428-0.052,0.84,0.123,1.232c0.177,0.393,0.438,0.78,0.788,1.16
		c0.351,0.381,0.757,0.758,1.224,1.133c0.465,0.375,0.943,0.76,1.432,1.158c0.488,0.396,0.961,0.811,1.413,1.24
		c0.455,0.432,0.845,0.889,1.169,1.377c0.328,0.486,0.561,1.008,0.699,1.564c0.143,0.555,0.141,1.154-0.001,1.798
		c-0.129,0.585-0.34,1.103-0.638,1.553c-0.297,0.448-0.65,0.833-1.064,1.151c-0.414,0.317-0.879,0.576-1.393,0.776
		s-1.054,0.341-1.616,0.422s-1.142,0.108-1.734,0.084c-0.597-0.024-1.183-0.101-1.761-0.228c-0.813-0.179-1.58-0.452-2.305-0.818
		c-0.722-0.367-1.34-0.816-1.851-1.348c-0.511-0.529-0.88-1.137-1.107-1.817C58.209,53.879,58.184,53.137,58.36,52.328z
		 M69.285,101.012c-0.282,0.135-0.602,0.248-0.954,0.343c-0.354,0.094-0.719,0.165-1.097,0.213
		c-0.375,0.049-0.752,0.069-1.124,0.062c-0.372-0.005-0.72-0.044-1.038-0.113c-0.229-0.051-0.44-0.119-0.631-0.205
		c-0.189-0.088-0.35-0.193-0.479-0.318c-0.13-0.125-0.226-0.271-0.285-0.439c-0.021-0.057-0.031-0.12-0.041-0.184
		c-0.021,0.016-0.044,0.032-0.066,0.046c-0.166,0.098-0.332,0.189-0.505,0.276c-0.173,0.086-0.338,0.168-0.505,0.241
		c-0.384,0.178-0.796,0.341-1.229,0.491c-0.164,0.402-0.341,0.788-0.53,1.162c-0.188,0.373-0.391,0.718-0.604,1.032
		c-0.215,0.315-0.443,0.597-0.684,0.847c-0.24,0.249-0.496,0.453-0.766,0.61c-0.27,0.158-0.557,0.264-0.857,0.317
		c-0.303,0.055-0.622,0.045-0.956-0.029c-0.134-0.029-0.274-0.074-0.422-0.135c-0.15-0.062-0.279-0.147-0.393-0.258
		c-0.112-0.11-0.194-0.253-0.247-0.422c-0.053-0.172-0.051-0.384,0.006-0.639c0.037-0.174,0.128-0.363,0.266-0.562
		c0.137-0.201,0.311-0.406,0.52-0.615c0.211-0.21,0.451-0.423,0.724-0.64c0.272-0.216,0.563-0.427,0.872-0.633
		c0.311-0.206,0.628-0.406,0.96-0.599c0.331-0.192,0.662-0.375,0.993-0.542l0.277-0.509c-0.252,0.14-0.504,0.243-0.758,0.309
		c-0.252,0.064-0.486,0.072-0.703,0.025c-0.186-0.04-0.36-0.119-0.521-0.232c-0.16-0.116-0.294-0.261-0.397-0.432
		c-0.04-0.068-0.074-0.144-0.104-0.221c-0.047,0.026-0.083,0.056-0.13,0.08c-0.222,0.109-0.449,0.195-0.688,0.252
		c-0.238,0.059-0.465,0.064-0.679,0.018c-0.257-0.056-0.453-0.186-0.59-0.391c-0.135-0.203-0.23-0.475-0.284-0.82
		c-0.117,0.09-0.258,0.176-0.42,0.259c-0.161,0.083-0.332,0.153-0.515,0.208c-0.182,0.057-0.368,0.094-0.555,0.113
		c-0.189,0.021-0.372,0.013-0.547-0.026c-0.187-0.042-0.361-0.12-0.522-0.233c-0.16-0.115-0.292-0.26-0.397-0.433
		c-0.106-0.173-0.177-0.369-0.213-0.593c-0.007-0.039-0.003-0.082-0.008-0.123c-0.062,0.012-0.124,0.027-0.186,0.035
		c-0.298,0.037-0.571,0.028-0.825-0.027c-0.199-0.044-0.382-0.109-0.549-0.195c-0.168-0.085-0.307-0.193-0.418-0.324
		c-0.114-0.133-0.192-0.287-0.236-0.467c-0.044-0.179-0.044-0.384,0.004-0.615c-0.203,0.282-0.402,0.539-0.604,0.766
		c-0.202,0.229-0.398,0.42-0.593,0.573c-0.193,0.153-0.381,0.266-0.56,0.337c-0.178,0.071-0.346,0.09-0.503,0.057
		c-0.054-0.014-0.093-0.066-0.114-0.16c-0.025-0.092-0.032-0.213-0.027-0.36c0.003-0.149,0.017-0.319,0.041-0.513
		c0.023-0.193,0.055-0.396,0.091-0.608c0.035-0.212,0.077-0.431,0.121-0.653c0.046-0.225,0.092-0.441,0.14-0.65l-0.164-0.068
		c-0.207,0.4-0.427,0.761-0.658,1.08c-0.23,0.319-0.464,0.588-0.695,0.804c-0.231,0.218-0.456,0.376-0.676,0.478
		c-0.217,0.102-0.417,0.132-0.598,0.093c-0.304-0.067-0.476-0.341-0.52-0.821c-0.002-0.016-0.001-0.035-0.002-0.052
		c-0.039,0.013-0.077,0.028-0.115,0.04c-0.167,0.049-0.337,0.097-0.513,0.143c-0.177,0.045-0.351,0.08-0.524,0.107
		s-0.341,0.043-0.501,0.047c-0.159,0.004-0.306-0.01-0.438-0.038c-0.21-0.046-0.387-0.183-0.528-0.407
		c-0.126-0.205-0.221-0.465-0.286-0.768c-0.173,0.121-0.354,0.234-0.553,0.334c-0.222,0.111-0.451,0.195-0.688,0.254
		c-0.236,0.059-0.463,0.064-0.677,0.016c-0.258-0.055-0.456-0.186-0.59-0.389c-0.136-0.203-0.23-0.477-0.285-0.82
		c-0.12,0.088-0.258,0.174-0.422,0.258c-0.16,0.082-0.331,0.152-0.512,0.209c-0.183,0.055-0.367,0.094-0.557,0.113
		c-0.187,0.02-0.369,0.012-0.545-0.028c-0.187-0.04-0.361-0.119-0.522-0.233c-0.162-0.115-0.294-0.259-0.399-0.433
		c-0.105-0.171-0.176-0.368-0.213-0.592c-0.037-0.223-0.026-0.463,0.029-0.722c0.063-0.291,0.171-0.582,0.322-0.873
		c0.147-0.29,0.329-0.566,0.535-0.828c0.211-0.264,0.441-0.504,0.696-0.723c0.255-0.218,0.519-0.398,0.799-0.543
		c0.274-0.143,0.556-0.243,0.841-0.303c0.284-0.057,0.562-0.057,0.832,0.004c0.09,0.019,0.155,0.052,0.198,0.098
		s0.076,0.096,0.1,0.147c0.022,0.052,0.045,0.103,0.066,0.151c0.022,0.052,0.054,0.092,0.096,0.121
		c0.043,0.029,0.089,0.053,0.137,0.068c0.046,0.018,0.096,0.031,0.147,0.043c0.041,0.01,0.085,0.018,0.133,0.025
		c0.045,0.008,0.088,0.017,0.131,0.025c0.058,0.014,0.112,0.031,0.16,0.055c0.048,0.021,0.088,0.057,0.117,0.105
		c0.033,0.047,0.049,0.108,0.055,0.184c0.007,0.075-0.006,0.173-0.03,0.293c-0.042,0.189-0.106,0.393-0.196,0.611
		c-0.091,0.22-0.184,0.443-0.281,0.674c-0.102,0.229-0.196,0.46-0.289,0.691c-0.09,0.23-0.16,0.454-0.209,0.669
		c-0.038,0.183-0.053,0.33-0.042,0.44c0.011,0.111,0.069,0.178,0.18,0.202c0.082,0.019,0.172,0.017,0.271-0.005
		c0.1-0.021,0.199-0.055,0.307-0.102c0.107-0.045,0.216-0.102,0.323-0.164c0.112-0.063,0.218-0.131,0.319-0.203
		c0.039-0.027,0.078-0.059,0.117-0.089c0.017-0.422,0.072-0.856,0.17-1.302c0.075-0.348,0.186-0.719,0.324-1.115
		c0.143-0.398,0.307-0.801,0.502-1.213c0.189-0.412,0.4-0.82,0.632-1.229c0.231-0.406,0.476-0.793,0.732-1.156
		c0.26-0.365,0.525-0.699,0.801-1.006c0.276-0.306,0.554-0.563,0.827-0.775c0.275-0.211,0.549-0.363,0.819-0.461
		c0.27-0.096,0.528-0.116,0.773-0.062c0.17,0.036,0.298,0.104,0.392,0.204c0.092,0.1,0.156,0.219,0.191,0.357
		c0.035,0.14,0.047,0.291,0.037,0.453c-0.008,0.164-0.03,0.328-0.068,0.492c-0.078,0.366-0.205,0.73-0.372,1.092
		c-0.167,0.362-0.364,0.721-0.589,1.072c-0.229,0.354-0.478,0.703-0.749,1.049c-0.272,0.344-0.552,0.685-0.837,1.021
		c-0.288,0.335-0.572,0.665-0.859,0.988s-0.557,0.642-0.814,0.952c-0.028,0.035-0.059,0.081-0.094,0.139
		c-0.035,0.059-0.07,0.121-0.106,0.189c-0.034,0.068-0.071,0.141-0.108,0.217c-0.038,0.078-0.072,0.156-0.1,0.23l-0.018,0.082
		c-0.023,0.102-0.034,0.201-0.034,0.303c0.001,0.1,0.009,0.191,0.021,0.275c0.016,0.082,0.036,0.15,0.062,0.203
		c0.024,0.052,0.053,0.082,0.083,0.089c0.075,0.017,0.163,0.02,0.266,0.009c0.104-0.011,0.214-0.031,0.331-0.059
		c0.119-0.029,0.242-0.066,0.371-0.109c0.127-0.043,0.253-0.089,0.374-0.136c0.05-0.019,0.107-0.05,0.157-0.07
		c0.031-0.181,0.07-0.372,0.113-0.575c0.027-0.125,0.051-0.234,0.072-0.329c0.021-0.097,0.043-0.192,0.068-0.286
		c0.025-0.096,0.056-0.197,0.085-0.307c0.034-0.109,0.072-0.241,0.118-0.395c0.014-0.039,0.037-0.104,0.071-0.196
		s0.079-0.196,0.136-0.31c0.056-0.115,0.123-0.232,0.199-0.352c0.078-0.121,0.167-0.227,0.267-0.316s0.208-0.16,0.326-0.207
		c0.12-0.048,0.251-0.057,0.396-0.024l0.139,0.043c0.171,0.037,0.295,0.101,0.372,0.188c0.077,0.09,0.103,0.189,0.077,0.303
		l-1.104,3.076l0.079,0.01c0.258-0.359,0.486-0.691,0.688-0.992c0.197-0.303,0.379-0.571,0.544-0.81
		c0.164-0.237,0.319-0.443,0.46-0.616c0.144-0.174,0.286-0.311,0.433-0.414c0.146-0.104,0.298-0.171,0.457-0.203
		c0.16-0.032,0.343-0.027,0.546,0.018c0.171,0.039,0.296,0.102,0.371,0.189c0.078,0.089,0.104,0.188,0.08,0.303l-1.177,3.061
		l0.083,0.012l2.086-2.817c0.07-0.099,0.192-0.173,0.367-0.222c0.176-0.051,0.369-0.052,0.583-0.004
		c0.225,0.049,0.392,0.133,0.509,0.256c0.115,0.12,0.158,0.254,0.127,0.398c-0.023,0.109-0.067,0.221-0.132,0.339
		c-0.065,0.116-0.13,0.224-0.196,0.321c-0.067,0.098-0.128,0.182-0.185,0.248c-0.056,0.068-0.085,0.105-0.092,0.111
		c-0.119,0.139-0.229,0.264-0.331,0.381c-0.103,0.117-0.192,0.22-0.269,0.31c-0.093,0.103-0.174,0.198-0.248,0.289
		c0.021,0.164,0.061,0.316,0.121,0.456c0.052,0.117,0.122,0.231,0.214,0.342c0.09,0.11,0.211,0.181,0.363,0.215
		c0.128,0.028,0.283,0.026,0.467-0.006c0.146-0.023,0.287-0.062,0.425-0.102c0.023-0.051,0.041-0.104,0.068-0.154
		c0.149-0.291,0.329-0.566,0.538-0.83c0.209-0.263,0.44-0.503,0.693-0.72c0.256-0.22,0.521-0.399,0.797-0.545
		c0.279-0.143,0.561-0.243,0.845-0.301s0.562-0.058,0.829,0.001c0.09,0.02,0.156,0.053,0.199,0.1c0.043,0.045,0.076,0.094,0.1,0.147
		c0.024,0.052,0.046,0.103,0.068,0.153c0.021,0.049,0.053,0.088,0.096,0.118c0.044,0.029,0.087,0.054,0.136,0.069
		c0.046,0.018,0.097,0.031,0.146,0.042c0.046,0.009,0.09,0.018,0.134,0.026c0.045,0.008,0.089,0.018,0.131,0.026
		c0.059,0.013,0.11,0.03,0.162,0.052c0.046,0.023,0.087,0.061,0.116,0.106c0.031,0.048,0.051,0.108,0.055,0.185
		c0.007,0.074-0.004,0.172-0.031,0.293c-0.04,0.188-0.104,0.391-0.194,0.61c-0.089,0.22-0.183,0.444-0.284,0.673
		c-0.098,0.23-0.194,0.461-0.286,0.691c-0.091,0.232-0.161,0.455-0.208,0.67c-0.041,0.184-0.056,0.33-0.045,0.441
		c0.01,0.11,0.07,0.178,0.181,0.201c0.081,0.019,0.172,0.018,0.271-0.005c0.098-0.021,0.2-0.054,0.307-0.101
		c0.108-0.046,0.216-0.101,0.326-0.164c0.024-0.016,0.047-0.033,0.072-0.048c0.065-0.269,0.134-0.523,0.21-0.752
		c0.099-0.278,0.206-0.538,0.325-0.781c0.118-0.243,0.252-0.476,0.397-0.695c0.146-0.22,0.307-0.438,0.481-0.657
		c0.127-0.156,0.287-0.262,0.475-0.315c0.187-0.056,0.36-0.065,0.521-0.03c0.137,0.03,0.245,0.09,0.328,0.18
		c0.084,0.089,0.108,0.207,0.077,0.352c-0.01,0.043-0.024,0.088-0.047,0.137c-0.02,0.049-0.049,0.1-0.084,0.152
		c-0.109,0.164-0.226,0.361-0.349,0.59c-0.121,0.229-0.236,0.465-0.344,0.709c-0.11,0.243-0.207,0.484-0.293,0.725
		c-0.086,0.238-0.148,0.451-0.19,0.639c-0.021,0.098-0.034,0.193-0.041,0.287c-0.006,0.096-0.001,0.184,0.021,0.264
		c0.02,0.079,0.053,0.147,0.101,0.205c0.05,0.058,0.118,0.097,0.208,0.116c0.144,0.032,0.289-0.001,0.434-0.101
		c0.143-0.1,0.279-0.227,0.403-0.384s0.233-0.322,0.326-0.499c0.095-0.176,0.163-0.324,0.206-0.445l0.786-1.631
		c0.061-0.125,0.144-0.232,0.246-0.316c0.102-0.086,0.214-0.152,0.333-0.201c0.119-0.047,0.238-0.076,0.359-0.086
		c0.119-0.01,0.23-0.004,0.332,0.019c0.121,0.026,0.218,0.075,0.287,0.146c0.07,0.07,0.095,0.163,0.068,0.277
		c-0.007,0.033-0.023,0.073-0.045,0.118c-0.045,0.097-0.104,0.228-0.178,0.396c-0.075,0.168-0.157,0.358-0.246,0.572
		c-0.09,0.213-0.185,0.438-0.28,0.677c-0.099,0.239-0.192,0.476-0.285,0.714c-0.225,0.555-0.46,1.152-0.709,1.795
		c0.134-0.041,0.277-0.095,0.435-0.162c0.16-0.068,0.34-0.165,0.545-0.291c0.046-0.031,0.101-0.068,0.152-0.104
		c-0.002-0.054-0.004-0.106,0.013-0.185c0.021-0.095,0.064-0.176,0.128-0.244c0.063-0.071,0.133-0.131,0.211-0.179
		c0.076-0.048,0.15-0.09,0.223-0.122c0.072-0.033,0.129-0.061,0.164-0.08c0.261-0.141,0.473-0.256,0.637-0.352
		c0.165-0.096,0.307-0.184,0.428-0.266c0.119-0.082,0.229-0.166,0.334-0.256c0.104-0.086,0.226-0.189,0.366-0.311
		c0.14-0.121,0.312-0.268,0.513-0.441c0.203-0.176,0.463-0.392,0.781-0.648c0.066-0.059,0.138-0.115,0.215-0.166
		c0.077-0.055,0.159-0.099,0.248-0.134c0.086-0.037,0.179-0.061,0.279-0.074c0.099-0.013,0.203-0.007,0.317,0.018
		c0.187,0.042,0.328,0.094,0.419,0.157c0.093,0.063,0.156,0.129,0.19,0.197c0.032,0.069,0.047,0.137,0.041,0.203
		s-0.015,0.123-0.024,0.17c-0.021,0.094-0.082,0.188-0.18,0.284c-0.1,0.099-0.205,0.188-0.318,0.274s-0.219,0.164-0.317,0.233
		c-0.099,0.07-0.159,0.126-0.181,0.166c-0.027,0.122-0.041,0.232-0.046,0.336c-0.005,0.104-0.001,0.206,0.006,0.308
		c0.009,0.104,0.017,0.211,0.023,0.325c0.009,0.113,0.01,0.245,0.009,0.391c-0.001,0.147-0.014,0.313-0.037,0.501
		s-0.062,0.406-0.114,0.655c0.16-0.062,0.329-0.114,0.507-0.154c0.18-0.04,0.366-0.082,0.559-0.126
		c0.194-0.043,0.395-0.094,0.602-0.153c0.206-0.06,0.421-0.138,0.639-0.237L69.285,101.012z M81.076,103.684l-0.342,0.158
		c-0.187,0.084-0.376,0.17-0.568,0.254c-0.192,0.086-0.388,0.155-0.589,0.211c-0.2,0.057-0.403,0.094-0.614,0.111
		c-0.206,0.018-0.418,0.002-0.633-0.045s-0.359-0.242-0.438-0.585c-0.079-0.341-0.052-0.81,0.077-1.407
		c0.055-0.234,0.126-0.483,0.216-0.748c0.091-0.264,0.194-0.547,0.31-0.848l-0.094-0.021l-2.202,2.706
		c-0.114,0.143-0.226,0.231-0.335,0.269c-0.11,0.037-0.231,0.042-0.36,0.014c-0.16-0.035-0.281-0.097-0.363-0.188
		c-0.081-0.089-0.136-0.197-0.164-0.324c-0.028-0.125-0.034-0.265-0.021-0.415c0.006-0.053,0.02-0.106,0.025-0.159
		c-0.047,0.023-0.093,0.044-0.145,0.065c-0.24,0.101-0.494,0.186-0.765,0.256c-0.269,0.069-0.538,0.116-0.808,0.144
		s-0.519,0.016-0.745-0.033c-0.202-0.045-0.366-0.111-0.491-0.198c-0.127-0.087-0.222-0.19-0.285-0.312
		c-0.062-0.12-0.097-0.258-0.104-0.41c-0.003-0.155,0.012-0.32,0.049-0.496c0.057-0.246,0.146-0.525,0.275-0.838
		c0.129-0.314,0.271-0.637,0.433-0.967c0.155-0.332,0.319-0.66,0.487-0.988c0.167-0.326,0.319-0.629,0.454-0.906
		c0.05-0.095,0.122-0.17,0.22-0.225c0.1-0.053,0.205-0.091,0.317-0.113c0.114-0.023,0.229-0.033,0.345-0.029
		c0.115,0.004,0.217,0.014,0.307,0.035c0.164,0.035,0.27,0.09,0.316,0.162c0.044,0.074,0.054,0.162,0.034,0.264
		c-0.021,0.086-0.067,0.204-0.144,0.357c-0.072,0.154-0.161,0.326-0.266,0.518c-0.102,0.193-0.213,0.399-0.331,0.62
		c-0.117,0.224-0.233,0.444-0.343,0.667c-0.111,0.223-0.212,0.443-0.299,0.658c-0.088,0.217-0.153,0.414-0.191,0.594
		c-0.039,0.174-0.051,0.318-0.034,0.43s0.085,0.183,0.206,0.208c0.141,0.032,0.309,0.019,0.5-0.042
		c0.193-0.061,0.393-0.141,0.598-0.24c0.207-0.1,0.409-0.206,0.609-0.317c0.036-0.019,0.061-0.03,0.094-0.049
		c0.105-0.329,0.219-0.662,0.34-0.999c0.124-0.338,0.25-0.665,0.38-0.975c0.13-0.312,0.248-0.576,0.353-0.793
		c0.082-0.17,0.197-0.303,0.349-0.396c0.149-0.095,0.329-0.117,0.539-0.072c0.212,0.047,0.343,0.143,0.396,0.291
		c0.055,0.145,0.058,0.326,0.012,0.541c-0.014,0.059-0.035,0.136-0.07,0.232c-0.033,0.098-0.072,0.203-0.116,0.318
		c-0.043,0.115-0.091,0.234-0.137,0.357c-0.046,0.121-0.091,0.234-0.132,0.338c-0.042,0.104-0.077,0.193-0.106,0.271
		c-0.03,0.079-0.046,0.13-0.052,0.157l0.115,0.027c0.033-0.039,0.086-0.1,0.157-0.186c0.072-0.082,0.155-0.182,0.248-0.291
		c0.094-0.111,0.195-0.226,0.301-0.348s0.208-0.239,0.302-0.352c0.094-0.111,0.179-0.211,0.255-0.297s0.132-0.148,0.17-0.189
		c0.173-0.183,0.345-0.295,0.522-0.338c0.177-0.043,0.363-0.043,0.56-0.002c0.195,0.044,0.331,0.16,0.409,0.35
		c0.08,0.188,0.088,0.428,0.024,0.717c-0.009,0.043-0.033,0.113-0.074,0.211c-0.04,0.097-0.089,0.213-0.147,0.348
		c-0.06,0.134-0.121,0.281-0.191,0.441c-0.07,0.162-0.139,0.326-0.203,0.495c-0.066,0.171-0.128,0.339-0.183,0.506
		c-0.056,0.168-0.099,0.323-0.13,0.469c-0.053,0.243-0.066,0.446-0.041,0.617c0.025,0.169,0.103,0.268,0.232,0.296
		c0.059,0.012,0.13,0.011,0.214-0.008c0.083-0.02,0.175-0.047,0.274-0.084c0.102-0.038,0.206-0.083,0.313-0.137
		s0.216-0.109,0.321-0.169c0.246-0.137,0.51-0.296,0.786-0.478L81.076,103.684z M74.155,95.846c0.021-0.09,0.062-0.188,0.127-0.292
		c0.062-0.104,0.149-0.198,0.261-0.278c0.107-0.079,0.244-0.138,0.405-0.174c0.161-0.037,0.351-0.03,0.569,0.018
		c0.137,0.03,0.263,0.074,0.376,0.133c0.115,0.057,0.209,0.127,0.286,0.211c0.075,0.085,0.126,0.187,0.156,0.303
		c0.03,0.117,0.028,0.248-0.004,0.391c-0.029,0.134-0.078,0.257-0.149,0.372c-0.069,0.116-0.162,0.212-0.278,0.29
		c-0.115,0.076-0.25,0.13-0.404,0.158c-0.156,0.029-0.334,0.021-0.533-0.021c-0.343-0.076-0.578-0.213-0.706-0.41
		C74.132,96.348,74.097,96.113,74.155,95.846z M118.424,111.809c-0.283,0.133-0.604,0.248-0.955,0.343
		c-0.355,0.093-0.721,0.164-1.098,0.213c-0.377,0.048-0.752,0.069-1.124,0.063c-0.373-0.008-0.718-0.046-1.038-0.115
		c-0.229-0.051-0.439-0.121-0.63-0.207c-0.189-0.086-0.349-0.191-0.479-0.316c-0.129-0.125-0.226-0.271-0.286-0.44
		c-0.046-0.126-0.059-0.269-0.056-0.419c-0.113,0.037-0.229,0.076-0.351,0.109c-0.354,0.094-0.72,0.164-1.098,0.213
		c-0.376,0.048-0.751,0.068-1.123,0.062c-0.373-0.008-0.72-0.045-1.038-0.114c-0.231-0.052-0.441-0.118-0.63-0.206
		c-0.19-0.087-0.35-0.193-0.479-0.316c-0.131-0.126-0.228-0.271-0.288-0.441c-0.055-0.151-0.066-0.323-0.053-0.512
		c-0.058,0.025-0.113,0.058-0.172,0.083c-0.192,0.079-0.398,0.155-0.616,0.227c-0.218,0.069-0.443,0.126-0.676,0.167
		s-0.468,0.062-0.706,0.065c-0.24,0.003-0.477-0.022-0.713-0.073c-0.366-0.081-0.672-0.218-0.918-0.41
		c-0.245-0.193-0.435-0.422-0.57-0.687c-0.115-0.229-0.184-0.478-0.217-0.744c-0.111,0.077-0.219,0.159-0.332,0.228
		c-0.174,0.109-0.361,0.211-0.561,0.307c-0.198,0.095-0.401,0.174-0.609,0.236s-0.42,0.104-0.636,0.125
		c-0.214,0.02-0.425,0.006-0.632-0.038c-0.358-0.079-0.659-0.214-0.902-0.406c-0.241-0.192-0.429-0.421-0.564-0.683
		c-0.134-0.263-0.217-0.551-0.246-0.865c-0.028-0.311-0.009-0.627,0.06-0.941c0.051-0.227,0.125-0.459,0.228-0.693
		c0.054-0.125,0.129-0.239,0.195-0.359c-0.052-0.062-0.095-0.125-0.146-0.188c-0.168-0.201-0.332-0.391-0.497-0.572
		s-0.307-0.334-0.426-0.459l-0.062,0.055c0.064,0.251,0.097,0.508,0.099,0.771c0,0.264-0.024,0.512-0.075,0.742
		c-0.05,0.23-0.128,0.457-0.229,0.68c-0.104,0.223-0.225,0.432-0.369,0.631c-0.142,0.196-0.306,0.375-0.484,0.535
		c-0.182,0.162-0.377,0.293-0.584,0.395c-0.207,0.101-0.428,0.169-0.656,0.205c-0.229,0.037-0.462,0.027-0.699-0.023
		c-0.344-0.076-0.621-0.217-0.832-0.42s-0.367-0.443-0.471-0.721c-0.102-0.275-0.157-0.572-0.162-0.895
		c-0.002-0.074,0.008-0.15,0.01-0.225c-0.084,0.014-0.164,0.033-0.25,0.041c-0.169,0.014-0.335,0.003-0.498-0.033
		c-0.293-0.064-0.518-0.176-0.67-0.334c-0.154-0.158-0.26-0.346-0.325-0.562c-0.062-0.216-0.092-0.449-0.092-0.7
		c0.005-0.251,0.015-0.503,0.036-0.755l-0.091-0.021l-1.689,2.689c-0.087,0.141-0.167,0.255-0.239,0.343
		c-0.069,0.089-0.137,0.159-0.201,0.211c-0.063,0.052-0.127,0.083-0.192,0.097c-0.064,0.012-0.132,0.01-0.202-0.005
		c-0.16-0.036-0.281-0.099-0.363-0.188c-0.082-0.089-0.138-0.197-0.165-0.324c-0.016-0.076-0.011-0.164-0.013-0.248
		c-0.148,0.062-0.297,0.128-0.458,0.169c-0.233,0.062-0.474,0.099-0.72,0.112c-0.248,0.014-0.482-0.005-0.709-0.054
		c-0.027-0.007-0.061-0.018-0.101-0.035c-0.04-0.017-0.105-0.046-0.204-0.087c-0.096-0.043-0.236-0.102-0.419-0.176
		c-0.182-0.074-0.429-0.172-0.741-0.289l-0.024,0.106c-0.155,0.709-0.356,1.341-0.603,1.894c-0.248,0.553-0.516,1.012-0.804,1.379
		c-0.289,0.365-0.587,0.632-0.893,0.797c-0.307,0.166-0.598,0.219-0.876,0.158c-0.221-0.049-0.396-0.145-0.518-0.286
		c-0.126-0.142-0.213-0.315-0.258-0.521c-0.048-0.204-0.062-0.434-0.046-0.69c0.019-0.255,0.057-0.522,0.118-0.8
		c0.035-0.159,0.1-0.334,0.196-0.523c0.094-0.189,0.208-0.385,0.342-0.586c0.134-0.203,0.28-0.406,0.437-0.611
		c0.157-0.203,0.317-0.4,0.478-0.59c0.375-0.442,0.792-0.891,1.247-1.346c0.109-0.295,0.222-0.598,0.338-0.907
		c0.113-0.311,0.238-0.608,0.371-0.894c0.135-0.285,0.285-0.552,0.447-0.797c0.163-0.247,0.346-0.451,0.553-0.615
		c0.205-0.164,0.436-0.279,0.687-0.346c0.251-0.068,0.536-0.066,0.856,0.004c0.238,0.053,0.452,0.133,0.646,0.244
		c0.192,0.108,0.351,0.254,0.476,0.432c0.124,0.179,0.206,0.393,0.245,0.641c0.039,0.247,0.024,0.537-0.048,0.868
		c-0.06,0.265-0.155,0.514-0.289,0.743c-0.131,0.232-0.306,0.441-0.52,0.631c-0.217,0.189-0.474,0.355-0.772,0.496
		s-0.641,0.251-1.025,0.33l0.008,0.131c0.394,0.087,0.76,0.126,1.103,0.119c0.341-0.007,0.657-0.048,0.948-0.123
		c0.284-0.072,0.547-0.172,0.793-0.297c0.062-0.195,0.127-0.395,0.204-0.605c0.089-0.246,0.184-0.498,0.287-0.75
		c0.103-0.254,0.205-0.494,0.308-0.721c0.105-0.227,0.202-0.436,0.297-0.621c0.095-0.188,0.18-0.341,0.261-0.459
		c0.05-0.08,0.095-0.141,0.138-0.184c0.044-0.045,0.088-0.076,0.135-0.097c0.049-0.021,0.103-0.028,0.166-0.024
		c0.062,0.003,0.139,0.016,0.229,0.034c0.101,0.022,0.178,0.044,0.234,0.067c0.053,0.021,0.09,0.055,0.108,0.098
		c0.02,0.043,0.026,0.1,0.016,0.172c-0.01,0.07-0.028,0.168-0.054,0.288c-0.031,0.145-0.07,0.319-0.115,0.524
		c-0.045,0.204-0.086,0.406-0.122,0.607l0.063,0.015c0.113-0.14,0.24-0.294,0.379-0.467c0.141-0.171,0.293-0.326,0.459-0.466
		s0.343-0.25,0.531-0.328c0.189-0.078,0.392-0.094,0.605-0.047c0.074,0.016,0.145,0.045,0.208,0.084
		c0.062,0.041,0.118,0.09,0.161,0.148c0.041,0.061,0.07,0.127,0.088,0.201c0.016,0.075,0.015,0.156-0.005,0.242
		c-0.014,0.066-0.044,0.156-0.09,0.271c-0.047,0.114-0.094,0.235-0.147,0.361c-0.049,0.124-0.101,0.247-0.147,0.366
		c-0.046,0.118-0.078,0.218-0.097,0.3c-0.029,0.14-0.044,0.261-0.037,0.36c0.008,0.099,0.028,0.184,0.061,0.249
		c0.032,0.066,0.073,0.117,0.125,0.153c0.052,0.035,0.109,0.061,0.17,0.074c0.161,0.036,0.338,0.035,0.522,0.007
		c0.082-0.222,0.178-0.434,0.296-0.628c0.21-0.344,0.467-0.627,0.767-0.85s0.642-0.374,1.023-0.456
		c0.382-0.081,0.79-0.075,1.222,0.021c0.371,0.081,0.706,0.215,1.003,0.402c0.299,0.186,0.568,0.405,0.809,0.661
		c0.24,0.255,0.455,0.534,0.646,0.837c0.012,0.025,0.023,0.05,0.038,0.073c0.068-0.077,0.121-0.163,0.193-0.235
		c0.182-0.186,0.379-0.339,0.593-0.462c0.212-0.124,0.438-0.208,0.678-0.257c0.239-0.047,0.49-0.041,0.752,0.015
		c0.222,0.05,0.421,0.129,0.594,0.239c0.174,0.108,0.314,0.24,0.423,0.389c0.109,0.15,0.181,0.318,0.222,0.5
		c0.04,0.184,0.039,0.37-0.002,0.561c-0.031,0.133-0.076,0.26-0.139,0.381c-0.064,0.12-0.143,0.227-0.232,0.314
		c-0.091,0.088-0.192,0.154-0.304,0.193c-0.111,0.041-0.227,0.049-0.349,0.021c-0.184-0.04-0.291-0.115-0.327-0.226
		c-0.034-0.108-0.034-0.249,0.004-0.421c0.017-0.071,0.035-0.145,0.058-0.221c0.021-0.076,0.042-0.147,0.056-0.209
		c0.02-0.094,0.028-0.174,0.021-0.24c-0.007-0.067-0.042-0.108-0.108-0.123c-0.16-0.033-0.305-0.027-0.434,0.025
		c-0.131,0.051-0.25,0.129-0.354,0.233c-0.108,0.106-0.203,0.23-0.282,0.374c-0.083,0.145-0.152,0.289-0.212,0.436
		c-0.062,0.146-0.111,0.288-0.149,0.424c-0.037,0.137-0.067,0.252-0.088,0.346c-0.032,0.141-0.051,0.289-0.059,0.447
		c-0.009,0.158,0.009,0.309,0.052,0.449c0.042,0.143,0.113,0.27,0.218,0.379c0.102,0.111,0.248,0.188,0.439,0.23
		c0.188,0.04,0.406,0.027,0.659-0.037c0.251-0.066,0.511-0.161,0.776-0.285c0.267-0.127,0.526-0.271,0.779-0.438
		c0.033-0.021,0.061-0.041,0.091-0.062c0.004-0.017,0.005-0.033,0.009-0.051c0.048-0.219,0.12-0.443,0.217-0.68
		c0.096-0.232,0.214-0.458,0.353-0.674c0.14-0.215,0.3-0.412,0.479-0.596c0.178-0.184,0.374-0.338,0.588-0.461
		c0.212-0.121,0.439-0.207,0.682-0.254c0.24-0.047,0.496-0.041,0.764,0.018c0.221,0.047,0.416,0.128,0.588,0.238
		c0.171,0.111,0.312,0.247,0.424,0.404c0.11,0.156,0.184,0.334,0.223,0.529c0.038,0.197,0.031,0.406-0.015,0.629
		c-0.053,0.242-0.167,0.472-0.34,0.688c-0.171,0.215-0.387,0.406-0.644,0.574c-0.259,0.17-0.551,0.305-0.879,0.409
		c-0.326,0.103-0.669,0.165-1.03,0.185c0.036,0.118,0.074,0.218,0.115,0.301c0.041,0.082,0.085,0.149,0.137,0.201
		c0.051,0.053,0.104,0.094,0.166,0.123c0.06,0.029,0.128,0.053,0.202,0.069c0.234,0.051,0.49,0.059,0.771,0.021
		c0.281-0.035,0.557-0.098,0.836-0.184c0.275-0.086,0.542-0.188,0.797-0.307c0.255-0.117,0.473-0.233,0.658-0.348l0.025,0.041
		c0.036-0.022,0.081-0.047,0.115-0.066c0.163-0.094,0.307-0.184,0.426-0.266c0.121-0.08,0.231-0.166,0.336-0.254
		c0.102-0.086,0.225-0.191,0.365-0.312c0.142-0.119,0.312-0.267,0.514-0.441c0.202-0.174,0.463-0.391,0.78-0.648
		c0.067-0.059,0.139-0.113,0.216-0.166c0.076-0.053,0.159-0.098,0.246-0.133c0.088-0.037,0.182-0.061,0.279-0.074
		c0.1-0.014,0.205-0.007,0.317,0.019c0.187,0.04,0.329,0.093,0.422,0.156c0.091,0.063,0.155,0.13,0.188,0.198
		c0.035,0.068,0.048,0.135,0.042,0.202c-0.007,0.066-0.015,0.122-0.025,0.169c-0.021,0.094-0.079,0.189-0.179,0.286
		s-0.205,0.188-0.319,0.274c-0.112,0.084-0.218,0.162-0.316,0.232c-0.1,0.07-0.16,0.127-0.182,0.166
		c-0.026,0.121-0.041,0.232-0.045,0.336c-0.006,0.104-0.004,0.207,0.005,0.309c0.008,0.102,0.017,0.211,0.023,0.324
		c0.008,0.113,0.011,0.244,0.01,0.393c-0.002,0.146-0.014,0.312-0.037,0.5s-0.061,0.404-0.115,0.655
		c0.16-0.062,0.33-0.114,0.509-0.155c0.179-0.039,0.364-0.082,0.558-0.125c0.038-0.01,0.078-0.021,0.113-0.029
		c0.043-0.024,0.088-0.052,0.129-0.071c0.074-0.033,0.129-0.061,0.166-0.08c0.26-0.14,0.472-0.257,0.637-0.353
		c0.162-0.094,0.304-0.182,0.424-0.264c0.121-0.082,0.232-0.167,0.335-0.254c0.104-0.089,0.227-0.193,0.368-0.313
		c0.141-0.12,0.312-0.267,0.514-0.441c0.201-0.175,0.461-0.39,0.78-0.647c0.066-0.059,0.136-0.116,0.214-0.168
		c0.076-0.053,0.16-0.097,0.248-0.133c0.086-0.036,0.182-0.061,0.279-0.073c0.1-0.014,0.204-0.007,0.317,0.019
		c0.188,0.04,0.327,0.092,0.42,0.156c0.093,0.062,0.155,0.129,0.189,0.199c0.034,0.066,0.049,0.135,0.041,0.201
		c-0.005,0.065-0.015,0.123-0.024,0.17c-0.02,0.092-0.082,0.188-0.18,0.285c-0.1,0.096-0.205,0.188-0.318,0.273
		c-0.111,0.085-0.219,0.164-0.318,0.232c-0.098,0.07-0.158,0.127-0.179,0.167c-0.026,0.122-0.042,0.231-0.047,0.336
		c-0.005,0.103-0.004,0.206,0.007,0.308c0.007,0.104,0.016,0.211,0.023,0.325s0.01,0.243,0.008,0.392
		c-0.001,0.146-0.014,0.312-0.036,0.5c-0.023,0.188-0.061,0.406-0.116,0.656c0.161-0.063,0.33-0.115,0.51-0.155
		c0.179-0.04,0.365-0.083,0.558-0.126c0.194-0.043,0.396-0.094,0.601-0.152c0.206-0.061,0.42-0.139,0.639-0.238L118.424,111.809z
		 M131.042,94.996l-0.568,0.263c-0.311,0.144-0.626,0.286-0.948,0.427c-0.32,0.141-0.647,0.258-0.981,0.352
		c-0.333,0.094-0.674,0.155-1.021,0.184c-0.35,0.029-0.7,0.006-1.057-0.072c-0.357-0.08-0.603-0.403-0.732-0.974
		c-0.13-0.571-0.085-1.354,0.132-2.349c0.086-0.39,0.205-0.805,0.357-1.246c0.15-0.439,0.322-0.912,0.514-1.414l-0.156-0.035
		l-3.669,4.51c-0.188,0.238-0.374,0.389-0.558,0.449c-0.186,0.062-0.385,0.07-0.6,0.023c-0.265-0.059-0.469-0.163-0.605-0.312
		c-0.137-0.15-0.23-0.33-0.274-0.541c-0.046-0.212-0.057-0.441-0.03-0.691c0.022-0.25,0.063-0.506,0.12-0.766
		c0.095-0.43,0.23-0.92,0.406-1.471c0.174-0.551,0.366-1.109,0.572-1.674c0.012-0.03,0.021-0.057,0.032-0.086
		c-0.229-0.324-0.475-0.645-0.736-0.963c-0.279-0.334-0.555-0.652-0.83-0.954c-0.274-0.302-0.51-0.558-0.711-0.765l-0.102,0.09
		c0.104,0.42,0.16,0.85,0.162,1.288c0.002,0.44-0.041,0.853-0.123,1.236c-0.084,0.384-0.213,0.761-0.383,1.133
		c-0.171,0.372-0.375,0.722-0.613,1.05c-0.24,0.33-0.51,0.628-0.81,0.896c-0.303,0.268-0.625,0.486-0.973,0.654
		c-0.348,0.17-0.712,0.284-1.093,0.343c-0.381,0.06-0.77,0.046-1.166-0.041c-0.572-0.126-1.033-0.359-1.386-0.698
		c-0.351-0.34-0.611-0.739-0.785-1.199c-0.024-0.068-0.033-0.142-0.058-0.211c-0.08,0.037-0.153,0.072-0.24,0.109
		c-0.403,0.168-0.827,0.309-1.274,0.424c-0.448,0.117-0.897,0.197-1.348,0.242c-0.448,0.044-0.862,0.025-1.239-0.059
		c-0.338-0.073-0.612-0.184-0.822-0.328s-0.369-0.316-0.473-0.518c-0.106-0.201-0.163-0.43-0.172-0.688
		c-0.006-0.218,0.02-0.452,0.062-0.696c-0.427,0.136-0.833,0.263-1.193,0.371c-0.546,0.167-1.031,0.298-1.45,0.397
		c-0.421,0.098-0.79,0.16-1.104,0.188c-0.317,0.025-0.595,0.011-0.837-0.041c-0.492-0.109-0.896-0.354-1.207-0.736
		c-0.312-0.381-0.531-0.881-0.662-1.5c-0.093-0.443-0.139-0.942-0.14-1.492c-0.462,0.381-0.931,0.735-1.415,1.033
		c-0.292,0.181-0.604,0.352-0.936,0.51c-0.331,0.159-0.67,0.291-1.016,0.395c-0.346,0.105-0.701,0.175-1.059,0.209
		c-0.357,0.033-0.71,0.012-1.054-0.064c-0.6-0.131-1.101-0.357-1.503-0.676c-0.404-0.322-0.717-0.701-0.94-1.138
		c-0.041-0.083-0.064-0.174-0.101-0.259c-0.063,0.024-0.117,0.051-0.18,0.073c-0.295,0.106-0.604,0.202-0.924,0.289
		c-0.322,0.085-0.642,0.153-0.96,0.202c-0.317,0.051-0.626,0.076-0.928,0.083c-0.302,0.006-0.575-0.02-0.821-0.073
		c-0.248-0.055-0.448-0.15-0.603-0.285c-0.154-0.137-0.274-0.307-0.362-0.51c-0.089-0.203-0.148-0.438-0.185-0.699
		c-0.033-0.264-0.052-0.552-0.051-0.865c-0.301,0.254-0.611,0.482-0.926,0.682c-0.316,0.199-0.632,0.363-0.94,0.493
		c-0.312,0.128-0.619,0.218-0.916,0.263c-0.302,0.047-0.582,0.041-0.842-0.016c-0.215-0.047-0.408-0.127-0.581-0.24
		s-0.313-0.27-0.423-0.471s-0.176-0.449-0.2-0.744c-0.023-0.295,0.011-0.647,0.1-1.057c0.063-0.293,0.164-0.632,0.288-1.008
		c-0.213,0.045-0.426,0.088-0.646,0.105c-0.281,0.023-0.558,0.007-0.832-0.055c-0.486-0.106-0.86-0.292-1.113-0.557
		c-0.256-0.264-0.436-0.576-0.541-0.936c-0.104-0.361-0.156-0.751-0.152-1.17c0.004-0.417,0.024-0.838,0.062-1.258l-0.155-0.035
		l-2.815,4.484c-0.147,0.232-0.279,0.423-0.396,0.571c-0.118,0.147-0.232,0.265-0.339,0.349c-0.106,0.086-0.215,0.139-0.321,0.162
		c-0.105,0.02-0.218,0.018-0.336-0.008c-0.267-0.061-0.468-0.164-0.605-0.312c-0.138-0.15-0.229-0.33-0.275-0.542
		c-0.045-0.211-0.055-0.44-0.031-0.692c0.023-0.239,0.063-0.486,0.117-0.736c-0.562,0.18-1.083,0.343-1.537,0.48
		c-0.549,0.167-1.033,0.299-1.453,0.396c-0.419,0.1-0.788,0.162-1.104,0.188c-0.316,0.027-0.594,0.012-0.834-0.041
		c-0.493-0.107-0.896-0.354-1.209-0.734c-0.31-0.383-0.53-0.883-0.659-1.5c-0.033-0.145-0.057-0.296-0.076-0.453
		c-0.461,0.215-0.976,0.4-1.548,0.551c-0.589,0.158-1.197,0.275-1.825,0.355c-0.629,0.08-1.251,0.115-1.872,0.105
		c-0.623-0.011-1.2-0.074-1.732-0.192c-0.385-0.083-0.734-0.198-1.051-0.343c-0.315-0.145-0.581-0.32-0.798-0.527
		c-0.217-0.209-0.377-0.453-0.478-0.734c-0.052-0.141-0.083-0.291-0.099-0.452c-0.148,0.067-0.294,0.134-0.444,0.2
		c-0.32,0.142-0.646,0.258-0.982,0.352c-0.334,0.094-0.674,0.154-1.021,0.186c-0.349,0.028-0.7,0.003-1.056-0.074
		c-0.36-0.079-0.603-0.404-0.733-0.974c-0.13-0.571-0.086-1.354,0.132-2.349c0.087-0.39,0.207-0.805,0.356-1.245
		c0.151-0.44,0.323-0.913,0.515-1.415l-0.156-0.035l-3.667,4.51c-0.189,0.238-0.376,0.389-0.559,0.449
		c-0.186,0.062-0.384,0.07-0.6,0.023c-0.266-0.059-0.468-0.164-0.605-0.312c-0.139-0.149-0.231-0.33-0.275-0.541
		c-0.045-0.211-0.056-0.441-0.029-0.691c0.021-0.252,0.063-0.506,0.12-0.766c0.095-0.43,0.23-0.92,0.405-1.471
		s0.366-1.107,0.571-1.674c0.013-0.03,0.023-0.057,0.034-0.086c-0.23-0.324-0.474-0.645-0.737-0.962
		c-0.278-0.335-0.555-0.651-0.829-0.954s-0.511-0.557-0.711-0.766l-0.101,0.092c0.104,0.418,0.158,0.847,0.161,1.287
		c0.001,0.439-0.039,0.852-0.126,1.236c-0.082,0.382-0.209,0.76-0.38,1.133c-0.171,0.37-0.376,0.721-0.614,1.05
		c-0.24,0.329-0.51,0.628-0.811,0.896s-0.625,0.486-0.972,0.655c-0.346,0.169-0.712,0.282-1.094,0.343
		c-0.38,0.06-0.77,0.045-1.165-0.042c-0.57-0.124-1.035-0.358-1.386-0.696c-0.352-0.342-0.613-0.74-0.784-1.201
		c-0.1-0.271-0.166-0.557-0.209-0.853c-0.104,0.069-0.208,0.15-0.314,0.217c-0.293,0.181-0.605,0.351-0.937,0.509
		c-0.33,0.159-0.669,0.291-1.017,0.395c-0.348,0.105-0.699,0.174-1.057,0.208c-0.359,0.033-0.711,0.013-1.055-0.063
		c-0.599-0.131-1.1-0.356-1.503-0.678c-0.402-0.32-0.716-0.699-0.94-1.137s-0.361-0.918-0.41-1.439s-0.014-1.046,0.102-1.572
		c0.081-0.377,0.207-0.761,0.375-1.154c0.168-0.393,0.372-0.769,0.611-1.129c0.238-0.359,0.51-0.693,0.814-1.002
		c0.299-0.309,0.632-0.564,0.984-0.77c0.355-0.205,0.734-0.347,1.133-0.426s0.816-0.07,1.252,0.023
		c0.37,0.082,0.699,0.215,0.991,0.398c0.29,0.183,0.524,0.399,0.704,0.65c0.182,0.251,0.305,0.527,0.368,0.832
		c0.068,0.305,0.067,0.616-0.004,0.936c-0.049,0.221-0.126,0.432-0.231,0.633s-0.232,0.377-0.387,0.524
		c-0.15,0.147-0.32,0.255-0.505,0.322c-0.186,0.069-0.378,0.081-0.58,0.037c-0.306-0.067-0.487-0.192-0.547-0.376
		c-0.058-0.184-0.058-0.419,0.007-0.704c0.025-0.116,0.058-0.239,0.097-0.367c0.037-0.13,0.067-0.244,0.091-0.349
		c0.035-0.155,0.047-0.289,0.037-0.399c-0.009-0.112-0.071-0.179-0.18-0.204c-0.268-0.059-0.51-0.045-0.725,0.041
		c-0.215,0.085-0.414,0.215-0.592,0.391c-0.178,0.175-0.335,0.383-0.469,0.622c-0.135,0.24-0.252,0.481-0.354,0.726
		c-0.101,0.244-0.183,0.479-0.247,0.707s-0.113,0.42-0.147,0.576c-0.052,0.233-0.085,0.482-0.099,0.744
		c-0.012,0.264,0.017,0.514,0.087,0.751s0.19,0.447,0.362,0.632c0.17,0.184,0.415,0.311,0.734,0.381
		c0.312,0.068,0.677,0.047,1.096-0.061c0.42-0.109,0.853-0.269,1.295-0.478c0.401-0.188,0.791-0.406,1.171-0.647
		c0.024-0.174,0.046-0.347,0.083-0.519c0.157-0.714,0.412-1.359,0.763-1.934c0.352-0.573,0.775-1.046,1.277-1.416
		c0.499-0.37,1.068-0.624,1.706-0.761c0.635-0.135,1.315-0.125,2.035,0.035c0.618,0.135,1.177,0.357,1.674,0.669
		c0.498,0.31,0.946,0.677,1.349,1.104c0.399,0.425,0.757,0.891,1.071,1.396c0.111,0.178,0.215,0.359,0.317,0.539
		c0.023-0.055,0.045-0.115,0.066-0.168c0.217-0.519,0.412-0.959,0.587-1.322c0.138-0.284,0.331-0.504,0.579-0.66
		c0.249-0.157,0.55-0.197,0.9-0.119c0.353,0.076,0.572,0.237,0.662,0.482c0.09,0.244,0.094,0.546,0.016,0.902
		c-0.021,0.098-0.061,0.227-0.116,0.391c-0.056,0.16-0.119,0.337-0.193,0.529c-0.072,0.191-0.148,0.389-0.227,0.594
		c-0.079,0.203-0.154,0.393-0.223,0.564s-0.126,0.322-0.175,0.452c-0.049,0.129-0.078,0.216-0.089,0.262l0.193,0.042
		c0.056-0.062,0.143-0.164,0.263-0.305c0.119-0.142,0.258-0.304,0.415-0.487c0.155-0.184,0.323-0.377,0.499-0.579
		c0.178-0.203,0.344-0.398,0.502-0.585c0.157-0.188,0.299-0.353,0.426-0.493c0.127-0.145,0.222-0.25,0.283-0.317
		c0.288-0.306,0.576-0.493,0.871-0.565s0.605-0.072,0.932,0c0.325,0.071,0.553,0.266,0.684,0.58c0.133,0.314,0.146,0.713,0.04,1.195
		c-0.016,0.07-0.058,0.188-0.123,0.35c-0.066,0.162-0.149,0.356-0.246,0.58c-0.097,0.225-0.203,0.471-0.32,0.738
		c-0.116,0.267-0.229,0.542-0.339,0.824c-0.111,0.281-0.211,0.563-0.302,0.844c-0.095,0.279-0.165,0.54-0.22,0.779
		c-0.088,0.402-0.109,0.746-0.066,1.027c0.043,0.283,0.172,0.448,0.387,0.496c0.098,0.02,0.217,0.016,0.356-0.016
		c0.097-0.021,0.207-0.059,0.316-0.096c0.005-0.023,0.005-0.041,0.011-0.066c0.035-0.156,0.105-0.293,0.212-0.408
		c0.107-0.116,0.225-0.215,0.351-0.295c0.128-0.082,0.252-0.15,0.374-0.206c0.12-0.056,0.211-0.1,0.273-0.134
		c0.433-0.232,0.785-0.427,1.058-0.585c0.274-0.157,0.513-0.306,0.711-0.442c0.201-0.137,0.389-0.277,0.56-0.424
		c0.172-0.146,0.375-0.32,0.609-0.521c0.233-0.2,0.521-0.446,0.856-0.737c0.336-0.29,0.771-0.65,1.301-1.078
		c0.111-0.099,0.231-0.191,0.357-0.279c0.13-0.088,0.266-0.162,0.412-0.221c0.145-0.061,0.303-0.102,0.466-0.123
		c0.167-0.021,0.342-0.012,0.53,0.029c0.313,0.068,0.547,0.156,0.7,0.261c0.152,0.106,0.259,0.217,0.315,0.331
		c0.056,0.115,0.08,0.227,0.07,0.338c-0.013,0.109-0.025,0.203-0.043,0.281c-0.034,0.155-0.134,0.314-0.299,0.476
		c-0.164,0.161-0.341,0.313-0.53,0.456c-0.187,0.143-0.364,0.273-0.53,0.39c-0.164,0.116-0.265,0.21-0.3,0.276
		c-0.043,0.201-0.071,0.389-0.077,0.561c-0.008,0.172-0.004,0.344,0.01,0.514c0.015,0.17,0.027,0.35,0.039,0.54
		c0.013,0.19,0.018,0.409,0.016,0.652c-0.002,0.245-0.022,0.523-0.061,0.835c-0.038,0.312-0.104,0.678-0.193,1.093
		c0.268-0.104,0.552-0.19,0.849-0.259c0.296-0.066,0.608-0.137,0.929-0.209c0.322-0.072,0.658-0.158,1.003-0.256
		c0.173-0.049,0.351-0.107,0.528-0.174c0.06-0.758,0.179-1.576,0.375-2.475c0.086-0.391,0.193-0.803,0.324-1.238
		c0.128-0.434,0.271-0.863,0.426-1.285c-0.19-0.068-0.335-0.127-0.438-0.172c-0.103-0.047-0.211-0.095-0.328-0.145
		c-0.113-0.049-0.262-0.107-0.44-0.174c-0.181-0.067-0.441-0.158-0.783-0.273c-0.153-0.053-0.264-0.119-0.337-0.192
		c-0.072-0.073-0.119-0.151-0.142-0.235s-0.028-0.166-0.018-0.248c0.011-0.084,0.024-0.154,0.038-0.213
		c0.027-0.129,0.112-0.215,0.254-0.256c0.143-0.04,0.316-0.055,0.52-0.043c0.207,0.01,0.429,0.039,0.666,0.09
		c0.239,0.049,0.465,0.1,0.682,0.154c0.216,0.055,0.41,0.102,0.582,0.143c0.171,0.041,0.29,0.062,0.358,0.064
		c0.371-0.839,0.778-1.641,1.229-2.404c0.449-0.763,0.913-1.429,1.391-1.995c0.474-0.565,0.951-1,1.434-1.3
		c0.481-0.299,0.939-0.4,1.375-0.305c0.281,0.061,0.519,0.195,0.714,0.402c0.197,0.207,0.349,0.457,0.454,0.753
		s0.162,0.626,0.176,0.994c0.01,0.367-0.025,0.738-0.108,1.116c-0.068,0.318-0.188,0.645-0.359,0.98
		c-0.168,0.334-0.37,0.667-0.607,1c-0.236,0.333-0.501,0.666-0.796,0.996c-0.294,0.33-0.6,0.654-0.914,0.975
		c0.059,0.02,0.153,0.045,0.289,0.078c0.136,0.034,0.293,0.072,0.47,0.119c0.178,0.045,0.37,0.096,0.574,0.152
		c0.206,0.055,0.406,0.107,0.601,0.157c0.193,0.049,0.373,0.095,0.542,0.138c0.167,0.045,0.306,0.082,0.413,0.113
		c0.13,0.035,0.21,0.121,0.24,0.256c0.032,0.137,0.027,0.299-0.014,0.489c-0.05,0.226-0.156,0.398-0.316,0.512
		c-0.162,0.115-0.322,0.155-0.477,0.121l-3.744-0.823c-0.247,0.219-0.492,0.432-0.74,0.641c-0.248,0.207-0.473,0.395-0.682,0.561
		c-0.114,0.397-0.224,0.789-0.329,1.174c-0.042,0.169-0.088,0.341-0.134,0.518c-0.046,0.178-0.092,0.354-0.137,0.527
		s-0.086,0.343-0.126,0.504c-0.038,0.162-0.072,0.312-0.103,0.449c-0.078,0.35-0.109,0.652-0.098,0.908
		c0.012,0.254,0.064,0.471,0.154,0.651c0.089,0.181,0.216,0.323,0.379,0.431c0.165,0.108,0.355,0.188,0.578,0.235
		c0.136,0.03,0.314,0.035,0.532,0.015c0.22-0.02,0.463-0.061,0.733-0.12c0.268-0.062,0.555-0.14,0.859-0.237
		c0.303-0.096,0.608-0.207,0.912-0.334c0.304-0.129,0.6-0.268,0.883-0.42c0.257-0.136,0.491-0.284,0.712-0.438
		c0.11-0.293,0.22-0.586,0.342-0.886c0.171-0.421,0.341-0.822,0.515-1.2c0.17-0.379,0.336-0.724,0.492-1.036
		c0.157-0.313,0.303-0.567,0.433-0.763c0.085-0.133,0.161-0.234,0.231-0.308c0.072-0.074,0.146-0.126,0.225-0.161
		c0.08-0.033,0.171-0.047,0.275-0.041c0.104,0.007,0.23,0.025,0.379,0.059c0.172,0.036,0.301,0.074,0.391,0.111
		c0.092,0.036,0.152,0.09,0.186,0.162c0.031,0.072,0.04,0.168,0.021,0.286c-0.014,0.119-0.044,0.28-0.089,0.481
		c-0.052,0.24-0.117,0.531-0.191,0.873c-0.075,0.341-0.142,0.68-0.203,1.014l0.109,0.023c0.185-0.231,0.396-0.49,0.629-0.777
		c0.234-0.285,0.489-0.545,0.765-0.777s0.571-0.414,0.885-0.546c0.316-0.132,0.653-0.159,1.01-0.08
		c0.125,0.027,0.238,0.075,0.348,0.143c0.108,0.067,0.197,0.151,0.268,0.247c0.07,0.099,0.12,0.21,0.146,0.335
		c0.028,0.125,0.026,0.259-0.007,0.402c-0.023,0.11-0.072,0.262-0.149,0.452c-0.077,0.193-0.158,0.393-0.245,0.601
		c-0.087,0.21-0.169,0.413-0.246,0.61c-0.077,0.199-0.132,0.365-0.162,0.501c-0.051,0.234-0.069,0.435-0.059,0.601
		s0.044,0.305,0.099,0.416c0.052,0.109,0.123,0.195,0.21,0.255c0.084,0.06,0.18,0.101,0.282,0.123
		c0.292,0.065,0.61,0.066,0.95,0.005c0.207-0.038,0.394-0.1,0.586-0.154c0.153-0.382,0.314-0.781,0.491-1.205
		c0.033-0.094,0.086-0.219,0.158-0.377c0.072-0.159,0.161-0.329,0.265-0.51c0.105-0.182,0.226-0.363,0.36-0.545
		c0.136-0.182,0.282-0.34,0.44-0.476c0.16-0.135,0.335-0.236,0.522-0.304c0.189-0.068,0.388-0.082,0.598-0.043
		c0.341,0.09,0.58,0.186,0.713,0.295c0.133,0.106,0.188,0.217,0.163,0.326c-0.136,0.332-0.281,0.701-0.442,1.109
		s-0.324,0.818-0.491,1.232c-0.166,0.412-0.325,0.814-0.48,1.207c-0.154,0.393-0.294,0.74-0.414,1.049
		c-0.12,0.307-0.219,0.555-0.293,0.744c-0.07,0.189-0.107,0.285-0.108,0.291c-0.025,0.119-0.04,0.232-0.04,0.344
		c-0.001,0.113,0.012,0.217,0.039,0.312s0.07,0.175,0.131,0.243s0.139,0.113,0.235,0.134c0.144,0.03,0.3,0.026,0.464-0.015
		c0.167-0.042,0.332-0.119,0.496-0.23c0.164-0.109,0.32-0.256,0.469-0.438c0.149-0.182,0.278-0.397,0.388-0.646l2.054-4.742
		c0.067-0.147,0.229-0.25,0.481-0.309c0.256-0.056,0.528-0.051,0.821,0.014c0.331,0.072,0.582,0.188,0.751,0.348
		s0.234,0.332,0.194,0.514c-0.039,0.176-0.112,0.41-0.216,0.703c-0.105,0.293-0.228,0.615-0.37,0.962
		c-0.141,0.347-0.29,0.705-0.446,1.073c-0.155,0.368-0.302,0.709-0.436,1.029c-0.134,0.316-0.249,0.598-0.343,0.838
		c-0.094,0.242-0.15,0.412-0.172,0.51c-0.04,0.182-0.074,0.35-0.102,0.504s-0.036,0.291-0.028,0.413
		c0.007,0.12,0.037,0.221,0.092,0.296c0.056,0.077,0.147,0.13,0.276,0.158c0.144,0.031,0.326,0.034,0.547,0.008
		c0.22-0.027,0.458-0.074,0.716-0.145c0.257-0.069,0.522-0.154,0.798-0.255c0.002-0.001,0.004-0.001,0.006-0.001
		c0.001-0.356,0.027-0.713,0.109-1.072c0.082-0.377,0.206-0.762,0.375-1.154c0.168-0.393,0.37-0.77,0.611-1.127
		c0.238-0.361,0.508-0.695,0.812-1.003c0.302-0.31,0.631-0.565,0.986-0.771c0.354-0.205,0.732-0.347,1.131-0.426
		s0.816-0.071,1.252,0.024c0.371,0.081,0.701,0.214,0.991,0.397c0.291,0.184,0.526,0.4,0.705,0.65
		c0.183,0.25,0.304,0.529,0.37,0.833c0.065,0.304,0.063,0.615-0.008,0.935c-0.047,0.22-0.125,0.431-0.229,0.634
		c-0.105,0.2-0.233,0.375-0.387,0.522c-0.15,0.147-0.321,0.256-0.505,0.323c-0.187,0.069-0.379,0.081-0.582,0.036
		c-0.305-0.067-0.486-0.191-0.545-0.375c-0.058-0.184-0.056-0.418,0.006-0.704c0.025-0.117,0.058-0.239,0.097-0.368
		c0.04-0.127,0.069-0.243,0.092-0.348c0.034-0.155,0.047-0.289,0.037-0.4s-0.07-0.179-0.181-0.202
		c-0.267-0.06-0.508-0.046-0.723,0.039c-0.218,0.087-0.416,0.216-0.594,0.392c-0.179,0.176-0.335,0.383-0.469,0.624
		c-0.135,0.238-0.252,0.479-0.353,0.724c-0.104,0.243-0.185,0.479-0.248,0.707c-0.064,0.229-0.114,0.42-0.147,0.576
		c-0.051,0.233-0.083,0.482-0.098,0.746c-0.013,0.262,0.016,0.511,0.086,0.748c0.07,0.238,0.19,0.448,0.362,0.633
		c0.17,0.184,0.416,0.311,0.734,0.381c0.313,0.067,0.678,0.048,1.097-0.061c0.419-0.109,0.852-0.269,1.295-0.477
		c0.446-0.211,0.879-0.452,1.301-0.728c0.414-0.271,0.775-0.532,1.088-0.785c0.07-0.53,0.16-1.081,0.289-1.672
		c0.085-0.391,0.194-0.804,0.324-1.237c0.129-0.435,0.271-0.865,0.425-1.287c-0.189-0.068-0.334-0.125-0.438-0.173
		c-0.102-0.046-0.21-0.094-0.324-0.142c-0.117-0.05-0.265-0.107-0.444-0.174c-0.179-0.067-0.439-0.159-0.783-0.275
		c-0.15-0.053-0.264-0.117-0.335-0.191c-0.072-0.074-0.12-0.152-0.145-0.236c-0.021-0.084-0.026-0.166-0.015-0.248
		c0.012-0.084,0.023-0.154,0.035-0.211c0.029-0.131,0.114-0.217,0.256-0.256c0.141-0.041,0.314-0.056,0.521-0.044
		c0.205,0.009,0.427,0.04,0.664,0.089c0.238,0.049,0.466,0.102,0.683,0.154c0.217,0.055,0.41,0.104,0.582,0.143
		c0.171,0.042,0.29,0.062,0.359,0.064c0.368-0.838,0.775-1.64,1.229-2.404c0.449-0.762,0.913-1.428,1.388-1.992
		c0.476-0.567,0.953-1.002,1.436-1.301c0.481-0.3,0.94-0.401,1.376-0.306c0.279,0.061,0.518,0.194,0.715,0.401
		c0.196,0.207,0.348,0.459,0.453,0.754c0.104,0.295,0.164,0.627,0.173,0.994c0.014,0.366-0.023,0.739-0.105,1.117
		c-0.069,0.316-0.189,0.645-0.358,0.979c-0.17,0.334-0.372,0.668-0.608,1c-0.236,0.335-0.502,0.666-0.796,0.996
		c-0.296,0.331-0.599,0.656-0.916,0.975c0.058,0.02,0.153,0.047,0.291,0.08c0.135,0.032,0.292,0.072,0.469,0.118
		s0.368,0.097,0.575,0.151c0.206,0.055,0.405,0.108,0.6,0.158c0.194,0.049,0.373,0.094,0.542,0.139
		c0.166,0.043,0.305,0.081,0.414,0.113c0.129,0.034,0.207,0.119,0.241,0.256c0.03,0.137,0.026,0.299-0.016,0.487
		c-0.051,0.228-0.156,0.397-0.317,0.513c-0.163,0.115-0.319,0.155-0.476,0.121l-3.746-0.824c-0.245,0.22-0.492,0.433-0.738,0.641
		s-0.473,0.395-0.68,0.562c-0.114,0.396-0.227,0.788-0.33,1.174c-0.045,0.168-0.088,0.34-0.134,0.517
		c-0.046,0.178-0.092,0.354-0.136,0.528c-0.047,0.174-0.087,0.342-0.127,0.503s-0.074,0.311-0.104,0.448
		c-0.077,0.35-0.109,0.654-0.098,0.908c0.013,0.256,0.062,0.473,0.154,0.652c0.09,0.18,0.216,0.324,0.38,0.432
		c0.163,0.106,0.356,0.186,0.577,0.234c0.137,0.029,0.315,0.033,0.534,0.014c0.218-0.02,0.462-0.059,0.731-0.119
		s0.554-0.139,0.859-0.236c0.304-0.096,0.607-0.208,0.911-0.336c0.303-0.128,0.598-0.268,0.885-0.42
		c0.167-0.088,0.31-0.188,0.463-0.283c0.094-0.206,0.188-0.413,0.288-0.624c0.265-0.552,0.536-1.101,0.816-1.646
		s0.533-1.049,0.756-1.51c0.084-0.16,0.206-0.284,0.369-0.375c0.163-0.089,0.339-0.153,0.527-0.19
		c0.189-0.037,0.38-0.053,0.573-0.048c0.192,0.004,0.364,0.024,0.513,0.057c0.273,0.061,0.448,0.15,0.523,0.273
		c0.076,0.122,0.096,0.268,0.057,0.437c-0.031,0.143-0.109,0.343-0.231,0.599c-0.126,0.256-0.274,0.543-0.445,0.862
		c-0.175,0.319-0.358,0.665-0.556,1.033c-0.197,0.369-0.388,0.74-0.57,1.112c-0.185,0.371-0.351,0.738-0.498,1.096
		c-0.148,0.361-0.253,0.689-0.317,0.988c-0.065,0.293-0.083,0.531-0.057,0.719s0.141,0.303,0.343,0.346
		c0.234,0.053,0.512,0.029,0.834-0.071c0.322-0.099,0.655-0.233,0.997-0.399c0.163-0.08,0.319-0.167,0.479-0.25
		c0.016-0.418,0.055-0.834,0.146-1.242c0.157-0.717,0.411-1.36,0.762-1.936c0.351-0.572,0.775-1.045,1.279-1.416
		c0.498-0.37,1.066-0.621,1.704-0.759c0.636-0.136,1.315-0.126,2.036,0.034c0.618,0.135,1.176,0.358,1.673,0.669
		c0.498,0.31,0.946,0.677,1.348,1.104c0.401,0.425,0.758,0.89,1.073,1.396c0.112,0.179,0.213,0.359,0.318,0.54
		c0.022-0.055,0.043-0.114,0.065-0.169c0.217-0.519,0.411-0.959,0.587-1.323c0.137-0.284,0.33-0.503,0.578-0.66
		c0.25-0.156,0.551-0.196,0.902-0.118c0.352,0.076,0.571,0.237,0.659,0.481c0.09,0.245,0.096,0.547,0.018,0.903
		c-0.021,0.098-0.061,0.228-0.116,0.389c-0.057,0.162-0.12,0.338-0.194,0.529c-0.072,0.193-0.147,0.391-0.229,0.596
		c-0.078,0.203-0.152,0.392-0.22,0.563c-0.069,0.174-0.128,0.324-0.175,0.452c-0.049,0.129-0.079,0.217-0.09,0.263l0.195,0.042
		c0.055-0.062,0.142-0.164,0.263-0.305c0.118-0.141,0.257-0.303,0.413-0.487c0.155-0.183,0.324-0.377,0.5-0.581
		c0.178-0.201,0.344-0.396,0.502-0.585c0.157-0.187,0.298-0.351,0.426-0.493c0.126-0.143,0.221-0.248,0.283-0.315
		c0.285-0.305,0.575-0.494,0.87-0.565c0.295-0.072,0.606-0.072,0.932,0c0.323,0.071,0.553,0.264,0.685,0.58
		c0.133,0.314,0.144,0.713,0.039,1.193c-0.016,0.072-0.058,0.188-0.123,0.353c-0.066,0.161-0.149,0.355-0.246,0.578
		c-0.097,0.226-0.202,0.47-0.318,0.738c-0.118,0.267-0.23,0.542-0.34,0.825c-0.111,0.283-0.213,0.563-0.303,0.842
		c-0.095,0.281-0.165,0.542-0.219,0.781c-0.088,0.402-0.11,0.746-0.068,1.028c0.045,0.281,0.174,0.448,0.389,0.494
		c0.098,0.021,0.215,0.016,0.355-0.015c0.14-0.03,0.293-0.076,0.461-0.139c0.165-0.062,0.339-0.138,0.52-0.228
		c0.18-0.091,0.358-0.185,0.536-0.28c0.413-0.23,0.849-0.496,1.31-0.797L131.042,94.996z"/>
	<path fill="#333132" d="M96.825,103.832c-0.071-0.086-0.168-0.141-0.289-0.169c-0.16-0.036-0.327,0-0.5,0.104
		c-0.175,0.104-0.34,0.25-0.494,0.44c-0.157,0.188-0.295,0.405-0.414,0.649c-0.118,0.242-0.202,0.482-0.257,0.722
		c-0.036,0.163-0.055,0.321-0.055,0.472s0.02,0.287,0.062,0.41c0.043,0.121,0.112,0.227,0.209,0.314
		c0.093,0.088,0.217,0.15,0.369,0.184c0.132,0.028,0.276-0.011,0.43-0.117c0.155-0.107,0.302-0.253,0.439-0.437
		c0.139-0.185,0.265-0.396,0.374-0.63c0.112-0.235,0.193-0.467,0.243-0.691c0.039-0.18,0.06-0.35,0.068-0.51
		c0.007-0.161-0.005-0.303-0.036-0.428C96.947,104.021,96.897,103.916,96.825,103.832z"/>
	<path fill="#333132" d="M110.167,108.229l-1.349,0.859l0.011,0.018c-0.16,0.107-0.325,0.201-0.489,0.295
		c0.047,0.011,0.09,0.049,0.132,0.117c0.044,0.07,0.096,0.15,0.153,0.236c0.06,0.086,0.131,0.17,0.215,0.25
		c0.085,0.08,0.189,0.133,0.314,0.16c0.151,0.033,0.283,0.037,0.395,0.008c0.109-0.029,0.204-0.079,0.281-0.15
		c0.076-0.07,0.14-0.158,0.187-0.266c0.048-0.105,0.084-0.219,0.111-0.34c0.023-0.106,0.041-0.214,0.052-0.326
		c0.009-0.113,0.016-0.221,0.015-0.324c0.002-0.105-0.003-0.203-0.009-0.297S110.175,108.295,110.167,108.229z"/>
	<path fill="#333132" d="M115.23,109.34l-1.827,1.164l-0.002,0.008c0.045,0.012,0.089,0.05,0.132,0.118
		c0.043,0.07,0.095,0.15,0.152,0.237c0.059,0.085,0.131,0.169,0.216,0.248c0.084,0.08,0.19,0.135,0.315,0.162
		c0.151,0.033,0.283,0.035,0.393,0.006c0.111-0.029,0.204-0.078,0.281-0.15c0.078-0.07,0.14-0.158,0.188-0.265
		c0.047-0.105,0.086-0.22,0.111-0.34c0.023-0.106,0.041-0.214,0.051-0.327c0.01-0.112,0.017-0.221,0.016-0.324
		c0.001-0.104-0.002-0.203-0.008-0.295C115.242,109.488,115.236,109.408,115.23,109.34z"/>
</g>
</svg>
