<?xml version="1.0" standalone="no"?>
<!DOCTYPE svg PUBLIC "-//W3C//DTD SVG 1.1//EN" "http://www.w3.org/Graphics/SVG/1.1/DTD/svg11.dtd" >
<svg xmlns="http://www.w3.org/2000/svg" xmlns:xlink="http://www.w3.org/1999/xlink" version="1.1">
<metadata>
Created by FontForge 20141024 at Fri Jan 30 00:35:56 2015
 By System Administrator
2000 Steffen Sauerteig, Henning Wagenbreth, published by Fontshop International for the FontFont library.
</metadata>
<defs>
<font id="PraterSerifTwo-RegularExp" horiz-adv-x="700" >
  <font-face 
    font-family="PraterSerifTwo-RegularExp"
    font-weight="500"
    font-stretch="normal"
    units-per-em="1000"
    panose-1="0 0 0 0 0 0 0 0 0 0"
    ascent="800"
    descent="-200"
    x-height="556"
    cap-height="700"
    bbox="-55 -218.22 755 892"
    underline-thickness="41"
    underline-position="-143"
    unicode-range="U+0020-FB02"
  />
<missing-glyph horiz-adv-x="500" 
 />
    <glyph glyph-name=".notdef" horiz-adv-x="500" 
 />
    <glyph glyph-name="space" unicode=" " horiz-adv-x="244" 
 />
    <glyph glyph-name="exclam" unicode="!" horiz-adv-x="305" 
d="M208 784l-4 -296c-23 0 -109 0 -93 0c-2 77 -1 148 -1 297c32 -1 67 0 98 -1zM208 -11h-98c-2 77 4 148 4 297c32 -1 62 0 93 -1z" />
    <glyph glyph-name="quotedbl" unicode="&#x22;" horiz-adv-x="485" 
d="M381 765c-22 -68 -48 -107 -80 -179l-66 23c21 89 33 121 56 186zM248 767c-27 -73 -54 -104 -81 -174l-68 24c22 81 28 101 59 182z" />
    <glyph glyph-name="numbersign" unicode="#" horiz-adv-x="642" 
d="M565 457c-66 -77 -116 -90 -172 -87c-75 3 -109 57 -166 56c-33 -1 -75 -14 -112 -52l-54 74c61 57 100 86 161 86c76 0 121 -53 175 -53c27 0 67 7 110 53zM573 245c-74 -69 -102 -73 -165 -73c-77 0 -98 60 -164 57c-34 -1 -69 -22 -100 -65l-65 67
c41 66 103 105 164 105c78 0 118 -52 170 -52c29 0 81 1 116 42z" />
    <glyph glyph-name="dollar" unicode="$" horiz-adv-x="408" 
d="M367 688c-41 -6 -108 8 -110 -49c-2 -35 -4 -58 -2 -69l6 -530c1 -83 17 -179 -84 -206c-38 -14 -93 -19 -136 -19c-4 25 4 60 2 93c41 6 104 8 106 65c7 46 2 95 2 127l-6 472c-1 58 -17 179 84 206c38 14 93 19 136 19c4 -25 0 -76 2 -109z" />
    <glyph glyph-name="percent" unicode="%" 
d="M700 350l-350 -350l-350 350l350 350zM683 350l-333 333l-83 -83l83 -83l-167 -167l84 -83l166 166l84 -83l-167 -167l83 -83z" />
    <glyph glyph-name="ampersand" unicode="&#x26;" horiz-adv-x="446" 
d="M402 1c-1 -23 4 -142 -1 -183c-138 -7 -263 2 -355 -2l1 111c58 128 116 232 180 392c-39 101 -117 253 -162 366c-4 50 0 63 0 100c96 5 197 -3 312 -1c0 -22 7 -103 9 -160h-85l-2 61l-126 -4l40 -82c56 -114 74 -164 125 -280c-2 -30 -88 -195 -175 -391l141 2
c0 28 9 64 4 68c17 0 79 5 94 3z" />
    <glyph glyph-name="quoteright" unicode="&#x2019;" 
d="M700 350l-350 -350l-350 350l350 350zM683 350l-333 333l-83 -83l83 -83l-167 -167l84 -83l166 166l84 -83l-167 -167l83 -83z" />
    <glyph glyph-name="parenleft" unicode="(" 
d="M700 350l-350 -350l-350 350l350 350zM683 350l-333 333l-83 -83l83 -83l-167 -167l84 -83l166 166l84 -83l-167 -167l83 -83z" />
    <glyph glyph-name="parenright" unicode=")" 
d="M700 350l-350 -350l-350 350l350 350zM683 350l-333 333l-83 -83l83 -83l-167 -167l84 -83l166 166l84 -83l-167 -167l83 -83z" />
    <glyph glyph-name="asterisk" unicode="*" 
d="M700 350l-350 -350l-350 350l350 350zM683 350l-333 333l-83 -83l83 -83l-167 -167l84 -83l166 166l84 -83l-167 -167l83 -83z" />
    <glyph glyph-name="plus" unicode="+" 
d="M700 350l-350 -350l-350 350l350 350zM683 350l-333 333l-83 -83l83 -83l-167 -167l84 -83l166 166l84 -83l-167 -167l83 -83z" />
    <glyph glyph-name="comma" unicode="," horiz-adv-x="436" 
d="M328 691c0 -34 -15 -63 -40 -81c-39 -36 -94 -38 -148 -5c-27 17 -43 49 -37 87c11 63 43 107 107 107s118 -44 118 -108zM244 691c0 20 -15 34 -34 34s-34 -14 -34 -34c0 -19 4 -33 34 -41c19 0 34 22 34 41z" />
    <glyph glyph-name="hyphen" unicode="-" horiz-adv-x="512" 
d="M442 440c0 -42 5 -92 3 -133l-376 -2l-1 141c100 3 180 -6 374 -6z" />
    <glyph glyph-name="period" unicode="." horiz-adv-x="339" 
d="M227 768c19 -32 5 -61 -12 -87c-17 -18 -50 -21 -73 -7c-31 19 -48 51 -37 85c17 56 97 51 122 9z" />
    <glyph glyph-name="slash" unicode="/" horiz-adv-x="299" 
d="M301 768c-50 -95 -76 -228 -116 -342c-62 -177 -76 -238 -150 -446l-90 36l60 184c74 226 112 362 214 600z" />
    <glyph glyph-name="zero" unicode="0" horiz-adv-x="564" 
d="M539 416c-78 -137 -109 -193 -180 -289c-9 -12 -84 -143 -94 -143l-240 456l258 387c69 -92 193 -294 256 -411zM437 424c-14 32 -106 170 -154 234c-50 -81 -122 -172 -150 -228c-7 13 102 -197 137 -270c41 67 117 189 167 264z" />
    <glyph glyph-name="one" unicode="1" horiz-adv-x="378" 
d="M289 353c-1 -15 -4 -76 -4 -89c-22 0 -152 3 -211 -1l1 82c32 8 38 0 58 7c2 170 2 237 7 344l-65 -6l-11 72l84 34h84c5 -171 -2 -321 -2 -440z" />
    <glyph glyph-name="two" unicode="2" horiz-adv-x="365" 
d="M313 404c5 -38 4 -105 -2 -149c-57 0 -160 8 -265 0c-2 117 0 104 0 162c13 86 48 93 89 140c27 31 72 48 74 88c2 41 -27 70 -70 68c-15 -1 -28 -18 -58 -48l-44 64c42 42 62 76 136 76c48 0 82 -23 109 -62c29 -42 25 -61 15 -126c-15 -41 1 -22 -70 -102
c-25 -27 -65 -36 -79 -88c-2 -38 -2 -34 -2 -72l91 -1l1 52c14 0 63 -2 75 -2z" />
    <glyph glyph-name="three" unicode="3" horiz-adv-x="375" 
d="M305 454c7 -68 1 -102 -21 -145c-23 -44 -84 -65 -106 -61c-79 3 -87 20 -143 57l44 69c40 -28 61 -35 78 -37c37 -3 69 18 67 68c-2 69 -8 86 -71 86h-23l-1 81c73 1 93 29 90 76c2 50 -25 70 -62 67c-17 -2 -29 -9 -69 -37l-44 69c56 37 55 54 134 57
c22 4 81 -24 104 -68c22 -43 32 -78 17 -145c-5 -23 -25 -45 -59 -59c28 -12 62 -47 65 -78z" />
    <glyph glyph-name="four" unicode="4" horiz-adv-x="783" 
d="M750 106l-1 -88c-46 0 -154 1 -194 -1c0 16 0 59 -1 84l50 3v71h-183l-3 83c30 59 123 281 146 305c31 -1 73 0 121 0l10 -305c43 -1 51 0 51 -1l-3 -84c-2 -1 -2 1 -45 1l2 -68h50zM545 768c-50 -95 -76 -228 -116 -342c-62 -177 -76 -238 -150 -446l-100 25
c79 224 182 557 284 795zM237 353l-4 -89c-1 0 -131 3 -175 -1l1 82c17 8 23 0 43 7c2 170 10 331 7 344l-59 -6l-20 73l87 33h84c5 -171 -2 -321 -2 -440zM598 259v184c-23 -64 -56 -128 -87 -184h87z" />
    <glyph glyph-name="five" unicode="5" horiz-adv-x="782" 
d="M755 0c-57 0 -145 8 -250 0c-2 117 0 104 0 162c13 86 31 97 74 142c32 33 78 64 74 94c-6 41 -14 58 -57 56c-15 -1 -32 -4 -62 -34l-46 63c42 42 55 67 129 67c39 0 90 -30 104 -62c20 -46 30 -53 20 -118c-15 -41 -40 -73 -70 -102c-24 -28 -55 -36 -69 -88
c-2 -38 -3 -45 -3 -92l82 2l1 61l67 -3zM554 763c-50 -95 -76 -228 -116 -342c-62 -177 -76 -238 -150 -446l-93 32l63 188c75 225 112 362 214 600zM259 345c-2 -6 -5 -67 -5 -80c-12 -1 -142 2 -196 1l2 73c27 5 33 -3 53 4c1 179 9 340 6 353l-53 -42l-36 60l97 82h84
c5 -171 -2 -321 -1 -449z" />
    <glyph glyph-name="six" unicode="6" horiz-adv-x="761" 
d="M728 227l-3 -84c-10 -1 -10 1 -53 1l2 -68h50l-1 -88c-46 0 -154 1 -207 -1c0 16 0 59 -1 84l63 3v71l-191 2c0 10 -5 41 -4 69c30 59 132 293 155 317c31 -1 73 0 121 0l10 -305c43 -1 51 0 59 -1zM549 792c-50 -95 -76 -228 -116 -342c-62 -177 -76 -238 -150 -446
l-110 28l80 192c92 220 112 362 214 600zM279 469c7 -68 -1 -113 -23 -156c-23 -44 -84 -65 -106 -61c-79 3 -76 20 -132 57l44 69c40 -28 50 -35 67 -37c37 -3 69 18 67 68c-2 69 -4 94 -66 99l-38 3l-1 76c73 1 108 19 105 66c2 50 -30 71 -67 68c-17 -2 -27 -2 -73 -28
l-39 68c56 37 54 46 133 49c22 4 86 -25 109 -69c22 -43 29 -68 14 -135c-5 -23 -25 -45 -59 -59c28 -12 62 -47 65 -78zM576 433c-23 -64 -56 -128 -88 -200h87c-1 50 -3 144 1 200z" />
    <glyph glyph-name="seven" unicode="7" 
d="M700 350l-350 -350l-350 350l350 350zM683 350l-333 333l-83 -83l83 -83l-167 -167l84 -83l166 166l84 -83l-167 -167l83 -83z" />
    <glyph glyph-name="eight" unicode="8" horiz-adv-x="766" 
d="M734 393c0 -95 -59 -189 -182 -189c-28 0 -49 -2 -93 25c-57 36 -78 72 -88 86c-28 -41 -78 -101 -157 -101c-99 0 -185 37 -182 161c3 105 76 188 184 188c56 0 109 -29 163 -79c20 13 43 33 59 43c45 28 50 30 109 30c33 0 73 -3 113 -28c45 -29 74 -68 74 -136z
M631 388c0 55 -35 72 -80 72c-35 0 -60 -2 -121 -67c51 -63 94 -86 126 -86c53 0 75 30 75 81zM325 394c-61 65 -80 72 -115 72c-45 0 -83 -37 -83 -92c0 -51 27 -64 80 -64c32 0 71 28 118 84z" />
    <glyph glyph-name="nine" unicode="9" horiz-adv-x="420" 
d="M360 581c25 -132 12 -408 -6 -493c-8 -26 -32 -110 -187 -93c-59 6 -96 46 -106 74c-29 83 -11 154 -2 252c5 47 41 108 107 107c42 -1 58 12 105 -18c-5 46 5 138 -47 201c-37 44 -106 87 -126 98l44 91c60 -27 94 -40 146 -97c19 -31 66 -88 72 -122zM263 244
c-1 22 -8 70 -50 71c-62 2 -69 -19 -70 -128c-1 -52 21 -85 70 -80c24 2 44 8 49 80c-1 26 2 32 1 57z" />
    <glyph glyph-name="colon" unicode=":" horiz-adv-x="414" 
d="M371 786c-8 -44 -22 -90 -50 -120c-27 -27 -85 -27 -116 -27c-94 -1 -126 77 -146 143c22 8 47 6 68 9c6 -13 8 -25 16 -39c16 -28 31 -42 72 -42c54 0 65 9 92 81z" />
    <glyph glyph-name="semicolon" unicode=";" horiz-adv-x="444" 
d="M380 745c-23 -24 -57 -49 -85 -79c-27 -27 -41 -36 -65 -56l-161 137c19 24 34 30 56 52l45 -35c29 -22 36 -33 60 -54c30 27 70 57 100 86z" />
    <glyph glyph-name="less" unicode="&#x3c;" horiz-adv-x="529" 
d="M419 276l-62 -79c-53 43 -152 118 -249 212c46 41 93 80 140 126c49 47 71 64 95 81c32 -28 44 -45 76 -72c-10 -9 -83 -78 -146 -137c32 -31 116 -96 146 -131zM465 147c0 -21 0 -67 -2 -107l-361 -2v108c93 2 185 1 363 1z" />
    <glyph glyph-name="equal" unicode="=" horiz-adv-x="606" 
d="M496 221l-208 -1l-51 -103l-59 32l32 70h-81l-1 100c39 1 77 0 133 -1l41 79c-68 0 -124 0 -178 -2v98c64 2 123 2 227 1l51 92l55 -29l-31 -63h66c0 -30 0 -66 -2 -91c-38 -2 -75 -4 -112 -5l-42 -82c44 -1 96 -2 159 -2c0 -39 1 -74 1 -93z" />
    <glyph glyph-name="greater" unicode="&#x3e;" horiz-adv-x="502" 
d="M439 409c-97 -94 -196 -169 -249 -212l-62 79c30 35 114 100 146 131c-63 59 -136 128 -146 137c32 27 44 44 76 72c24 -17 46 -34 95 -81c47 -46 94 -85 140 -126zM445 38l-361 2c-2 40 -2 86 -2 107c178 0 270 1 363 -1v-108z" />
    <glyph glyph-name="question" unicode="?" 
d="M700 350l-350 -350l-350 350l350 350zM683 350l-333 333l-83 -83l83 -83l-167 -167l84 -83l166 166l84 -83l-167 -167l83 -83z" />
    <glyph glyph-name="at" unicode="@" 
d="M700 350l-350 -350l-350 350l350 350zM683 350l-333 333l-83 -83l83 -83l-167 -167l84 -83l166 166l84 -83l-167 -167l83 -83z" />
    <glyph glyph-name="A" unicode="A" horiz-adv-x="747" 
d="M722 12c-132 -3 -633 -12 -697 0l113 269s227 496 240 512c112 -171 223 -517 344 -781zM560 125c-38 118 -130 308 -183 452c-50 -144 -142 -353 -198 -460c101 2 309 -6 381 8z" />
    <glyph glyph-name="B" unicode="B" 
d="M700 350l-350 -350l-350 350l350 350zM683 350l-333 333l-83 -83l83 -83l-167 -167l84 -83l166 166l84 -83l-167 -167l83 -83z" />
    <glyph glyph-name="C" unicode="C" 
d="M700 350l-350 -350l-350 350l350 350zM683 350l-333 333l-83 -83l83 -83l-167 -167l84 -83l166 166l84 -83l-167 -167l83 -83z" />
    <glyph glyph-name="D" unicode="D" horiz-adv-x="462" 
d="M405 166c-14 -124 -205 -160 -328 -160c0 2 -32 0 -61 0v109h54v243l-66 -1v98c10 1 36 1 66 2c0 83 0 158 1 215c-34 4 -50 0 -48 4c-2 42 -6 98 -2 120c8 3 28 4 50 2c114 0 274 -35 320 -150c64 -162 30 -339 14 -482zM306 232c3 111 22 312 -38 374
c-30 31 -52 48 -84 49c-3 -42 0 -142 0 -205h63c0 -32 0 -68 -1 -98h-66c-1 -73 -7 -154 -6 -228l51 15c44 13 80 46 81 93z" />
    <glyph glyph-name="E" unicode="E" horiz-adv-x="462" 
d="M242 778c26 14 125 18 191 13l7 -165c-15 0 -66 -6 -88 -1c-2 30 -3 40 -2 52c-48 -5 -94 -36 -105 -102c-3 -18 -9 -71 -9 -71l105 -1v-49h-105l-3 -47h106l-3 -52l-104 1l-2 -140c5 -81 56 -89 108 -97c-1 24 0 43 1 54c24 1 72 -5 89 -4c-2 -39 -3 -114 -6 -169
c-106 5 -271 -7 -303 124c-7 30 -10 61 -14 86l5 149h-59l4 49h51l5 49h-49l4 50l45 -1l17 132c17 72 66 132 114 140z" />
    <glyph glyph-name="F" unicode="F" horiz-adv-x="555" 
d="M569 -13c-70 0 -209 13 -214 125c-8 165 -4 257 -5 416l-1 165c-100 0 -144 7 -146 -50c-7 -46 -3 -50 -1 -61l83 2l-1 -99l-82 -2l1 -379l62 -7c4 -34 2 -64 2 -97h-233l-3 91l62 9l-1 385c-28 0 -32 -1 -67 0c-5 29 -5 37 -3 98c20 0 45 0 70 1c7 50 -17 179 84 206
c38 14 95 4 138 6c39 1 116 2 151 -10c-2 -207 -8 -369 5 -611c3 -56 55 -77 94 -79c3 -42 2 -75 5 -109z" />
    <glyph glyph-name="G" unicode="G" 
d="M700 350l-350 -350l-350 350l350 350zM683 350l-333 333l-83 -83l83 -83l-167 -167l84 -83l166 166l84 -83l-167 -167l83 -83z" />
    <glyph glyph-name="H" unicode="H" 
d="M700 350l-350 -350l-350 350l350 350zM683 350l-333 333l-83 -83l83 -83l-167 -167l84 -83l166 166l84 -83l-167 -167l83 -83z" />
    <glyph glyph-name="I" unicode="I" 
d="M700 350l-350 -350l-350 350l350 350zM683 350l-333 333l-83 -83l83 -83l-167 -167l84 -83l166 166l84 -83l-167 -167l83 -83z" />
    <glyph glyph-name="J" unicode="J" 
d="M700 350l-350 -350l-350 350l350 350zM683 350l-333 333l-83 -83l83 -83l-167 -167l84 -83l166 166l84 -83l-167 -167l83 -83z" />
    <glyph glyph-name="K" unicode="K" 
d="M700 350l-350 -350l-350 350l350 350zM683 350l-333 333l-83 -83l83 -83l-167 -167l84 -83l166 166l84 -83l-167 -167l83 -83z" />
    <glyph glyph-name="L" unicode="L" horiz-adv-x="421" 
d="M454 180c-6 -43 -2 -141 -4 -180h-384l1 109l47 4l4 227c-24 -10 -35 -16 -71 -26v112c27 6 47 18 69 20l-2 236h-52l-1 108l229 1l6 -109l-64 -1l10 -198c32 9 51 18 93 27c3 -43 8 -78 7 -109l-98 -34l3 -251c25 -2 68 -2 96 -2l4 70c15 0 80 -5 107 -4z" />
    <glyph glyph-name="M" unicode="M" horiz-adv-x="593" 
d="M560 662l-74 -2c-11 -291 0 -545 -4 -834l-115 -1c3 336 5 462 4 833h-154c-10 -363 4 -496 -5 -830c-46 -4 -75 -11 -118 -11l13 843l-74 2v121c14 -1 391 7 527 8v-129z" />
    <glyph glyph-name="N" unicode="N" 
d="M700 350l-350 -350l-350 350l350 350zM683 350l-333 333l-83 -83l83 -83l-167 -167l84 -83l166 166l84 -83l-167 -167l83 -83z" />
    <glyph glyph-name="O" unicode="O" horiz-adv-x="518" 
d="M493 97l-2 -97h-199l-4 103c44 7 53 69 53 96c2 133 3 299 -2 425c-2 53 -60 60 -91 58c-28 -8 -62 -22 -63 -78c-4 -175 -24 -475 36 -499l-5 -105h-188l-3 96l68 5c-41 49 -33 219 -36 308c-4 125 -19 316 67 362c48 26 209 46 272 -4c41 -32 53 -71 55 -135
c7 -189 46 -488 -38 -531z" />
    <glyph glyph-name="P" unicode="P" horiz-adv-x="466" 
d="M398 292c1 -83 -4 -176 -40 -205c-29 -24 -135 -22 -196 -3l4 -103l-130 2c-6 71 -3 332 -3 600c33 -2 81 12 108 9c3 -20 1 -33 5 -52c52 24 99 56 162 35c100 -53 89 -184 90 -283zM279 414c-3 88 -95 48 -129 23l6 -225c11 -17 19 -23 28 -28c21 -10 65 -22 79 4
c24 46 20 130 16 226z" />
    <glyph glyph-name="Q" unicode="Q" 
d="M700 350l-350 -350l-350 350l350 350zM683 350l-333 333l-83 -83l83 -83l-167 -167l84 -83l166 166l84 -83l-167 -167l83 -83z" />
    <glyph glyph-name="R" unicode="R" 
d="M700 350l-350 -350l-350 350l350 350zM683 350l-333 333l-83 -83l83 -83l-167 -167l84 -83l166 166l84 -83l-167 -167l83 -83z" />
    <glyph glyph-name="S" unicode="S" horiz-adv-x="403" 
d="M352 833c-23 -24 -56 -44 -84 -74c-27 -27 -41 -36 -65 -56l-155 134c19 24 28 33 50 55l45 -35c29 -22 36 -33 60 -54c30 27 70 57 100 86zM351 491c-23 2 -47 1 -90 1v76c-22 13 -44 6 -67 -4c-31 -14 -32 -55 -22 -111c10 -57 92 -86 140 -126c87 -90 45 -184 14 -251
c-21 -45 -82 -89 -120 -88c-83 2 -120 -1 -158 24l-3 145c20 0 37 -1 93 -1v-51c70 -17 110 27 108 95c-14 49 -40 55 -115 104c-39 26 -60 59 -72 107c-19 78 -23 103 9 190c7 19 40 53 58 69c44 30 121 28 155 6c26 -12 50 -27 67 -45z" />
    <glyph glyph-name="T" unicode="T" 
d="M700 350l-350 -350l-350 350l350 350zM683 350l-333 333l-83 -83l83 -83l-167 -167l84 -83l166 166l84 -83l-167 -167l83 -83z" />
    <glyph glyph-name="U" unicode="U" 
d="M700 350l-350 -350l-350 350l350 350zM683 350l-333 333l-83 -83l83 -83l-167 -167l84 -83l166 166l84 -83l-167 -167l83 -83z" />
    <glyph glyph-name="V" unicode="V" horiz-adv-x="657" 
d="M671 758c-53 -13 -97 -18 -159 -45c-125 -435 -156 -510 -194 -713c-33 0 -41 3 -101 0c-47 166 -116 346 -173 500c-30 0 -42 -1 -76 3c3 19 0 61 0 88c41 3 131 2 154 5c28 -110 103 -297 137 -407c20 81 43 169 103 374c20 67 45 139 74 237c80 22 142 43 211 48
c14 -36 16 -50 24 -90z" />
    <glyph glyph-name="W" unicode="W" 
d="M700 350l-350 -350l-350 350l350 350zM683 350l-333 333l-83 -83l83 -83l-167 -167l84 -83l166 166l84 -83l-167 -167l83 -83z" />
    <glyph glyph-name="X" unicode="X" 
d="M700 350l-350 -350l-350 350l350 350zM683 350l-333 333l-83 -83l83 -83l-167 -167l84 -83l166 166l84 -83l-167 -167l83 -83z" />
    <glyph glyph-name="Y" unicode="Y" horiz-adv-x="535" 
d="M402 859c-28 -52 -39 -74 -69 -129l-65 21c20 64 23 84 44 137zM602 768l-1 -106l-53 -3l-155 -291l-12 -261l83 -7l-2 -100c-25 0 -229 -5 -271 0l2 103c25 -1 46 1 72 4l5 251l-194 311l-71 6c0 14 2 68 3 98l248 3l5 -99l-67 -9c57 -84 56 -117 131 -198
c68 72 49 109 109 197l-64 -1c0 22 3 79 4 108z" />
    <glyph glyph-name="Z" unicode="Z" horiz-adv-x="481" 
d="M386 828c-23 -24 -56 -44 -84 -74c-27 -27 -41 -36 -65 -56l-155 134c19 24 28 33 50 55l45 -35c29 -22 36 -33 60 -54c30 27 70 57 100 86zM449 0h-397c24 143 150 477 198 577l-102 -12c-5 0 -4 -32 -4 -71l-111 13c4 53 0 161 7 179c127 -6 268 8 382 0
c-48 -137 -132 -342 -205 -562c33 -3 87 -8 111 -7c2 30 -1 50 2 71c23 1 89 2 112 4z" />
    <glyph glyph-name="bracketleft" unicode="[" 
d="M700 350l-350 -350l-350 350l350 350zM683 350l-333 333l-83 -83l83 -83l-167 -167l84 -83l166 166l84 -83l-167 -167l83 -83z" />
    <glyph glyph-name="backslash" unicode="\" 
d="M700 350l-350 -350l-350 350l350 350zM683 350l-333 333l-83 -83l83 -83l-167 -167l84 -83l166 166l84 -83l-167 -167l83 -83z" />
    <glyph glyph-name="bracketright" unicode="]" 
d="M700 350l-350 -350l-350 350l350 350zM683 350l-333 333l-83 -83l83 -83l-167 -167l84 -83l166 166l84 -83l-167 -167l83 -83z" />
    <glyph glyph-name="asciicircum" unicode="^" 
d="M700 350l-350 -350l-350 350l350 350zM683 350l-333 333l-83 -83l83 -83l-167 -167l84 -83l166 166l84 -83l-167 -167l83 -83z" />
    <glyph glyph-name="underscore" unicode="_" horiz-adv-x="407" 
d="M368 665l-50 -51c-30 29 -70 59 -100 86c-24 -21 -31 -32 -60 -54l-45 -35c-22 22 -37 28 -56 52l161 137c24 -20 38 -29 65 -56c28 -30 62 -55 85 -79z" />
    <glyph glyph-name="quoteleft" unicode="&#x2018;" 
d="M700 350l-350 -350l-350 350l350 350zM683 350l-333 333l-83 -83l83 -83l-167 -167l84 -83l166 166l84 -83l-167 -167l83 -83z" />
    <glyph glyph-name="a" unicode="a" horiz-adv-x="776" 
d="M718 448c5 -141 15 -283 -20 -351c-40 -78 -152 -119 -196 -120c-77 -1 -166 -10 -208 31c-58 56 -57 158 -55 260c2 97 -14 241 74 265c66 8 162 23 199 -32c39 -58 24 -164 24 -246c-61 -11 -134 -22 -190 -26c4 -44 -4 -123 25 -134c55 -20 150 -5 202 32
c69 50 26 349 -10 413c-36 65 -188 64 -298 42c-31 -6 -58 -30 -70 -50c-37 -63 -27 -413 -1 -532c38 -95 164 -111 353 -91v-118c-197 -22 -288 -5 -388 55c-23 14 -94 69 -101 181c-7 106 -9 229 -5 417c3 109 41 213 150 241c129 33 281 15 387 -9
c83 -19 125 -134 128 -228zM451 356l-1 60c0 27 -25 43 -52 43c-62 0 -51 -75 -50 -114c28 -4 66 12 103 11z" />
    <glyph glyph-name="b" unicode="b" 
d="M700 350l-350 -350l-350 350l350 350zM683 350l-333 333l-83 -83l83 -83l-167 -167l84 -83l166 166l84 -83l-167 -167l83 -83z" />
    <glyph glyph-name="c" unicode="c" horiz-adv-x="271" 
d="M221 -128c4 -17 -9 -62 -6 -83c-29 0 -54 -5 -102 15c-29 18 -56 42 -60 81c-4 40 -12 74 3 132l96 -2c-22 -53 1 -80 2 -102c16 -37 34 -39 67 -41z" />
    <glyph glyph-name="d" unicode="d" horiz-adv-x="419" 
d="M359 583c25 -132 12 -408 -5 -512c-8 -26 -47 -104 -221 -90c-26 7 -62 43 -72 71c-29 83 -11 165 -2 263c6 68 67 117 118 114c42 -3 56 -1 93 -17c-5 46 -1 117 -33 180l-52 -53c-27 29 -43 43 -66 61c9 11 34 34 55 60c-35 26 -59 32 -91 36l26 99
c48 -15 103 -32 136 -54c18 27 28 32 40 47c25 -21 36 -23 66 -56c-19 -19 -31 -35 -45 -51c19 -31 47 -64 53 -98zM259 263c-1 22 -5 53 -47 54c-62 2 -68 -19 -69 -147c0 -52 21 -85 70 -80c24 2 40 17 45 89c-2 45 2 59 1 84z" />
    <glyph glyph-name="e" unicode="e" 
d="M700 350l-350 -350l-350 350l350 350zM683 350l-333 333l-83 -83l83 -83l-167 -167l84 -83l166 166l84 -83l-167 -167l83 -83z" />
    <glyph glyph-name="f" unicode="f" horiz-adv-x="585" 
d="M500 785c19 -32 5 -70 -12 -96c-17 -18 -71 -21 -94 -7c-31 19 -41 58 -30 92c17 56 111 53 136 11zM558 0c-14 -2 -210 2 -239 0c0 35 -6 64 0 92c7 0 43 5 62 4c-5 140 2 260 2 381l-181 -2l-1 -376c31 -5 51 -5 64 -6c4 -22 2 -60 2 -93h-233l-1 84c25 5 43 8 61 8
l-2 385c-28 0 -32 -1 -55 0c0 35 -1 64 -3 106c8 0 33 0 58 1c7 50 -17 179 84 206c38 14 82 18 135 13c1 -28 -4 -65 -2 -98c-41 -6 -99 -5 -103 -62l-4 -61l293 3c2 -142 5 -315 6 -493c23 0 34 -1 50 -1z" />
    <glyph glyph-name="g" unicode="g" 
d="M700 350l-350 -350l-350 350l350 350zM683 350l-333 333l-83 -83l83 -83l-167 -167l84 -83l166 166l84 -83l-167 -167l83 -83z" />
    <glyph glyph-name="h" unicode="h" 
d="M700 350l-350 -350l-350 350l350 350zM683 350l-333 333l-83 -83l83 -83l-167 -167l84 -83l166 166l84 -83l-167 -167l83 -83z" />
    <glyph glyph-name="i" unicode="i" horiz-adv-x="348" 
d="M311 0c-39 -2 -235 2 -278 0c0 35 -3 61 3 101c21 0 49 3 68 2c10 124 13 248 13 369c0 7 -63 0 -84 5v102c37 5 163 -2 196 -2c2 -142 -1 -307 0 -473c23 0 59 -1 75 -1c8 0 7 -93 7 -103z" />
    <glyph glyph-name="j" unicode="j" 
d="M700 350l-350 -350l-350 350l350 350zM683 350l-333 333l-83 -83l83 -83l-167 -167l84 -83l166 166l84 -83l-167 -167l83 -83z" />
    <glyph glyph-name="k" unicode="k" 
d="M700 350l-350 -350l-350 350l350 350zM683 350l-333 333l-83 -83l83 -83l-167 -167l84 -83l166 166l84 -83l-167 -167l83 -83z" />
    <glyph glyph-name="l" unicode="l" horiz-adv-x="299" 
d="M277 384l-98 -34c2 -71 3 -129 5 -202c2 -45 50 -36 89 -38c3 -56 7 -93 2 -125c-70 0 -197 -5 -207 91c-9 85 -2 168 -3 251c-26 -12 -47 -20 -83 -21v112c37 9 51 9 79 19c4 33 -4 58 -2 91l10 161l-67 -4v108c42 4 148 -8 185 -2c-1 -108 -7 -211 -9 -326
c33 8 50 19 92 28c3 -43 8 -78 7 -109z" />
    <glyph glyph-name="m" unicode="m" horiz-adv-x="546" 
d="M514 472l-74 -2c-10 -101 1 -355 -3 -470l-115 -1c3 162 5 288 3 469l-97 1c-9 -173 -9 -322 -18 -472c-45 2 -76 0 -119 0l22 473l-74 2l-7 112c14 -1 391 7 475 8z" />
    <glyph glyph-name="n" unicode="n" 
d="M700 350l-350 -350l-350 350l350 350zM683 350l-333 333l-83 -83l83 -83l-167 -167l84 -83l166 166l84 -83l-167 -167l83 -83z" />
    <glyph glyph-name="o" unicode="o" 
d="M700 350l-350 -350l-350 350l350 350zM683 350l-333 333l-83 -83l83 -83l-167 -167l84 -83l166 166l84 -83l-167 -167l83 -83z" />
    <glyph glyph-name="p" unicode="p" horiz-adv-x="460" 
d="M387 294c-1 -82 3 -229 -33 -258c-29 -24 -135 -22 -196 -3c-1 -85 13 -197 1 -224l-126 15c3 219 -1 500 -1 970c33 -2 84 6 111 3c3 -222 -1 -227 3 -246c52 24 109 40 172 19c100 -53 70 -179 69 -276zM275 414c-3 88 -92 36 -126 11l3 -264l32 -16
c21 -10 66 -22 79 4c21 34 16 171 12 265z" />
    <glyph glyph-name="q" unicode="q" 
d="M700 350l-350 -350l-350 350l350 350zM683 350l-333 333l-83 -83l83 -83l-167 -167l84 -83l166 166l84 -83l-167 -167l83 -83z" />
    <glyph glyph-name="r" unicode="r" 
d="M700 350l-350 -350l-350 350l350 350zM683 350l-333 333l-83 -83l83 -83l-167 -167l84 -83l166 166l84 -83l-167 -167l83 -83z" />
    <glyph glyph-name="s" unicode="s" horiz-adv-x="395" 
d="M359 456c-23 2 -49 -5 -92 -5c0 13 -5 37 -5 57c-26 7 -55 12 -80 -7c-34 -26 -22 -65 -9 -92c14 -29 71 -37 106 -68c29 -25 51 -45 61 -73c32 -90 2 -206 -65 -248c-52 -33 -144 -24 -195 -13l-29 11l-12 134c20 0 36 11 92 11c0 -13 7 -30 7 -50c27 -3 61 -12 82 8
c26 25 28 86 7 119c-18 27 -68 42 -105 71c-38 31 -54 61 -64 89c-32 90 4 151 71 193c44 28 156 33 220 2zM382 757c-23 -24 -57 -49 -85 -79c-27 -27 -41 -36 -65 -56l-161 137c19 24 34 30 56 52l45 -35c29 -22 36 -33 60 -54c30 27 70 57 100 86z" />
    <glyph glyph-name="t" unicode="t" 
d="M700 350l-350 -350l-350 350l350 350zM683 350l-333 333l-83 -83l83 -83l-167 -167l84 -83l166 166l84 -83l-167 -167l83 -83z" />
    <glyph glyph-name="u" unicode="u" 
d="M700 350l-350 -350l-350 350l350 350zM683 350l-333 333l-83 -83l83 -83l-167 -167l84 -83l166 166l84 -83l-167 -167l83 -83z" />
    <glyph glyph-name="v" unicode="v" 
d="M700 350l-350 -350l-350 350l350 350zM683 350l-333 333l-83 -83l83 -83l-167 -167l84 -83l166 166l84 -83l-167 -167l83 -83z" />
    <glyph glyph-name="w" unicode="w" 
d="M700 350l-350 -350l-350 350l350 350zM683 350l-333 333l-83 -83l83 -83l-167 -167l84 -83l166 166l84 -83l-167 -167l83 -83z" />
    <glyph glyph-name="x" unicode="x" horiz-adv-x="531" 
d="M433 267c-16 -18 -47 -54 -71 -71l-116 108l-109 -125c-23 19 -56 58 -73 69c25 31 43 53 106 120l-108 108l71 75c33 -26 46 -42 112 -112c50 51 84 87 113 117c27 -19 49 -44 69 -66l-105 -119c71 -67 97 -81 111 -104z" />
    <glyph glyph-name="y" unicode="y" horiz-adv-x="482" 
d="M470 602c0 -36 3 -73 -1 -89l-44 -1c-79 -266 -95 -318 -157 -535c-27 -93 -129 -129 -246 -124l7 103c71 -2 98 11 128 50c16 41 28 65 38 130c-33 139 -90 232 -128 381l-42 3c-2 8 -2 52 1 82c66 5 196 0 199 0c-2 -33 2 -70 3 -84l-62 -4c35 -114 53 -144 81 -244
c36 93 37 137 74 247c-13 4 -21 1 -33 5c-3 21 2 54 2 80c24 -5 140 0 180 0zM357 780c-43 -56 -54 -81 -102 -139l-70 38c38 70 44 93 79 153z" />
    <glyph glyph-name="z" unicode="z" horiz-adv-x="444" 
d="M413 166l-12 -166c-97 -3 -270 3 -366 0c38 153 133 320 192 505l-88 5l-9 -52l-91 8c-1 43 8 96 7 137c83 1 130 -4 190 -6l149 -4c-49 -160 -145 -344 -197 -488c42 0 93 0 120 -1l8 60zM382 745c-23 -24 -57 -49 -85 -79c-27 -27 -41 -36 -65 -56l-161 137
c19 24 34 30 56 52l45 -35c29 -22 36 -33 60 -54c30 27 70 57 100 86z" />
    <glyph glyph-name="braceleft" unicode="{" 
d="M700 350l-350 -350l-350 350l350 350zM683 350l-333 333l-83 -83l83 -83l-167 -167l84 -83l166 166l84 -83l-167 -167l83 -83z" />
    <glyph glyph-name="bar" unicode="|" 
d="M700 350l-350 -350l-350 350l350 350zM683 350l-333 333l-83 -83l83 -83l-167 -167l84 -83l166 166l84 -83l-167 -167l83 -83z" />
    <glyph glyph-name="braceright" unicode="}" 
d="M700 350l-350 -350l-350 350l350 350zM683 350l-333 333l-83 -83l83 -83l-167 -167l84 -83l166 166l84 -83l-167 -167l83 -83z" />
    <glyph glyph-name="asciitilde" unicode="~" 
d="M700 350l-350 -350l-350 350l350 350zM683 350l-333 333l-83 -83l83 -83l-167 -167l84 -83l166 166l84 -83l-167 -167l83 -83z" />
    <glyph glyph-name="exclamdown" unicode="&#xa1;" 
d="M700 350l-350 -350l-350 350l350 350zM683 350l-333 333l-83 -83l83 -83l-167 -167l84 -83l166 166l84 -83l-167 -167l83 -83z" />
    <glyph glyph-name="cent" unicode="&#xa2;" 
d="M700 350l-350 -350l-350 350l350 350zM683 350l-333 333l-83 -83l83 -83l-167 -167l84 -83l166 166l84 -83l-167 -167l83 -83z" />
    <glyph glyph-name="sterling" unicode="&#xa3;" 
d="M700 350l-350 -350l-350 350l350 350zM683 350l-333 333l-83 -83l83 -83l-167 -167l84 -83l166 166l84 -83l-167 -167l83 -83z" />
    <glyph glyph-name="fraction" unicode="&#x2044;" 
d="M700 350l-350 -350l-350 350l350 350zM683 350l-333 333l-83 -83l83 -83l-167 -167l84 -83l166 166l84 -83l-167 -167l83 -83z" />
    <glyph glyph-name="yen" unicode="&#xa5;" 
d="M700 350l-350 -350l-350 350l350 350zM683 350l-333 333l-83 -83l83 -83l-167 -167l84 -83l166 166l84 -83l-167 -167l83 -83z" />
    <glyph glyph-name="florin" unicode="&#x192;" 
d="M700 350l-350 -350l-350 350l350 350zM683 350l-333 333l-83 -83l83 -83l-167 -167l84 -83l166 166l84 -83l-167 -167l83 -83z" />
    <glyph glyph-name="section" unicode="&#xa7;" 
d="M700 350l-350 -350l-350 350l350 350zM683 350l-333 333l-83 -83l83 -83l-167 -167l84 -83l166 166l84 -83l-167 -167l83 -83z" />
    <glyph glyph-name="currency" unicode="&#xa4;" horiz-adv-x="462" 
d="M242 778c26 14 125 18 191 13l7 -165c-15 0 -66 -6 -88 -1c-2 30 -3 40 -2 52c-48 -5 -94 -36 -105 -102c-3 -18 -9 -71 -9 -71l105 -1v-49h-105l-3 -47h106l-3 -52l-104 1l-2 -140c5 -81 56 -89 108 -97c-1 24 0 43 1 54c24 1 72 -5 89 -4c-2 -39 -3 -114 -6 -169
c-106 5 -271 -7 -303 124c-7 30 -10 61 -14 86l5 149h-59l4 49h51l5 49h-49l4 50l45 -1l17 132c17 72 66 132 114 140z" />
    <glyph glyph-name="quotesingle" unicode="'" 
d="M700 350l-350 -350l-350 350l350 350zM683 350l-333 333l-83 -83l83 -83l-167 -167l84 -83l166 166l84 -83l-167 -167l83 -83z" />
    <glyph glyph-name="quotedblleft" unicode="&#x201c;" 
d="M700 350l-350 -350l-350 350l350 350zM683 350l-333 333l-83 -83l83 -83l-167 -167l84 -83l166 166l84 -83l-167 -167l83 -83z" />
    <glyph glyph-name="guillemotleft" unicode="&#xab;" 
d="M700 350l-350 -350l-350 350l350 350zM683 350l-333 333l-83 -83l83 -83l-167 -167l84 -83l166 166l84 -83l-167 -167l83 -83z" />
    <glyph glyph-name="guilsinglleft" unicode="&#x2039;" 
d="M700 350l-350 -350l-350 350l350 350zM683 350l-333 333l-83 -83l83 -83l-167 -167l84 -83l166 166l84 -83l-167 -167l83 -83z" />
    <glyph glyph-name="guilsinglright" unicode="&#x203a;" 
d="M700 350l-350 -350l-350 350l350 350zM683 350l-333 333l-83 -83l83 -83l-167 -167l84 -83l166 166l84 -83l-167 -167l83 -83z" />
    <glyph glyph-name="fi" unicode="&#xfb01;" 
d="M700 350l-350 -350l-350 350l350 350zM683 350l-333 333l-83 -83l83 -83l-167 -167l84 -83l166 166l84 -83l-167 -167l83 -83z" />
    <glyph glyph-name="fl" unicode="&#xfb02;" 
d="M700 350l-350 -350l-350 350l350 350zM683 350l-333 333l-83 -83l83 -83l-167 -167l84 -83l166 166l84 -83l-167 -167l83 -83z" />
    <glyph glyph-name="endash" unicode="&#x2013;" 
d="M700 350l-350 -350l-350 350l350 350zM683 350l-333 333l-83 -83l83 -83l-167 -167l84 -83l166 166l84 -83l-167 -167l83 -83z" />
    <glyph glyph-name="dagger" unicode="&#x2020;" 
d="M700 350l-350 -350l-350 350l350 350zM683 350l-333 333l-83 -83l83 -83l-167 -167l84 -83l166 166l84 -83l-167 -167l83 -83z" />
    <glyph glyph-name="daggerdbl" unicode="&#x2021;" 
d="M700 350l-350 -350l-350 350l350 350zM683 350l-333 333l-83 -83l83 -83l-167 -167l84 -83l166 166l84 -83l-167 -167l83 -83z" />
    <glyph glyph-name="periodcentered" unicode="&#xb7;" horiz-adv-x="232" 
d="M198 350c-23 -71 -121 -63 -152 -12c-25 41 -6 69 15 103c22 21 67 33 97 15c41 -24 54 -62 40 -106z" />
    <glyph glyph-name="paragraph" unicode="&#xb6;" horiz-adv-x="488" 
d="M195 401c-154 11 -203 185 -167 296c35 107 75 94 165 94zM468 681l-113 -2c2 -297 23 -423 9 -679h-262c-5 50 6 64 2 123l142 1l-6 667h215z" />
    <glyph glyph-name="bullet" unicode="&#x2022;" 
d="M700 350l-350 -350l-350 350l350 350zM683 350l-333 333l-83 -83l83 -83l-167 -167l84 -83l166 166l84 -83l-167 -167l83 -83z" />
    <glyph glyph-name="quotesinglbase" unicode="&#x201a;" 
d="M700 350l-350 -350l-350 350l350 350zM683 350l-333 333l-83 -83l83 -83l-167 -167l84 -83l166 166l84 -83l-167 -167l83 -83z" />
    <glyph glyph-name="quotedblbase" unicode="&#x201e;" 
d="M700 350l-350 -350l-350 350l350 350zM683 350l-333 333l-83 -83l83 -83l-167 -167l84 -83l166 166l84 -83l-167 -167l83 -83z" />
    <glyph glyph-name="quotedblright" unicode="&#x201d;" 
d="M700 350l-350 -350l-350 350l350 350zM683 350l-333 333l-83 -83l83 -83l-167 -167l84 -83l166 166l84 -83l-167 -167l83 -83z" />
    <glyph glyph-name="guillemotright" unicode="&#xbb;" 
d="M700 350l-350 -350l-350 350l350 350zM683 350l-333 333l-83 -83l83 -83l-167 -167l84 -83l166 166l84 -83l-167 -167l83 -83z" />
    <glyph glyph-name="ellipsis" unicode="&#x2026;" 
d="M700 350l-350 -350l-350 350l350 350zM683 350l-333 333l-83 -83l83 -83l-167 -167l84 -83l166 166l84 -83l-167 -167l83 -83z" />
    <glyph glyph-name="perthousand" unicode="&#x2030;" 
d="M700 350l-350 -350l-350 350l350 350zM683 350l-333 333l-83 -83l83 -83l-167 -167l84 -83l166 166l84 -83l-167 -167l83 -83z" />
    <glyph glyph-name="questiondown" unicode="&#xbf;" 
d="M700 350l-350 -350l-350 350l350 350zM683 350l-333 333l-83 -83l83 -83l-167 -167l84 -83l166 166l84 -83l-167 -167l83 -83z" />
    <glyph glyph-name="grave" unicode="`" 
d="M700 350l-350 -350l-350 350l350 350zM683 350l-333 333l-83 -83l83 -83l-167 -167l84 -83l166 166l84 -83l-167 -167l83 -83z" />
    <glyph glyph-name="acute" unicode="&#xb4;" 
d="M700 350l-350 -350l-350 350l350 350zM683 350l-333 333l-83 -83l83 -83l-167 -167l84 -83l166 166l84 -83l-167 -167l83 -83z" />
    <glyph glyph-name="circumflex" unicode="&#x2c6;" 
d="M700 350l-350 -350l-350 350l350 350zM683 350l-333 333l-83 -83l83 -83l-167 -167l84 -83l166 166l84 -83l-167 -167l83 -83z" />
    <glyph glyph-name="tilde" unicode="&#x2dc;" 
d="M700 350l-350 -350l-350 350l350 350zM683 350l-333 333l-83 -83l83 -83l-167 -167l84 -83l166 166l84 -83l-167 -167l83 -83z" />
    <glyph glyph-name="macron" unicode="&#xaf;" 
d="M700 350l-350 -350l-350 350l350 350zM683 350l-333 333l-83 -83l83 -83l-167 -167l84 -83l166 166l84 -83l-167 -167l83 -83z" />
    <glyph glyph-name="breve" unicode="&#x2d8;" 
d="M700 350l-350 -350l-350 350l350 350zM683 350l-333 333l-83 -83l83 -83l-167 -167l84 -83l166 166l84 -83l-167 -167l83 -83z" />
    <glyph glyph-name="dotaccent" unicode="&#x2d9;" 
d="M700 350l-350 -350l-350 350l350 350zM683 350l-333 333l-83 -83l83 -83l-167 -167l84 -83l166 166l84 -83l-167 -167l83 -83z" />
    <glyph glyph-name="dieresis" unicode="&#xa8;" 
d="M700 350l-350 -350l-350 350l350 350zM683 350l-333 333l-83 -83l83 -83l-167 -167l84 -83l166 166l84 -83l-167 -167l83 -83z" />
    <glyph glyph-name="ring" unicode="&#x2da;" 
d="M700 350l-350 -350l-350 350l350 350zM683 350l-333 333l-83 -83l83 -83l-167 -167l84 -83l166 166l84 -83l-167 -167l83 -83z" />
    <glyph glyph-name="cedilla" unicode="&#xb8;" 
d="M700 350l-350 -350l-350 350l350 350zM683 350l-333 333l-83 -83l83 -83l-167 -167l84 -83l166 166l84 -83l-167 -167l83 -83z" />
    <glyph glyph-name="hungarumlaut" unicode="&#x2dd;" 
d="M700 350l-350 -350l-350 350l350 350zM683 350l-333 333l-83 -83l83 -83l-167 -167l84 -83l166 166l84 -83l-167 -167l83 -83z" />
    <glyph glyph-name="ogonek" unicode="&#x2db;" 
d="M700 350l-350 -350l-350 350l350 350zM683 350l-333 333l-83 -83l83 -83l-167 -167l84 -83l166 166l84 -83l-167 -167l83 -83z" />
    <glyph glyph-name="caron" unicode="&#x2c7;" 
d="M700 350l-350 -350l-350 350l350 350zM683 350l-333 333l-83 -83l83 -83l-167 -167l84 -83l166 166l84 -83l-167 -167l83 -83z" />
    <glyph glyph-name="emdash" unicode="&#x2014;" 
d="M700 350l-350 -350l-350 350l350 350zM683 350l-333 333l-83 -83l83 -83l-167 -167l84 -83l166 166l84 -83l-167 -167l83 -83z" />
    <glyph glyph-name="AE" unicode="&#xc6;" 
d="M700 350l-350 -350l-350 350l350 350zM683 350l-333 333l-83 -83l83 -83l-167 -167l84 -83l166 166l84 -83l-167 -167l83 -83z" />
    <glyph glyph-name="ordfeminine" unicode="&#xaa;" 
d="M700 350l-350 -350l-350 350l350 350zM683 350l-333 333l-83 -83l83 -83l-167 -167l84 -83l166 166l84 -83l-167 -167l83 -83z" />
    <glyph glyph-name="Lslash" unicode="&#x141;" 
d="M700 350l-350 -350l-350 350l350 350zM683 350l-333 333l-83 -83l83 -83l-167 -167l84 -83l166 166l84 -83l-167 -167l83 -83z" />
    <glyph glyph-name="Oslash" unicode="&#xd8;" 
d="M700 350l-350 -350l-350 350l350 350zM683 350l-333 333l-83 -83l83 -83l-167 -167l84 -83l166 166l84 -83l-167 -167l83 -83z" />
    <glyph glyph-name="OE" unicode="&#x152;" 
d="M700 350l-350 -350l-350 350l350 350zM683 350l-333 333l-83 -83l83 -83l-167 -167l84 -83l166 166l84 -83l-167 -167l83 -83z" />
    <glyph glyph-name="ordmasculine" unicode="&#xba;" 
d="M700 350l-350 -350l-350 350l350 350zM683 350l-333 333l-83 -83l83 -83l-167 -167l84 -83l166 166l84 -83l-167 -167l83 -83z" />
    <glyph glyph-name="ae" unicode="&#xe6;" 
d="M700 350l-350 -350l-350 350l350 350zM683 350l-333 333l-83 -83l83 -83l-167 -167l84 -83l166 166l84 -83l-167 -167l83 -83z" />
    <glyph glyph-name="dotlessi" unicode="&#x131;" 
d="M700 350l-350 -350l-350 350l350 350zM683 350l-333 333l-83 -83l83 -83l-167 -167l84 -83l166 166l84 -83l-167 -167l83 -83z" />
    <glyph glyph-name="lslash" unicode="&#x142;" 
d="M700 350l-350 -350l-350 350l350 350zM683 350l-333 333l-83 -83l83 -83l-167 -167l84 -83l166 166l84 -83l-167 -167l83 -83z" />
    <glyph glyph-name="oslash" unicode="&#xf8;" 
d="M700 350l-350 -350l-350 350l350 350zM683 350l-333 333l-83 -83l83 -83l-167 -167l84 -83l166 166l84 -83l-167 -167l83 -83z" />
    <glyph glyph-name="oe" unicode="&#x153;" 
d="M700 350l-350 -350l-350 350l350 350zM683 350l-333 333l-83 -83l83 -83l-167 -167l84 -83l166 166l84 -83l-167 -167l83 -83z" />
    <glyph glyph-name="germandbls" unicode="&#xdf;" 
d="M700 350l-350 -350l-350 350l350 350zM683 350l-333 333l-83 -83l83 -83l-167 -167l84 -83l166 166l84 -83l-167 -167l83 -83z" />
    <glyph glyph-name="Scaron" unicode="&#x160;" 
d="M700 350l-350 -350l-350 350l350 350zM683 350l-333 333l-83 -83l83 -83l-167 -167l84 -83l166 166l84 -83l-167 -167l83 -83z" />
    <glyph glyph-name="scaron" unicode="&#x161;" 
d="M700 350l-350 -350l-350 350l350 350zM683 350l-333 333l-83 -83l83 -83l-167 -167l84 -83l166 166l84 -83l-167 -167l83 -83z" />
    <glyph glyph-name="Yacute" unicode="&#xdd;" 
d="M700 350l-350 -350l-350 350l350 350zM683 350l-333 333l-83 -83l83 -83l-167 -167l84 -83l166 166l84 -83l-167 -167l83 -83z" />
    <glyph glyph-name="yacute" unicode="&#xfd;" 
d="M700 350l-350 -350l-350 350l350 350zM683 350l-333 333l-83 -83l83 -83l-167 -167l84 -83l166 166l84 -83l-167 -167l83 -83z" />
    <glyph glyph-name="Thorn" unicode="&#xde;" 
d="M700 350l-350 -350l-350 350l350 350zM683 350l-333 333l-83 -83l83 -83l-167 -167l84 -83l166 166l84 -83l-167 -167l83 -83z" />
    <glyph glyph-name="thorn" unicode="&#xfe;" 
d="M700 350l-350 -350l-350 350l350 350zM683 350l-333 333l-83 -83l83 -83l-167 -167l84 -83l166 166l84 -83l-167 -167l83 -83z" />
    <glyph glyph-name="Zcaron" unicode="&#x17d;" 
d="M700 350l-350 -350l-350 350l350 350zM683 350l-333 333l-83 -83l83 -83l-167 -167l84 -83l166 166l84 -83l-167 -167l83 -83z" />
    <glyph glyph-name="zcaron" unicode="&#x17e;" 
d="M700 350l-350 -350l-350 350l350 350zM683 350l-333 333l-83 -83l83 -83l-167 -167l84 -83l166 166l84 -83l-167 -167l83 -83z" />
    <glyph glyph-name="onehalf" unicode="&#xbd;" 
d="M700 350l-350 -350l-350 350l350 350zM683 350l-333 333l-83 -83l83 -83l-167 -167l84 -83l166 166l84 -83l-167 -167l83 -83z" />
    <glyph glyph-name="onequarter" unicode="&#xbc;" 
d="M700 350l-350 -350l-350 350l350 350zM683 350l-333 333l-83 -83l83 -83l-167 -167l84 -83l166 166l84 -83l-167 -167l83 -83z" />
    <glyph glyph-name="onesuperior" unicode="&#xb9;" 
d="M700 350l-350 -350l-350 350l350 350zM683 350l-333 333l-83 -83l83 -83l-167 -167l84 -83l166 166l84 -83l-167 -167l83 -83z" />
    <glyph glyph-name="threequarters" unicode="&#xbe;" 
d="M700 350l-350 -350l-350 350l350 350zM683 350l-333 333l-83 -83l83 -83l-167 -167l84 -83l166 166l84 -83l-167 -167l83 -83z" />
    <glyph glyph-name="threesuperior" unicode="&#xb3;" 
d="M700 350l-350 -350l-350 350l350 350zM683 350l-333 333l-83 -83l83 -83l-167 -167l84 -83l166 166l84 -83l-167 -167l83 -83z" />
    <glyph glyph-name="twosuperior" unicode="&#xb2;" 
d="M700 350l-350 -350l-350 350l350 350zM683 350l-333 333l-83 -83l83 -83l-167 -167l84 -83l166 166l84 -83l-167 -167l83 -83z" />
    <glyph glyph-name="brokenbar" unicode="&#xa6;" 
d="M700 350l-350 -350l-350 350l350 350zM683 350l-333 333l-83 -83l83 -83l-167 -167l84 -83l166 166l84 -83l-167 -167l83 -83z" />
    <glyph glyph-name="minus" unicode="&#x2212;" 
d="M700 350l-350 -350l-350 350l350 350zM683 350l-333 333l-83 -83l83 -83l-167 -167l84 -83l166 166l84 -83l-167 -167l83 -83z" />
    <glyph glyph-name="multiply" unicode="&#xd7;" 
d="M700 350l-350 -350l-350 350l350 350zM683 350l-333 333l-83 -83l83 -83l-167 -167l84 -83l166 166l84 -83l-167 -167l83 -83z" />
    <glyph glyph-name="Adieresis" unicode="&#xc4;" 
d="M700 350l-350 -350l-350 350l350 350zM683 350l-333 333l-83 -83l83 -83l-167 -167l84 -83l166 166l84 -83l-167 -167l83 -83z" />
    <glyph glyph-name="Aring" unicode="&#xc5;" 
d="M700 350l-350 -350l-350 350l350 350zM683 350l-333 333l-83 -83l83 -83l-167 -167l84 -83l166 166l84 -83l-167 -167l83 -83z" />
    <glyph glyph-name="Ccedilla" unicode="&#xc7;" 
d="M700 350l-350 -350l-350 350l350 350zM683 350l-333 333l-83 -83l83 -83l-167 -167l84 -83l166 166l84 -83l-167 -167l83 -83z" />
    <glyph glyph-name="Eacute" unicode="&#xc9;" 
d="M700 350l-350 -350l-350 350l350 350zM683 350l-333 333l-83 -83l83 -83l-167 -167l84 -83l166 166l84 -83l-167 -167l83 -83z" />
    <glyph glyph-name="Ntilde" unicode="&#xd1;" 
d="M700 350l-350 -350l-350 350l350 350zM683 350l-333 333l-83 -83l83 -83l-167 -167l84 -83l166 166l84 -83l-167 -167l83 -83z" />
    <glyph glyph-name="Odieresis" unicode="&#xd6;" 
d="M700 350l-350 -350l-350 350l350 350zM683 350l-333 333l-83 -83l83 -83l-167 -167l84 -83l166 166l84 -83l-167 -167l83 -83z" />
    <glyph glyph-name="Udieresis" unicode="&#xdc;" 
d="M700 350l-350 -350l-350 350l350 350zM683 350l-333 333l-83 -83l83 -83l-167 -167l84 -83l166 166l84 -83l-167 -167l83 -83z" />
    <glyph glyph-name="aacute" unicode="&#xe1;" 
d="M700 350l-350 -350l-350 350l350 350zM683 350l-333 333l-83 -83l83 -83l-167 -167l84 -83l166 166l84 -83l-167 -167l83 -83z" />
    <glyph glyph-name="agrave" unicode="&#xe0;" 
d="M700 350l-350 -350l-350 350l350 350zM683 350l-333 333l-83 -83l83 -83l-167 -167l84 -83l166 166l84 -83l-167 -167l83 -83z" />
    <glyph glyph-name="acircumflex" unicode="&#xe2;" 
d="M700 350l-350 -350l-350 350l350 350zM683 350l-333 333l-83 -83l83 -83l-167 -167l84 -83l166 166l84 -83l-167 -167l83 -83z" />
    <glyph glyph-name="adieresis" unicode="&#xe4;" 
d="M700 350l-350 -350l-350 350l350 350zM683 350l-333 333l-83 -83l83 -83l-167 -167l84 -83l166 166l84 -83l-167 -167l83 -83z" />
    <glyph glyph-name="atilde" unicode="&#xe3;" 
d="M700 350l-350 -350l-350 350l350 350zM683 350l-333 333l-83 -83l83 -83l-167 -167l84 -83l166 166l84 -83l-167 -167l83 -83z" />
    <glyph glyph-name="aring" unicode="&#xe5;" 
d="M700 350l-350 -350l-350 350l350 350zM683 350l-333 333l-83 -83l83 -83l-167 -167l84 -83l166 166l84 -83l-167 -167l83 -83z" />
    <glyph glyph-name="ccedilla" unicode="&#xe7;" 
d="M700 350l-350 -350l-350 350l350 350zM683 350l-333 333l-83 -83l83 -83l-167 -167l84 -83l166 166l84 -83l-167 -167l83 -83z" />
    <glyph glyph-name="eacute" unicode="&#xe9;" 
d="M700 350l-350 -350l-350 350l350 350zM683 350l-333 333l-83 -83l83 -83l-167 -167l84 -83l166 166l84 -83l-167 -167l83 -83z" />
    <glyph glyph-name="egrave" unicode="&#xe8;" 
d="M700 350l-350 -350l-350 350l350 350zM683 350l-333 333l-83 -83l83 -83l-167 -167l84 -83l166 166l84 -83l-167 -167l83 -83z" />
    <glyph glyph-name="ecircumflex" unicode="&#xea;" 
d="M700 350l-350 -350l-350 350l350 350zM683 350l-333 333l-83 -83l83 -83l-167 -167l84 -83l166 166l84 -83l-167 -167l83 -83z" />
    <glyph glyph-name="edieresis" unicode="&#xeb;" 
d="M700 350l-350 -350l-350 350l350 350zM683 350l-333 333l-83 -83l83 -83l-167 -167l84 -83l166 166l84 -83l-167 -167l83 -83z" />
    <glyph glyph-name="iacute" unicode="&#xed;" 
d="M700 350l-350 -350l-350 350l350 350zM683 350l-333 333l-83 -83l83 -83l-167 -167l84 -83l166 166l84 -83l-167 -167l83 -83z" />
    <glyph glyph-name="igrave" unicode="&#xec;" 
d="M700 350l-350 -350l-350 350l350 350zM683 350l-333 333l-83 -83l83 -83l-167 -167l84 -83l166 166l84 -83l-167 -167l83 -83z" />
    <glyph glyph-name="icircumflex" unicode="&#xee;" 
d="M700 350l-350 -350l-350 350l350 350zM683 350l-333 333l-83 -83l83 -83l-167 -167l84 -83l166 166l84 -83l-167 -167l83 -83z" />
    <glyph glyph-name="idieresis" unicode="&#xef;" 
d="M700 350l-350 -350l-350 350l350 350zM683 350l-333 333l-83 -83l83 -83l-167 -167l84 -83l166 166l84 -83l-167 -167l83 -83z" />
    <glyph glyph-name="ntilde" unicode="&#xf1;" 
d="M700 350l-350 -350l-350 350l350 350zM683 350l-333 333l-83 -83l83 -83l-167 -167l84 -83l166 166l84 -83l-167 -167l83 -83z" />
    <glyph glyph-name="oacute" unicode="&#xf3;" 
d="M700 350l-350 -350l-350 350l350 350zM683 350l-333 333l-83 -83l83 -83l-167 -167l84 -83l166 166l84 -83l-167 -167l83 -83z" />
    <glyph glyph-name="ograve" unicode="&#xf2;" 
d="M700 350l-350 -350l-350 350l350 350zM683 350l-333 333l-83 -83l83 -83l-167 -167l84 -83l166 166l84 -83l-167 -167l83 -83z" />
    <glyph glyph-name="ocircumflex" unicode="&#xf4;" 
d="M700 350l-350 -350l-350 350l350 350zM683 350l-333 333l-83 -83l83 -83l-167 -167l84 -83l166 166l84 -83l-167 -167l83 -83z" />
    <glyph glyph-name="odieresis" unicode="&#xf6;" 
d="M700 350l-350 -350l-350 350l350 350zM683 350l-333 333l-83 -83l83 -83l-167 -167l84 -83l166 166l84 -83l-167 -167l83 -83z" />
    <glyph glyph-name="otilde" unicode="&#xf5;" 
d="M700 350l-350 -350l-350 350l350 350zM683 350l-333 333l-83 -83l83 -83l-167 -167l84 -83l166 166l84 -83l-167 -167l83 -83z" />
    <glyph glyph-name="uacute" unicode="&#xfa;" 
d="M700 350l-350 -350l-350 350l350 350zM683 350l-333 333l-83 -83l83 -83l-167 -167l84 -83l166 166l84 -83l-167 -167l83 -83z" />
    <glyph glyph-name="ugrave" unicode="&#xf9;" 
d="M700 350l-350 -350l-350 350l350 350zM683 350l-333 333l-83 -83l83 -83l-167 -167l84 -83l166 166l84 -83l-167 -167l83 -83z" />
    <glyph glyph-name="ucircumflex" unicode="&#xfb;" 
d="M700 350l-350 -350l-350 350l350 350zM683 350l-333 333l-83 -83l83 -83l-167 -167l84 -83l166 166l84 -83l-167 -167l83 -83z" />
    <glyph glyph-name="udieresis" unicode="&#xfc;" 
d="M700 350l-350 -350l-350 350l350 350zM683 350l-333 333l-83 -83l83 -83l-167 -167l84 -83l166 166l84 -83l-167 -167l83 -83z" />
    <glyph glyph-name="degree" unicode="&#xb0;" 
d="M700 350l-350 -350l-350 350l350 350zM683 350l-333 333l-83 -83l83 -83l-167 -167l84 -83l166 166l84 -83l-167 -167l83 -83z" />
    <glyph glyph-name="registered" unicode="&#xae;" 
d="M700 350l-350 -350l-350 350l350 350zM683 350l-333 333l-83 -83l83 -83l-167 -167l84 -83l166 166l84 -83l-167 -167l83 -83z" />
    <glyph glyph-name="copyright" unicode="&#xa9;" 
d="M700 350l-350 -350l-350 350l350 350zM683 350l-333 333l-83 -83l83 -83l-167 -167l84 -83l166 166l84 -83l-167 -167l83 -83z" />
    <glyph glyph-name="trademark" unicode="&#x2122;" 
d="M700 350l-350 -350l-350 350l350 350zM683 350l-333 333l-83 -83l83 -83l-167 -167l84 -83l166 166l84 -83l-167 -167l83 -83z" />
    <glyph glyph-name="plusminus" unicode="&#xb1;" 
d="M700 350l-350 -350l-350 350l350 350zM683 350l-333 333l-83 -83l83 -83l-167 -167l84 -83l166 166l84 -83l-167 -167l83 -83z" />
    <glyph glyph-name="mu" unicode="&#xb5;" 
d="M700 350l-350 -350l-350 350l350 350zM683 350l-333 333l-83 -83l83 -83l-167 -167l84 -83l166 166l84 -83l-167 -167l83 -83z" />
    <glyph glyph-name="logicalnot" unicode="&#xac;" 
d="M700 350l-350 -350l-350 350l350 350zM683 350l-333 333l-83 -83l83 -83l-167 -167l84 -83l166 166l84 -83l-167 -167l83 -83z" />
    <glyph glyph-name="Agrave" unicode="&#xc0;" 
d="M700 350l-350 -350l-350 350l350 350zM683 350l-333 333l-83 -83l83 -83l-167 -167l84 -83l166 166l84 -83l-167 -167l83 -83z" />
    <glyph glyph-name="Atilde" unicode="&#xc3;" 
d="M700 350l-350 -350l-350 350l350 350zM683 350l-333 333l-83 -83l83 -83l-167 -167l84 -83l166 166l84 -83l-167 -167l83 -83z" />
    <glyph glyph-name="Otilde" unicode="&#xd5;" 
d="M700 350l-350 -350l-350 350l350 350zM683 350l-333 333l-83 -83l83 -83l-167 -167l84 -83l166 166l84 -83l-167 -167l83 -83z" />
    <glyph glyph-name="divide" unicode="&#xf7;" 
d="M700 350l-350 -350l-350 350l350 350zM683 350l-333 333l-83 -83l83 -83l-167 -167l84 -83l166 166l84 -83l-167 -167l83 -83z" />
    <glyph glyph-name="ydieresis" unicode="&#xff;" 
d="M700 350l-350 -350l-350 350l350 350zM683 350l-333 333l-83 -83l83 -83l-167 -167l84 -83l166 166l84 -83l-167 -167l83 -83z" />
    <glyph glyph-name="Ydieresis" unicode="&#x178;" 
d="M700 350l-350 -350l-350 350l350 350zM683 350l-333 333l-83 -83l83 -83l-167 -167l84 -83l166 166l84 -83l-167 -167l83 -83z" />
    <glyph glyph-name="Acircumflex" unicode="&#xc2;" 
d="M700 350l-350 -350l-350 350l350 350zM683 350l-333 333l-83 -83l83 -83l-167 -167l84 -83l166 166l84 -83l-167 -167l83 -83z" />
    <glyph glyph-name="Ecircumflex" unicode="&#xca;" 
d="M700 350l-350 -350l-350 350l350 350zM683 350l-333 333l-83 -83l83 -83l-167 -167l84 -83l166 166l84 -83l-167 -167l83 -83z" />
    <glyph glyph-name="Aacute" unicode="&#xc1;" 
d="M700 350l-350 -350l-350 350l350 350zM683 350l-333 333l-83 -83l83 -83l-167 -167l84 -83l166 166l84 -83l-167 -167l83 -83z" />
    <glyph glyph-name="Edieresis" unicode="&#xcb;" 
d="M700 350l-350 -350l-350 350l350 350zM683 350l-333 333l-83 -83l83 -83l-167 -167l84 -83l166 166l84 -83l-167 -167l83 -83z" />
    <glyph glyph-name="Egrave" unicode="&#xc8;" 
d="M700 350l-350 -350l-350 350l350 350zM683 350l-333 333l-83 -83l83 -83l-167 -167l84 -83l166 166l84 -83l-167 -167l83 -83z" />
    <glyph glyph-name="Iacute" unicode="&#xcd;" 
d="M700 350l-350 -350l-350 350l350 350zM683 350l-333 333l-83 -83l83 -83l-167 -167l84 -83l166 166l84 -83l-167 -167l83 -83z" />
    <glyph glyph-name="Icircumflex" unicode="&#xce;" 
d="M700 350l-350 -350l-350 350l350 350zM683 350l-333 333l-83 -83l83 -83l-167 -167l84 -83l166 166l84 -83l-167 -167l83 -83z" />
    <glyph glyph-name="Idieresis" unicode="&#xcf;" 
d="M700 350l-350 -350l-350 350l350 350zM683 350l-333 333l-83 -83l83 -83l-167 -167l84 -83l166 166l84 -83l-167 -167l83 -83z" />
    <glyph glyph-name="Igrave" unicode="&#xcc;" 
d="M700 350l-350 -350l-350 350l350 350zM683 350l-333 333l-83 -83l83 -83l-167 -167l84 -83l166 166l84 -83l-167 -167l83 -83z" />
    <glyph glyph-name="Oacute" unicode="&#xd3;" 
d="M700 350l-350 -350l-350 350l350 350zM683 350l-333 333l-83 -83l83 -83l-167 -167l84 -83l166 166l84 -83l-167 -167l83 -83z" />
    <glyph glyph-name="Ocircumflex" unicode="&#xd4;" 
d="M700 350l-350 -350l-350 350l350 350zM683 350l-333 333l-83 -83l83 -83l-167 -167l84 -83l166 166l84 -83l-167 -167l83 -83z" />
    <glyph glyph-name="Ograve" unicode="&#xd2;" 
d="M700 350l-350 -350l-350 350l350 350zM683 350l-333 333l-83 -83l83 -83l-167 -167l84 -83l166 166l84 -83l-167 -167l83 -83z" />
    <glyph glyph-name="Uacute" unicode="&#xda;" 
d="M700 350l-350 -350l-350 350l350 350zM683 350l-333 333l-83 -83l83 -83l-167 -167l84 -83l166 166l84 -83l-167 -167l83 -83z" />
    <glyph glyph-name="Ucircumflex" unicode="&#xdb;" 
d="M700 350l-350 -350l-350 350l350 350zM683 350l-333 333l-83 -83l83 -83l-167 -167l84 -83l166 166l84 -83l-167 -167l83 -83z" />
    <glyph glyph-name="Ugrave" unicode="&#xd9;" 
d="M700 350l-350 -350l-350 350l350 350zM683 350l-333 333l-83 -83l83 -83l-167 -167l84 -83l166 166l84 -83l-167 -167l83 -83z" />
    <glyph glyph-name="Eth" unicode="&#xd0;" 
d="M700 350l-350 -350l-350 350l350 350zM683 350l-333 333l-83 -83l83 -83l-167 -167l84 -83l166 166l84 -83l-167 -167l83 -83z" />
    <glyph glyph-name="eth" unicode="&#xf0;" 
d="M700 350l-350 -350l-350 350l350 350zM683 350l-333 333l-83 -83l83 -83l-167 -167l84 -83l166 166l84 -83l-167 -167l83 -83z" />
    <glyph glyph-name="nbspace" unicode="&#xa0;" horiz-adv-x="244" 
 />
    <glyph glyph-name="Euro" unicode="&#x20ac;" horiz-adv-x="462" 
d="M242 778c26 14 125 18 191 13l7 -165c-15 0 -66 -6 -88 -1c-2 30 -3 40 -2 52c-48 -5 -94 -36 -105 -102c-3 -18 -9 -71 -9 -71l105 -1v-49h-105l-3 -47h106l-3 -52l-104 1l-2 -140c5 -81 56 -89 108 -97c-1 24 0 43 1 54c24 1 72 -5 89 -4c-2 -39 -3 -114 -6 -169
c-106 5 -271 -7 -303 124c-7 30 -10 61 -14 86l5 149h-59l4 49h51l5 49h-49l4 50l45 -1l17 132c17 72 66 132 114 140z" />
  </font>
</defs>
</svg>
